MyNerve-Regular.ufo
<glyph name="dollar" format="2">
	<advance width="589"/>
	<unicode hex="0024"/>
	<outline>
		<contour>
			<point x="288" y="-103" type="curve"/>
			<point x="282" y="-54"/>
			<point x="275" y="-5"/>
			<point x="269" y="43" type="curve" smooth="yes"/>
			<point x="265" y="75"/>
			<point x="273" y="89"/>
			<point x="311" y="94" type="curve" smooth="yes"/>
			<point x="364" y="100"/>
			<point x="417" y="115"/>
			<point x="465" y="136" type="curve" smooth="yes"/>
			<point x="520" y="159"/>
			<point x="534" y="211"/>
			<point x="528" y="268" type="curve" smooth="yes"/>
			<point x="522" y="322"/>
			<point x="494" y="356"/>
			<point x="445" y="373" type="curve" smooth="yes"/>
			<point x="399" y="388"/>
			<point x="351" y="400"/>
			<point x="299" y="415" type="curve"/>
			<point x="306" y="467"/>
			<point x="313" y="521"/>
			<point x="318" y="574" type="curve" smooth="yes"/>
			<point x="324" y="632"/>
			<point x="332" y="640"/>
			<point x="391" y="642" type="curve" smooth="yes"/>
			<point x="403" y="642"/>
			<point x="416" y="637"/>
			<point x="429" y="637" type="curve" smooth="yes"/>
			<point x="449" y="635"/>
			<point x="476" y="621"/>
			<point x="480" y="657" type="curve" smooth="yes"/>
			<point x="484" y="691"/>
			<point x="460" y="698"/>
			<point x="436" y="701" type="curve" smooth="yes"/>
			<point x="405" y="705"/>
			<point x="365" y="702"/>
			<point x="336" y="702" type="curve"/>
			<point x="336" y="735"/>
			<point x="329" y="783"/>
			<point x="303" y="783" type="curve" smooth="yes"/>
			<point x="282" y="783"/>
			<point x="265" y="750"/>
			<point x="263" y="721" type="curve" smooth="yes"/>
			<point x="260" y="670"/>
			<point x="251" y="675"/>
			<point x="222" y="660" type="curve" smooth="yes"/>
			<point x="183" y="640"/>
			<point x="147" y="613"/>
			<point x="114" y="585" type="curve" smooth="yes"/>
			<point x="80" y="556"/>
			<point x="72" y="486"/>
			<point x="102" y="448" type="curve" smooth="yes"/>
			<point x="124" y="420"/>
			<point x="153" y="410"/>
			<point x="173" y="397" type="curve" smooth="yes"/>
			<point x="193" y="384"/>
			<point x="216" y="381"/>
			<point x="216" y="373" type="curve" smooth="yes"/>
			<point x="214" y="304"/>
			<point x="209" y="228"/>
			<point x="206" y="155" type="curve"/>
			<point x="169" y="166"/>
			<point x="133" y="163"/>
			<point x="121" y="206" type="curve" smooth="yes"/>
			<point x="119" y="216"/>
			<point x="96" y="229"/>
			<point x="84" y="227" type="curve" smooth="yes"/>
			<point x="72" y="225"/>
			<point x="56" y="208"/>
			<point x="54" y="195" type="curve" smooth="yes"/>
			<point x="52" y="184"/>
			<point x="64" y="166"/>
			<point x="75" y="159" type="curve" smooth="yes"/>
			<point x="102" y="143"/>
			<point x="138" y="119"/>
			<point x="168" y="109" type="curve" smooth="yes"/>
			<point x="211" y="96"/>
			<point x="212" y="100"/>
			<point x="215" y="35" type="curve" smooth="yes"/>
			<point x="217" y="-3"/>
			<point x="229" y="-42"/>
			<point x="237" y="-80" type="curve" smooth="yes"/>
			<point x="244" y="-110"/>
			<point x="261" y="-115"/>
		</contour>
		<contour>
			<point x="310" y="149" type="curve" smooth="yes"/>
			<point x="299" y="147"/>
			<point x="268" y="135"/>
			<point x="272" y="182" type="curve" smooth="yes"/>
			<point x="277" y="239"/>
			<point x="282" y="292"/>
			<point x="292" y="358" type="curve"/>
			<point x="338" y="342"/>
			<point x="385" y="339"/>
			<point x="422" y="321" type="curve" smooth="yes"/>
			<point x="474" y="297"/>
			<point x="473" y="212"/>
			<point x="417" y="181" type="curve" smooth="yes"/>
			<point x="385" y="163"/>
			<point x="346" y="154"/>
		</contour>
		<contour>
			<point x="224" y="437" type="curve"/>
			<point x="182" y="447"/>
			<point x="148" y="459"/>
			<point x="146" y="505" type="curve" smooth="yes"/>
			<point x="145" y="543"/>
			<point x="192" y="593"/>
			<point x="251" y="606" type="curve"/>
			<point x="247" y="556"/>
			<point x="229" y="487"/>
		</contour>
	</outline>
</glyph>
<glyph name="percent" format="2">
	<advance width="766"/>
	<unicode hex="0025"/>
	<note>
		percent
	</note>
	<outline>
		<contour>
			<point x="71" y="-47" type="curve" smooth="yes"/>
			<point x="76" y="-91"/>
			<point x="135" y="-64"/>
			<point x="164" y="-23" type="curve" smooth="yes"/>
			<point x="183" y="6"/>
			<point x="197" y="39"/>
			<point x="217" y="66" type="curve" smooth="yes"/>
			<point x="299" y="179"/>
			<point x="376" y="295"/>
			<point x="464" y="403" type="curve" smooth="yes"/>
			<point x="545" y="502"/>
			<point x="637" y="592"/>
			<point x="722" y="687" type="curve" smooth="yes"/>
			<point x="730" y="696"/>
			<point x="727" y="732"/>
			<point x="714" y="732" type="curve"/>
			<point x="699" y="731"/>
			<point x="677" y="736"/>
			<point x="670" y="728" type="curve" smooth="yes"/>
			<point x="557" y="602"/>
			<point x="441" y="478"/>
			<point x="334" y="346" type="curve" smooth="yes"/>
			<point x="243" y="236"/>
			<point x="164" y="116"/>
			<point x="81" y="1" type="curve" smooth="yes"/>
			<point x="72" y="-12"/>
			<point x="68" y="-32"/>
		</contour>
		<contour>
			<point x="452" y="90" type="curve"/>
			<point x="426" y="198"/>
			<point x="520" y="257"/>
			<point x="570" y="256" type="curve"/>
			<point x="599" y="164"/>
			<point x="546" y="84"/>
		</contour>
		<contour>
			<point x="536" y="53" type="curve" smooth="yes"/>
			<point x="597" y="76"/>
			<point x="639" y="144"/>
			<point x="640" y="228" type="curve"/>
			<point x="644" y="271"/>
			<point x="620" y="296"/>
			<point x="573" y="306" type="curve" smooth="yes"/>
			<point x="514" y="317"/>
			<point x="418" y="249"/>
			<point x="397" y="182" type="curve" smooth="yes"/>
			<point x="383" y="138"/>
			<point x="388" y="99"/>
			<point x="423" y="67" type="curve" smooth="yes"/>
			<point x="458" y="35"/>
			<point x="497" y="39"/>
		</contour>
		<contour>
			<point x="277" y="395" type="curve" smooth="yes"/>
			<point x="334" y="425"/>
			<point x="363" y="484"/>
			<point x="372" y="550" type="curve" smooth="yes"/>
			<point x="378" y="600"/>
			<point x="338" y="646"/>
			<point x="282" y="638" type="curve" smooth="yes"/>
			<point x="253" y="634"/>
			<point x="228" y="629"/>
			<point x="201" y="620" type="curve" smooth="yes"/>
			<point x="137" y="601"/>
			<point x="118" y="561"/>
			<point x="105" y="492" type="curve"/>
			<point x="117" y="434"/>
			<point x="142" y="414"/>
			<point x="171" y="397" type="curve" smooth="yes"/>
			<point x="201" y="381"/>
			<point x="249" y="382"/>
		</contour>
		<contour>
			<point x="237" y="424" type="curve"/>
			<point x="226" y="427"/>
			<point x="210" y="433"/>
			<point x="191" y="446" type="curve"/>
			<point x="154" y="481"/>
			<point x="173" y="517"/>
			<point x="190" y="537" type="curve" smooth="yes"/>
			<point x="216" y="570"/>
			<point x="295" y="597"/>
			<point x="308" y="584" type="curve"/>
			<point x="338" y="543"/>
			<point x="310" y="458"/>
		</contour>
	</outline>
</glyph>
<glyph name="quotesingle" format="2">
	<advance width="218"/>
	<unicode hex="0027"/>
	<note>
		quotesingle
	</note>
	<outline>
		<contour>
			<point x="109" y="439" type="curve" smooth="yes"/>
			<point x="132" y="437"/>
			<point x="131" y="457"/>
			<point x="132" y="472" type="curve"/>
			<point x="133" y="476"/>
			<point x="132" y="479"/>
			<point x="133" y="482" type="curve"/>
			<point x="138" y="545"/>
			<point x="142" y="609"/>
			<point x="148" y="672" type="curve" smooth="yes"/>
			<point x="151" y="699"/>
			<point x="143" y="716"/>
			<point x="122" y="720" type="curve" smooth="yes"/>
			<point x="90" y="726"/>
			<point x="72" y="715"/>
			<point x="69" y="682" type="curve" smooth="yes"/>
			<point x="66" y="633"/>
			<point x="65" y="583"/>
			<point x="64" y="534" type="curve"/>
			<point x="67" y="534" type="line"/>
			<point x="67" y="513"/>
			<point x="65" y="492"/>
			<point x="68" y="472" type="curve" smooth="yes"/>
			<point x="71" y="450"/>
			<point x="89" y="440"/>
		</contour>
	</outline>
</glyph>
<glyph name="parenright" format="2">
	<advance width="356"/>
	<unicode hex="0029"/>
	<note>
		parenright
	</note>
	<outline>
		<contour>
			<point x="28" y="-81" type="curve"/>
			<point x="80" y="-96"/>
			<point x="103" y="-68"/>
			<point x="125" y="-45" type="curve" smooth="yes"/>
			<point x="200" y="31"/>
			<point x="253" y="122"/>
			<point x="297" y="220" type="curve" smooth="yes"/>
			<point x="330" y="292"/>
			<point x="338" y="366"/>
			<point x="327" y="444" type="curve" smooth="yes"/>
			<point x="313" y="555"/>
			<point x="235" y="633"/>
			<point x="175" y="719" type="curve" smooth="yes"/>
			<point x="168" y="730"/>
			<point x="135" y="722"/>
			<point x="115" y="724" type="curve"/>
			<point x="115" y="706"/>
			<point x="109" y="685"/>
			<point x="117" y="671" type="curve" smooth="yes"/>
			<point x="135" y="642"/>
			<point x="159" y="618"/>
			<point x="180" y="592" type="curve" smooth="yes"/>
			<point x="224" y="534"/>
			<point x="251" y="471"/>
			<point x="251" y="396" type="curve" smooth="yes"/>
			<point x="251" y="219"/>
			<point x="170" y="79"/>
			<point x="53" y="-45" type="curve" smooth="yes"/>
			<point x="44" y="-54"/>
			<point x="38" y="-66"/>
		</contour>
	</outline>
</glyph>
<glyph name="plus" format="2">
	<advance width="673"/>
	<unicode hex="002B"/>
	<note>
		plus
	</note>
	<outline>
		<contour>
			<point x="342" y="19" type="curve"/>
			<point x="357" y="22"/>
			<point x="377" y="63"/>
			<point x="380" y="87" type="curve" smooth="yes"/>
			<point x="386" y="150"/>
			<point x="386" y="214"/>
			<point x="385" y="278" type="curve" smooth="yes"/>
			<point x="385" y="308"/>
			<point x="394" y="321"/>
			<point x="425" y="323" type="curve" smooth="yes"/>
			<point x="474" y="326"/>
			<point x="523" y="332"/>
			<point x="572" y="340" type="curve" smooth="yes"/>
			<point x="585" y="343"/>
			<point x="595" y="357"/>
			<point x="607" y="366" type="curve"/>
			<point x="593" y="372"/>
			<point x="579" y="383"/>
			<point x="564" y="384" type="curve" smooth="yes"/>
			<point x="507" y="386"/>
			<point x="450" y="384"/>
			<point x="386" y="384" type="curve"/>
			<point x="381" y="440"/>
			<point x="377" y="496"/>
			<point x="373" y="551" type="curve" smooth="yes"/>
			<point x="370" y="587"/>
			<point x="343" y="604"/>
			<point x="315" y="602" type="curve" smooth="yes"/>
			<point x="282" y="598"/>
			<point x="291" y="570"/>
			<point x="295" y="545" type="curve" smooth="yes"/>
			<point x="303" y="504"/>
			<point x="303" y="462"/>
			<point x="311" y="422" type="curve" smooth="yes"/>
			<point x="320" y="375"/>
			<point x="299" y="363"/>
			<point x="256" y="356" type="curve" smooth="yes"/>
			<point x="202" y="346"/>
			<point x="150" y="326"/>
			<point x="99" y="306" type="curve" smooth="yes"/>
			<point x="88" y="301"/>
			<point x="74" y="275"/>
			<point x="79" y="258" type="curve"/>
			<point x="83" y="248"/>
			<point x="121" y="249"/>
			<point x="139" y="254" type="curve" smooth="yes"/>
			<point x="187" y="267"/>
			<point x="234" y="286"/>
			<point x="281" y="301" type="curve" smooth="yes"/>
			<point x="304" y="308"/>
			<point x="318" y="300"/>
			<point x="319" y="274" type="curve" smooth="yes"/>
			<point x="320" y="213"/>
			<point x="320" y="153"/>
			<point x="324" y="92" type="curve" smooth="yes"/>
			<point x="326" y="68"/>
			<point x="329" y="19"/>
		</contour>
	</outline>
</glyph>
<glyph name="hyphen" format="2">
	<advance width="448"/>
	<unicode hex="002D"/>
	<note>
		hyphen
	</note>
	<outline>
		<contour>
			<point x="287" y="187" type="curve" smooth="yes"/>
			<point x="329" y="188"/>
			<point x="373" y="201"/>
			<point x="388" y="196" type="curve"/>
			<point x="420" y="222"/>
			<point x="371" y="251"/>
			<point x="336" y="253" type="curve" smooth="yes"/>
			<point x="262" y="258"/>
			<point x="172" y="257"/>
			<point x="98" y="257" type="curve" smooth="yes"/>
			<point x="82" y="257"/>
			<point x="54" y="249"/>
			<point x="50" y="240" type="curve"/>
			<point x="50" y="193"/>
			<point x="81" y="200"/>
			<point x="120" y="197" type="curve" smooth="yes"/>
			<point x="174" y="192"/>
			<point x="233" y="186"/>
		</contour>
	</outline>
</glyph>
<glyph name="two" format="2">
	<advance width="490"/>
	<unicode hex="0032"/>
	<note>
		two
	</note>
	<outline>
		<contour>
			<point x="193" y="2" type="curve" smooth="yes"/>
			<point x="266" y="6"/>
			<point x="339" y="11"/>
			<point x="412" y="17" type="curve" smooth="yes"/>
			<point x="425" y="18"/>
			<point x="425" y="18"/>
			<point x="450" y="26" type="curve"/>
			<point x="471" y="58"/>
			<point x="459" y="70"/>
			<point x="396" y="66" type="curve" smooth="yes"/>
			<point x="346" y="63"/>
			<point x="295" y="62"/>
			<point x="244" y="61" type="curve" smooth="yes"/>
			<point x="205" y="60"/>
			<point x="162" y="62"/>
			<point x="122" y="62" type="curve"/>
			<point x="117" y="90"/>
			<point x="125" y="90"/>
			<point x="149" y="118" type="curve" smooth="yes"/>
			<point x="208" y="196"/>
			<point x="250" y="251"/>
			<point x="303" y="331" type="curve" smooth="yes"/>
			<point x="345" y="392"/>
			<point x="379" y="458"/>
			<point x="409" y="525" type="curve" smooth="yes"/>
			<point x="457" y="633"/>
			<point x="398" y="719"/>
			<point x="281" y="721" type="curve" smooth="yes"/>
			<point x="213" y="722"/>
			<point x="152" y="701"/>
			<point x="94" y="669" type="curve" smooth="yes"/>
			<point x="75" y="659"/>
			<point x="45" y="652"/>
			<point x="65" y="619" type="curve" smooth="yes"/>
			<point x="82" y="592"/>
			<point x="105" y="592"/>
			<point x="128" y="612" type="curve" smooth="yes"/>
			<point x="173" y="647"/>
			<point x="226" y="656"/>
			<point x="279" y="661" type="curve" smooth="yes"/>
			<point x="350" y="665"/>
			<point x="378" y="632"/>
			<point x="354" y="564" type="curve" smooth="yes"/>
			<point x="334" y="508"/>
			<point x="311" y="453"/>
			<point x="278" y="405" type="curve" smooth="yes"/>
			<point x="212" y="306"/>
			<point x="160" y="237"/>
			<point x="91" y="140" type="curve" smooth="yes"/>
			<point x="73" y="116"/>
			<point x="46" y="86"/>
			<point x="50" y="62" type="curve" smooth="yes"/>
			<point x="54" y="22"/>
			<point x="97" y="12"/>
			<point x="133" y="6" type="curve" smooth="yes"/>
			<point x="153" y="3"/>
			<point x="175" y="0"/>
		</contour>
	</outline>
</glyph>
<glyph name="five" format="2">
	<advance width="600"/>
	<unicode hex="0035"/>
	<note>
		five
	</note>
	<outline>
		<contour>
			<point x="162" y="-65" type="curve" smooth="yes"/>
			<point x="331" y="-35"/>
			<point x="440" y="67"/>
			<point x="444" y="258" type="curve" smooth="yes"/>
			<point x="447" y="425"/>
			<point x="368" y="508"/>
			<point x="197" y="427" type="curve"/>
			<point x="200" y="460"/>
			<point x="210" y="497"/>
			<point x="214" y="524" type="curve" smooth="yes"/>
			<point x="224" y="592"/>
			<point x="253" y="620"/>
			<point x="321" y="629" type="curve"/>
			<point x="324" y="630"/>
			<point x="327" y="629"/>
			<point x="330" y="630" type="curve" smooth="yes"/>
			<point x="398" y="642"/>
			<point x="466" y="653"/>
			<point x="533" y="668" type="curve" smooth="yes"/>
			<point x="545" y="671"/>
			<point x="563" y="695"/>
			<point x="560" y="703" type="curve" smooth="yes"/>
			<point x="555" y="716"/>
			<point x="538" y="727"/>
			<point x="523" y="733" type="curve" smooth="yes"/>
			<point x="514" y="738"/>
			<point x="499" y="733"/>
			<point x="487" y="730" type="curve" smooth="yes"/>
			<point x="384" y="700"/>
			<point x="281" y="669"/>
			<point x="178" y="640" type="curve" smooth="yes"/>
			<point x="150" y="632"/>
			<point x="143" y="621"/>
			<point x="141" y="589" type="curve" smooth="yes"/>
			<point x="134" y="508"/>
			<point x="121" y="427"/>
			<point x="101" y="349" type="curve" smooth="yes"/>
			<point x="94" y="319"/>
			<point x="90" y="298"/>
			<point x="117" y="283" type="curve" smooth="yes"/>
			<point x="145" y="267"/>
			<point x="161" y="282"/>
			<point x="176" y="307" type="curve" smooth="yes"/>
			<point x="202" y="351"/>
			<point x="236" y="385"/>
			<point x="286" y="401" type="curve" smooth="yes"/>
			<point x="326" y="414"/>
			<point x="350" y="405"/>
			<point x="363" y="363" type="curve" smooth="yes"/>
			<point x="397" y="260"/>
			<point x="376" y="164"/>
			<point x="318" y="77" type="curve" smooth="yes"/>
			<point x="285" y="29"/>
			<point x="235" y="8"/>
			<point x="178" y="-9" type="curve" smooth="yes"/>
			<point x="142" y="-19"/>
			<point x="119" y="-6"/>
			<point x="92" y="10" type="curve" smooth="yes"/>
			<point x="63" y="28"/>
			<point x="38" y="-29"/>
			<point x="67" y="-40" type="curve" smooth="yes"/>
			<point x="97" y="-52"/>
			<point x="133" y="-71"/>
		</contour>
	</outline>
</glyph>
<glyph name="eight" format="2">
	<advance width="564"/>
	<unicode hex="0038"/>
	<note>
		eight
	</note>
	<outline>
		<contour>
			<point x="236" y="-16" type="curve" smooth="yes"/>
			<point x="257" y="-16"/>
			<point x="279" y="-14"/>
			<point x="301" y="-9" type="curve" smooth="yes"/>
			<point x="421" y="17"/>
			<point x="490" y="101"/>
			<point x="490" y="215" type="curve" smooth="yes"/>
			<point x="490" y="229"/>
			<point x="489" y="244"/>
			<point x="487" y="259" type="curve" smooth="yes"/>
			<point x="473" y="348"/>
			<point x="438" y="421"/>
			<point x="352" y="462" type="curve"/>
			<point x="382" y="489"/>
			<point x="396" y="501"/>
			<point x="421" y="525" type="curve" smooth="yes"/>
			<point x="445" y="548"/>
			<point x="457" y="572"/>
			<point x="457" y="595" type="curve" smooth="yes"/>
			<point x="457" y="622"/>
			<point x="440" y="647"/>
			<point x="406" y="665" type="curve" smooth="yes"/>
			<point x="368" y="685"/>
			<point x="327" y="696"/>
			<point x="288" y="696" type="curve" smooth="yes"/>
			<point x="250" y="696"/>
			<point x="212" y="686"/>
			<point x="179" y="665" type="curve" smooth="yes"/>
			<point x="153" y="648"/>
			<point x="120" y="631"/>
			<point x="107" y="595" type="curve"/>
			<point x="100" y="563"/>
			<point x="96" y="542"/>
			<point x="96" y="525" type="curve" smooth="yes"/>
			<point x="96" y="490"/>
			<point x="116" y="476"/>
			<point x="179" y="433" type="curve"/>
			<point x="169" y="418"/>
			<point x="159" y="402"/>
			<point x="150" y="387" type="curve" smooth="yes"/>
			<point x="126" y="341"/>
			<point x="96" y="297"/>
			<point x="78" y="249" type="curve" smooth="yes"/>
			<point x="66" y="218"/>
			<point x="59" y="187"/>
			<point x="59" y="157" type="curve" smooth="yes"/>
			<point x="59" y="117"/>
			<point x="71" y="78"/>
			<point x="101" y="43" type="curve" smooth="yes"/>
			<point x="138" y="0"/>
			<point x="184" y="-16"/>
		</contour>
		<contour>
			<point x="236" y="45" type="curve" smooth="yes"/>
			<point x="170" y="45"/>
			<point x="127" y="81"/>
			<point x="127" y="141" type="curve" smooth="yes"/>
			<point x="127" y="257"/>
			<point x="199" y="341"/>
			<point x="270" y="422" type="curve" smooth="yes"/>
			<point x="275" y="427"/>
			<point x="285" y="430"/>
			<point x="293" y="430" type="curve" smooth="yes"/>
			<point x="295" y="430"/>
			<point x="297" y="429"/>
			<point x="299" y="429" type="curve" smooth="yes"/>
			<point x="364" y="412"/>
			<point x="439" y="304"/>
			<point x="436" y="236" type="curve" smooth="yes"/>
			<point x="430" y="131"/>
			<point x="338" y="45"/>
		</contour>
		<contour>
			<point x="244" y="497" type="curve" smooth="yes"/>
			<point x="216" y="497"/>
			<point x="200" y="513"/>
			<point x="179" y="526" type="curve" smooth="yes"/>
			<point x="173" y="530"/>
			<point x="170" y="535"/>
			<point x="170" y="541" type="curve" smooth="yes"/>
			<point x="170" y="577"/>
			<point x="263" y="648"/>
			<point x="316" y="648" type="curve" smooth="yes"/>
			<point x="326" y="648"/>
			<point x="334" y="646"/>
			<point x="340" y="640" type="curve" smooth="yes"/>
			<point x="369" y="613" type="line" smooth="yes"/>
			<point x="375" y="608"/>
			<point x="377" y="601"/>
			<point x="377" y="594" type="curve" smooth="yes"/>
			<point x="377" y="572"/>
			<point x="351" y="544"/>
			<point x="333" y="532" type="curve" smooth="yes"/>
			<point x="313" y="520"/>
			<point x="274" y="497"/>
		</contour>
	</outline>
</glyph>
<glyph name="nine" format="2">
	<advance width="491"/>
	<unicode hex="0039"/>
	<note>
		nine
	</note>
	<outline>
		<contour>
			<point x="130" y="-44" type="curve" smooth="yes"/>
			<point x="149" y="-40"/>
			<point x="168" y="-24"/>
			<point x="182" y="-9" type="curve" smooth="yes"/>
			<point x="289" y="105"/>
			<point x="359" y="240"/>
			<point x="408" y="386" type="curve" smooth="yes"/>
			<point x="438" y="476"/>
			<point x="417" y="559"/>
			<point x="348" y="624" type="curve" smooth="yes"/>
			<point x="260" y="706"/>
			<point x="120" y="710"/>
			<point x="67" y="575" type="curve" smooth="yes"/>
			<point x="47" y="523"/>
			<point x="47" y="460"/>
			<point x="54" y="404" type="curve" smooth="yes"/>
			<point x="65" y="321"/>
			<point x="137" y="263"/>
			<point x="220" y="254" type="curve" smooth="yes"/>
			<point x="248" y="251"/>
			<point x="266" y="257"/>
			<point x="258" y="298" type="curve"/>
			<point x="203" y="309"/>
			<point x="156" y="310"/>
			<point x="130" y="366" type="curve" smooth="yes"/>
			<point x="100" y="432"/>
			<point x="111" y="493"/>
			<point x="144" y="551" type="curve" smooth="yes"/>
			<point x="171" y="598"/>
			<point x="232" y="625"/>
			<point x="269" y="613" type="curve" smooth="yes"/>
			<point x="320" y="597"/>
			<point x="354" y="547"/>
			<point x="351" y="486" type="curve" smooth="yes"/>
			<point x="349" y="453"/>
			<point x="345" y="417"/>
			<point x="331" y="387" type="curve" smooth="yes"/>
			<point x="297" y="309"/>
			<point x="266" y="230"/>
			<point x="220" y="158" type="curve" smooth="yes"/>
			<point x="186" y="104"/>
			<point x="138" y="62"/>
			<point x="97" y="13" type="curve" smooth="yes"/>
			<point x="89" y="3"/>
			<point x="76" y="-22"/>
			<point x="79" y="-25" type="curve"/>
			<point x="94" y="-35"/>
			<point x="115" y="-48"/>
		</contour>
	</outline>
</glyph>
<glyph name="colon" format="2">
	<advance width="267"/>
	<unicode hex="003A"/>
	<note>
		colon
	</note>
	<outline>
		<contour>
			<point x="112" y="439" type="curve" smooth="yes"/>
			<point x="148" y="432"/>
			<point x="162" y="461"/>
			<point x="157" y="493" type="curve" smooth="yes"/>
			<point x="154" y="508"/>
			<point x="139" y="521"/>
			<point x="120" y="547" type="curve"/>
			<point x="96" y="520"/>
			<point x="70" y="503"/>
			<point x="71" y="487" type="curve" smooth="yes"/>
			<point x="72" y="469"/>
			<point x="95" y="442"/>
		</contour>
		<contour>
			<point x="151" y="108" type="curve"/>
			<point x="162" y="106"/>
			<point x="179" y="129"/>
			<point x="203" y="148" type="curve"/>
			<point x="181" y="166"/>
			<point x="167" y="186"/>
			<point x="155" y="184" type="curve" smooth="yes"/>
			<point x="133" y="182"/>
			<point x="94" y="187"/>
			<point x="102" y="149" type="curve" smooth="yes"/>
			<point x="105" y="132"/>
			<point x="132" y="114"/>
		</contour>
	</outline>
</glyph>
<glyph name="equal" format="2">
	<advance width="644"/>
	<unicode hex="003D"/>
	<note>
		equal
	</note>
	<outline>
		<contour>
			<point x="125" y="255" type="curve"/>
			<point x="476" y="257" type="line"/>
			<point x="488" y="258"/>
			<point x="548" y="254"/>
			<point x="556" y="250" type="curve"/>
			<point x="573" y="240"/>
			<point x="581" y="222"/>
			<point x="576" y="203" type="curve"/>
			<point x="573" y="184"/>
			<point x="556" y="183"/>
			<point x="542" y="183" type="curve"/>
			<point x="416" y="181"/>
			<point x="338" y="190"/>
			<point x="213" y="187" type="curve"/>
			<point x="186" y="189"/>
			<point x="158" y="185"/>
			<point x="131" y="184" type="curve"/>
			<point x="107" y="184"/>
			<point x="86" y="219"/>
			<point x="99" y="244" type="curve"/>
			<point x="103" y="249"/>
			<point x="116" y="255"/>
		</contour>
		<contour>
			<point x="289" y="339" type="curve" smooth="yes"/>
			<point x="271" y="336"/>
			<point x="154" y="337"/>
			<point x="128" y="331" type="curve" smooth="yes"/>
			<point x="117" y="328"/>
			<point x="96" y="355"/>
			<point x="95" y="373" type="curve" smooth="yes"/>
			<point x="94" y="392"/>
			<point x="109" y="411"/>
			<point x="127" y="410" type="curve" smooth="yes"/>
			<point x="168" y="408"/>
			<point x="209" y="402"/>
			<point x="250" y="402" type="curve" smooth="yes"/>
			<point x="305" y="402"/>
			<point x="361" y="408"/>
			<point x="415" y="408" type="curve" smooth="yes"/>
			<point x="457" y="408"/>
			<point x="498" y="404"/>
			<point x="539" y="402" type="curve" smooth="yes"/>
			<point x="553" y="402"/>
			<point x="562" y="392"/>
			<point x="569" y="376" type="curve" smooth="yes"/>
			<point x="572" y="369"/>
			<point x="574" y="356"/>
			<point x="570" y="350" type="curve" smooth="yes"/>
			<point x="567" y="343"/>
			<point x="556" y="335"/>
			<point x="548" y="337" type="curve" smooth="yes"/>
			<point x="476" y="353"/>
			<point x="376" y="343"/>
		</contour>
	</outline>
</glyph>
<glyph name="at" format="2">
	<advance width="731"/>
	<unicode hex="0040"/>
	<note>
		at
	</note>
	<outline>
		<contour>
			<point x="358" y="0" type="line"/>
			<point x="367" y="0"/>
			<point x="373" y="3" type="qcurve"/>
			<point x="381" y="8"/>
			<point x="396" y="26"/>
			<point x="399" y="29" type="qcurve"/>
			<point x="393" y="31"/>
			<point x="376" y="38"/>
			<point x="370" y="39" type="qcurve"/>
			<point x="287" y="42"/>
			<point x="233" y="93" type="qcurve"/>
			<point x="191" y="147"/>
			<point x="164" y="197"/>
			<point x="159" y="205" type="qcurve"/>
			<point x="138" y="243"/>
			<point x="138" y="282" type="qcurve"/>
			<point x="138" y="309"/>
			<point x="158" y="363"/>
			<point x="177" y="394" type="qcurve"/>
			<point x="223" y="468"/>
			<point x="313" y="527" type="qcurve"/>
			<point x="357" y="556"/>
			<point x="401" y="556" type="qcurve"/>
			<point x="435" y="556"/>
			<point x="469" y="538" type="qcurve"/>
			<point x="527" y="508"/>
			<point x="587" y="410"/>
			<point x="596" y="343" type="qcurve"/>
			<point x="598" y="327"/>
			<point x="598" y="320" type="qcurve"/>
			<point x="598" y="254"/>
			<point x="539" y="214" type="qcurve"/>
			<point x="527" y="207"/>
			<point x="521" y="207" type="qcurve"/>
			<point x="509" y="207"/>
			<point x="501" y="222" type="qcurve"/>
			<point x="497" y="229"/>
			<point x="491" y="242"/>
			<point x="488" y="248" type="qcurve"/>
			<point x="479" y="266"/>
			<point x="449" y="286"/>
			<point x="433" y="286" type="qcurve"/>
			<point x="402" y="286"/>
			<point x="381" y="258" type="qcurve"/>
			<point x="366" y="240"/>
			<point x="333" y="223" type="qcurve"/>
			<point x="326" y="220"/>
			<point x="321" y="220" type="qcurve"/>
			<point x="304" y="220"/>
			<point x="304" y="247" type="qcurve"/>
			<point x="304" y="268"/>
			<point x="343" y="344"/>
			<point x="359" y="351" type="qcurve"/>
			<point x="368" y="355"/>
			<point x="380" y="349" type="qcurve"/>
			<point x="385" y="346"/>
			<point x="396" y="333"/>
			<point x="398" y="330" type="qcurve"/>
			<point x="408" y="318"/>
			<point x="433" y="318" type="qcurve"/>
			<point x="453" y="318"/>
			<point x="460" y="327" type="qcurve"/>
			<point x="469" y="338"/>
			<point x="469" y="347" type="qcurve"/>
			<point x="469" y="360"/>
			<point x="452" y="377" type="qcurve"/>
			<point x="416" y="410"/>
			<point x="374" y="410" type="qcurve"/>
			<point x="357" y="410"/>
			<point x="338" y="404" type="qcurve"/>
			<point x="305" y="394"/>
			<point x="260" y="351"/>
			<point x="241" y="319" type="qcurve"/>
			<point x="225" y="291"/>
			<point x="225" y="264" type="qcurve"/>
			<point x="225" y="236"/>
			<point x="259" y="188"/>
			<point x="289" y="175" type="qcurve"/>
			<point x="318" y="162"/>
			<point x="344" y="162" type="qcurve"/>
			<point x="374" y="162"/>
			<point x="405" y="179" type="qcurve"/>
			<point x="421" y="188"/>
			<point x="433" y="188" type="qcurve"/>
			<point x="438" y="188"/>
			<point x="440" y="186" type="qcurve"/>
			<point x="475" y="154"/>
			<point x="525" y="154" type="qcurve"/>
			<point x="539" y="154"/>
			<point x="567" y="158" type="qcurve"/>
			<point x="641" y="194"/>
			<point x="677" y="239"/>
			<point x="678" y="259" type="qcurve"/>
			<point x="679" y="280" type="line" smooth="yes"/>
			<point x="681" y="308"/>
			<point x="681" y="322" type="qcurve"/>
			<point x="681" y="388"/>
			<point x="651" y="429" type="qcurve"/>
			<point x="614" y="481"/>
			<point x="597" y="499" type="qcurve"/>
			<point x="508" y="595"/>
			<point x="396" y="591" type="qcurve"/>
			<point x="373" y="589" type="line"/>
			<point x="353" y="588"/>
			<point x="328" y="584"/>
			<point x="317" y="579" type="qcurve"/>
			<point x="241" y="544"/>
			<point x="186" y="503" type="qcurve"/>
			<point x="115" y="450"/>
			<point x="76" y="364" type="qcurve"/>
			<point x="60" y="329"/>
			<point x="60" y="294" type="qcurve"/>
			<point x="60" y="250"/>
			<point x="85" y="195" type="qcurve"/>
			<point x="163" y="25"/>
			<point x="345" y="1" type="qcurve"/>
		</contour>
	</outline>
</glyph>
<glyph name="F" format="2">
	<advance width="531"/>
	<unicode hex="0046"/>
	<note>
		F
	</note>
	<outline>
		<contour>
			<point x="104" y="-33" type="curve"/>
			<point x="117" y="-22"/>
			<point x="137" y="-13"/>
			<point x="141" y="1" type="curve" smooth="yes"/>
			<point x="149" y="28"/>
			<point x="149" y="57"/>
			<point x="152" y="85" type="curve" smooth="yes"/>
			<point x="157" y="159"/>
			<point x="162" y="233"/>
			<point x="168" y="306" type="curve"/>
			<point x="276" y="325"/>
			<point x="375" y="342"/>
			<point x="475" y="359" type="curve" smooth="yes"/>
			<point x="482" y="361"/>
			<point x="492" y="371"/>
			<point x="491" y="377" type="curve" smooth="yes"/>
			<point x="491" y="385"/>
			<point x="483" y="398"/>
			<point x="477" y="400" type="curve" smooth="yes"/>
			<point x="448" y="406"/>
			<point x="418" y="414"/>
			<point x="390" y="412" type="curve" smooth="yes"/>
			<point x="317" y="405"/>
			<point x="246" y="392"/>
			<point x="170" y="381" type="curve"/>
			<point x="170" y="411"/>
			<point x="169" y="437"/>
			<point x="170" y="462" type="curve" smooth="yes"/>
			<point x="172" y="494"/>
			<point x="186" y="531"/>
			<point x="175" y="558" type="curve" smooth="yes"/>
			<point x="157" y="600"/>
			<point x="179" y="619"/>
			<point x="207" y="625" type="curve" smooth="yes"/>
			<point x="284" y="642"/>
			<point x="357" y="709"/>
			<point x="443" y="655" type="curve" smooth="yes"/>
			<point x="447" y="653"/>
			<point x="455" y="655"/>
			<point x="460" y="655" type="curve"/>
			<point x="474" y="696"/>
			<point x="462" y="722"/>
			<point x="422" y="734" type="curve" smooth="yes"/>
			<point x="357" y="753"/>
			<point x="295" y="734"/>
			<point x="233" y="718" type="curve" smooth="yes"/>
			<point x="178" y="704"/>
			<point x="131" y="677"/>
			<point x="95" y="632" type="curve" smooth="yes"/>
			<point x="74" y="606"/>
			<point x="65" y="583"/>
			<point x="99" y="561" type="curve" smooth="yes"/>
			<point x="104" y="557"/>
			<point x="109" y="546"/>
			<point x="109" y="539" type="curve" smooth="yes"/>
			<point x="105" y="482"/>
			<point x="101" y="426"/>
			<point x="97" y="369" type="curve"/>
			<point x="57" y="356"/>
			<point x="52" y="343"/>
			<point x="70" y="316" type="curve" smooth="yes"/>
			<point x="82" y="298"/>
			<point x="94" y="275"/>
			<point x="93" y="255" type="curve" smooth="yes"/>
			<point x="89" y="175"/>
			<point x="78" y="94"/>
			<point x="74" y="14" type="curve" smooth="yes"/>
			<point x="73" y="-1"/>
			<point x="93" y="-17"/>
		</contour>
	</outline>
</glyph>
<glyph name="I" format="2">
	<advance width="527"/>
	<unicode hex="0049"/>
	<note>
		I
	</note>
	<outline>
		<contour>
			<point x="302" y="108" type="curve"/>
			<point x="337" y="116"/>
			<point x="374" y="126"/>
			<point x="412" y="131" type="curve" smooth="yes"/>
			<point x="429" y="133"/>
			<point x="446" y="124"/>
			<point x="464" y="121" type="curve"/>
			<point x="453" y="107"/>
			<point x="446" y="87"/>
			<point x="433" y="81" type="curve" smooth="yes"/>
			<point x="407" y="69"/>
			<point x="378" y="68"/>
			<point x="352" y="58" type="curve" smooth="yes"/>
			<point x="329" y="50"/>
			<point x="310" y="35"/>
			<point x="289" y="24" type="curve" smooth="yes"/>
			<point x="280" y="19"/>
			<point x="265" y="9"/>
			<point x="261" y="12" type="curve" smooth="yes"/>
			<point x="218" y="50"/>
			<point x="172" y="23"/>
			<point x="129" y="17" type="curve" smooth="yes"/>
			<point x="92" y="12"/>
			<point x="73" y="25"/>
			<point x="59" y="66" type="curve"/>
			<point x="102" y="73"/>
			<point x="140" y="81"/>
			<point x="179" y="86" type="curve" smooth="yes"/>
			<point x="216" y="90"/>
			<point x="235" y="101"/>
			<point x="233" y="144" type="curve" smooth="yes"/>
			<point x="228" y="242"/>
			<point x="232" y="339"/>
			<point x="226" y="436" type="curve" smooth="yes"/>
			<point x="224" y="475"/>
			<point x="205" y="513"/>
			<point x="192" y="562" type="curve"/>
			<point x="161" y="546"/>
			<point x="134" y="535"/>
			<point x="111" y="519" type="curve" smooth="yes"/>
			<point x="96" y="508"/>
			<point x="86" y="486"/>
			<point x="65" y="510" type="curve" smooth="yes"/>
			<point x="48" y="531"/>
			<point x="42" y="556"/>
			<point x="65" y="574" type="curve" smooth="yes"/>
			<point x="88" y="592"/>
			<point x="115" y="610"/>
			<point x="143" y="614" type="curve" smooth="yes"/>
			<point x="230" y="629"/>
			<point x="318" y="637"/>
			<point x="406" y="647" type="curve" smooth="yes"/>
			<point x="413" y="648"/>
			<point x="421" y="647"/>
			<point x="428" y="644" type="curve" smooth="yes"/>
			<point x="449" y="636"/>
			<point x="481" y="636"/>
			<point x="477" y="603" type="curve" smooth="yes"/>
			<point x="472" y="568"/>
			<point x="443" y="586"/>
			<point x="423" y="585" type="curve" smooth="yes"/>
			<point x="372" y="581"/>
			<point x="321" y="577"/>
			<point x="271" y="571" type="curve" smooth="yes"/>
			<point x="264" y="570"/>
			<point x="252" y="553"/>
			<point x="254" y="548" type="curve" smooth="yes"/>
			<point x="317" y="410"/>
			<point x="292" y="265"/>
			<point x="295" y="122" type="curve" smooth="yes"/>
			<point x="295" y="120"/>
			<point x="298" y="117"/>
		</contour>
	</outline>
</glyph>
<glyph name="P" format="2">
	<advance width="598"/>
	<unicode hex="0050"/>
	<note>
		P
	</note>
	<outline>
		<contour>
			<point x="95" y="-68" type="curve" smooth="yes"/>
			<point x="115" y="-73"/>
			<point x="131" y="-60"/>
			<point x="136" y="-35" type="curve" smooth="yes"/>
			<point x="137" y="-32"/>
			<point x="137" y="-28"/>
			<point x="137" y="-25" type="curve" smooth="yes"/>
			<point x="148" y="131"/>
			<point x="160" y="287"/>
			<point x="171" y="443" type="curve" smooth="yes"/>
			<point x="173" y="469"/>
			<point x="176" y="499"/>
			<point x="168" y="523" type="curve" smooth="yes"/>
			<point x="153" y="561"/>
			<point x="170" y="587"/>
			<point x="195" y="607" type="curve" smooth="yes"/>
			<point x="271" y="666"/>
			<point x="358" y="697"/>
			<point x="453" y="700" type="curve" smooth="yes"/>
			<point x="499" y="702"/>
			<point x="521" y="671"/>
			<point x="503" y="629" type="curve" smooth="yes"/>
			<point x="461" y="529"/>
			<point x="397" y="448"/>
			<point x="303" y="391" type="curve" smooth="yes"/>
			<point x="282" y="379"/>
			<point x="267" y="359"/>
			<point x="249" y="342" type="curve"/>
			<point x="282" y="306"/>
			<point x="308" y="303"/>
			<point x="340" y="332" type="curve" smooth="yes"/>
			<point x="388" y="376"/>
			<point x="437" y="419"/>
			<point x="478" y="468" type="curve" smooth="yes"/>
			<point x="517" y="514"/>
			<point x="556" y="563"/>
			<point x="572" y="624" type="curve" smooth="yes"/>
			<point x="592" y="701"/>
			<point x="557" y="752"/>
			<point x="477" y="756" type="curve" smooth="yes"/>
			<point x="364" y="762"/>
			<point x="261" y="729"/>
			<point x="170" y="663" type="curve" smooth="yes"/>
			<point x="128" y="632"/>
			<point x="84" y="600"/>
			<point x="108" y="536" type="curve"/>
			<point x="100" y="393"/>
			<point x="92" y="250"/>
			<point x="84" y="107" type="curve" smooth="yes"/>
			<point x="81" y="62"/>
			<point x="75" y="18"/>
			<point x="70" y="-27" type="curve" smooth="yes"/>
			<point x="68" y="-47"/>
			<point x="74" y="-63"/>
		</contour>
	</outline>
</glyph>
<glyph name="R" format="2">
	<advance width="583"/>
	<unicode hex="0052"/>
	<note>
		R
	</note>
	<outline>
		<contour>
			<point x="526" y="20" type="curve"/>
			<point x="543" y="42" type="line"/>
			<point x="539" y="50"/>
			<point x="535" y="57"/>
			<point x="531" y="65" type="curve"/>
			<point x="522" y="67"/>
			<point x="513" y="70"/>
			<point x="504" y="70" type="curve" smooth="yes"/>
			<point x="465" y="70"/>
			<point x="427" y="81"/>
			<point x="390" y="90" type="curve" smooth="yes"/>
			<point x="355" y="99"/>
			<point x="323" y="115"/>
			<point x="295" y="138" type="curve" smooth="yes"/>
			<point x="265" y="164"/>
			<point x="264" y="182"/>
			<point x="286" y="215" type="curve" smooth="yes"/>
			<point x="319" y="269"/>
			<point x="352" y="322"/>
			<point x="384" y="375" type="curve" smooth="yes"/>
			<point x="414" y="424"/>
			<point x="431" y="478"/>
			<point x="434" y="535" type="curve" smooth="yes"/>
			<point x="436" y="563"/>
			<point x="432" y="588"/>
			<point x="422" y="614" type="curve" smooth="yes"/>
			<point x="411" y="644"/>
			<point x="390" y="664"/>
			<point x="361" y="676" type="curve" smooth="yes"/>
			<point x="301" y="698"/>
			<point x="264" y="695"/>
			<point x="214" y="674" type="curve" smooth="yes"/>
			<point x="104" y="629"/>
			<point x="79" y="637"/>
			<point x="50" y="522" type="curve"/>
			<point x="69" y="472" type="line"/>
			<point x="75" y="326"/>
			<point x="63" y="178"/>
			<point x="86" y="37" type="curve" smooth="yes"/>
			<point x="90" y="10"/>
			<point x="142" y="-2"/>
			<point x="142" y="57" type="curve" smooth="yes"/>
			<point x="139" y="108"/>
			<point x="137" y="158"/>
			<point x="136" y="209" type="curve" smooth="yes"/>
			<point x="134" y="283"/>
			<point x="134" y="358"/>
			<point x="134" y="433" type="curve" smooth="yes"/>
			<point x="134" y="459"/>
			<point x="134" y="486"/>
			<point x="135" y="513" type="curve" smooth="yes"/>
			<point x="136" y="527"/>
			<point x="139" y="541"/>
			<point x="141" y="552" type="curve"/>
			<point x="169" y="587"/>
			<point x="203" y="606"/>
			<point x="240" y="619" type="curve" smooth="yes"/>
			<point x="268" y="629"/>
			<point x="298" y="635"/>
			<point x="328" y="626" type="curve" smooth="yes"/>
			<point x="336" y="623"/>
			<point x="344" y="619"/>
			<point x="353" y="614" type="curve"/>
			<point x="371" y="580" type="line"/>
			<point x="377" y="526"/>
			<point x="367" y="481"/>
			<point x="344" y="437" type="curve" smooth="yes"/>
			<point x="330" y="411"/>
			<point x="316" y="384"/>
			<point x="301" y="359" type="curve" smooth="yes"/>
			<point x="279" y="323"/>
			<point x="255" y="289"/>
			<point x="232" y="254" type="curve" smooth="yes"/>
			<point x="216" y="229"/>
			<point x="202" y="203"/>
			<point x="201" y="172" type="curve"/>
			<point x="224" y="115"/>
			<point x="217" y="103"/>
			<point x="311" y="59" type="curve" smooth="yes"/>
			<point x="376" y="29"/>
			<point x="450" y="10"/>
		</contour>
	</outline>
</glyph>
<glyph name="S" format="2">
	<advance width="554"/>
	<unicode hex="0053"/>
	<note>
		S
	</note>
	<outline>
		<contour>
			<point x="237" y="2" type="curve" smooth="yes"/>
			<point x="302" y="8"/>
			<point x="368" y="17"/>
			<point x="430" y="36" type="curve" smooth="yes"/>
			<point x="495" y="57"/>
			<point x="510" y="119"/>
			<point x="466" y="172" type="curve" smooth="yes"/>
			<point x="444" y="200"/>
			<point x="412" y="222"/>
			<point x="380" y="239" type="curve" smooth="yes"/>
			<point x="312" y="275"/>
			<point x="238" y="302"/>
			<point x="172" y="341" type="curve" smooth="yes"/>
			<point x="94" y="387"/>
			<point x="89" y="473"/>
			<point x="168" y="517" type="curve" smooth="yes"/>
			<point x="236" y="555"/>
			<point x="308" y="564"/>
			<point x="383" y="551" type="curve" smooth="yes"/>
			<point x="410" y="546"/>
			<point x="442" y="539"/>
			<point x="441" y="498" type="curve" smooth="yes"/>
			<point x="441" y="491"/>
			<point x="458" y="477"/>
			<point x="464" y="479" type="curve" smooth="yes"/>
			<point x="474" y="482"/>
			<point x="486" y="493"/>
			<point x="489" y="503" type="curve" smooth="yes"/>
			<point x="505" y="547"/>
			<point x="483" y="590"/>
			<point x="437" y="608" type="curve" smooth="yes"/>
			<point x="316" y="657"/>
			<point x="206" y="621"/>
			<point x="101" y="560" type="curve" smooth="yes"/>
			<point x="90" y="553"/>
			<point x="82" y="539"/>
			<point x="75" y="526" type="curve" smooth="yes"/>
			<point x="27" y="436"/>
			<point x="67" y="354"/>
			<point x="153" y="297" type="curve" smooth="yes"/>
			<point x="226" y="248"/>
			<point x="310" y="216"/>
			<point x="388" y="174" type="curve" smooth="yes"/>
			<point x="402" y="167"/>
			<point x="418" y="148"/>
			<point x="420" y="133" type="curve" smooth="yes"/>
			<point x="421" y="122"/>
			<point x="402" y="101"/>
			<point x="388" y="97" type="curve" smooth="yes"/>
			<point x="283" y="62"/>
			<point x="178" y="36"/>
			<point x="68" y="93" type="curve"/>
			<point x="43" y="52"/>
			<point x="52" y="18"/>
			<point x="97" y="9" type="curve" smooth="yes"/>
			<point x="142" y="0"/>
			<point x="191" y="-2"/>
		</contour>
	</outline>
</glyph>
<glyph name="T" format="2">
	<advance width="580"/>
	<unicode hex="0054"/>
	<note>
		T
	</note>
	<outline>
		<contour>
			<point x="325" y="-43" type="curve" smooth="yes"/>
			<point x="344" y="-43"/>
			<point x="355" y="-14"/>
			<point x="355" y="0" type="curve" smooth="yes"/>
			<point x="351" y="197"/>
			<point x="338" y="394"/>
			<point x="338" y="591" type="curve" smooth="yes"/>
			<point x="338" y="644"/>
			<point x="347" y="653"/>
			<point x="393" y="655" type="curve" smooth="yes"/>
			<point x="426" y="657"/>
			<point x="465" y="669"/>
			<point x="497" y="679" type="curve" smooth="yes"/>
			<point x="511" y="683"/>
			<point x="522" y="695"/>
			<point x="540" y="707" type="curve"/>
			<point x="488" y="739"/>
			<point x="447" y="718"/>
			<point x="399" y="710" type="curve" smooth="yes"/>
			<point x="361" y="704"/>
			<point x="328" y="706"/>
			<point x="324" y="753" type="curve" smooth="yes"/>
			<point x="322" y="786"/>
			<point x="305" y="800"/>
			<point x="276" y="799" type="curve" smooth="yes"/>
			<point x="239" y="797"/>
			<point x="238" y="771"/>
			<point x="243" y="743" type="curve" smooth="yes"/>
			<point x="249" y="709"/>
			<point x="233" y="696"/>
			<point x="200" y="696" type="curve" smooth="yes"/>
			<point x="158" y="697"/>
			<point x="117" y="695"/>
			<point x="75" y="692" type="curve" smooth="yes"/>
			<point x="63" y="691"/>
			<point x="33" y="682"/>
			<point x="32" y="675" type="curve" smooth="yes"/>
			<point x="30" y="662"/>
			<point x="36" y="638"/>
			<point x="55" y="630" type="curve" smooth="yes"/>
			<point x="75" y="621"/>
			<point x="100" y="615"/>
			<point x="123" y="617" type="curve" smooth="yes"/>
			<point x="168" y="619"/>
			<point x="212" y="627"/>
			<point x="264" y="633" type="curve"/>
			<point x="271" y="512"/>
			<point x="278" y="395"/>
			<point x="283" y="277" type="curve" smooth="yes"/>
			<point x="288" y="186"/>
			<point x="288" y="95"/>
			<point x="294" y="4" type="curve" smooth="yes"/>
			<point x="295" y="-12"/>
			<point x="306" y="-43"/>
		</contour>
	</outline>
</glyph>
<glyph name="bracketright" format="2">
	<advance width="429"/>
	<unicode hex="005D"/>
	<note>
		bracketright
	</note>
	<outline>
		<contour>
			<point x="337" y="-65" type="curve" smooth="yes"/>
			<point x="374" y="-59"/>
			<point x="386" y="-30"/>
			<point x="384" y="3" type="curve" smooth="yes"/>
			<point x="375" y="132"/>
			<point x="363" y="261"/>
			<point x="353" y="390" type="curve" smooth="yes"/>
			<point x="348" y="476"/>
			<point x="348" y="563"/>
			<point x="380" y="646" type="curve" smooth="yes"/>
			<point x="401" y="703"/>
			<point x="384" y="728"/>
			<point x="325" y="719" type="curve" smooth="yes"/>
			<point x="273" y="712"/>
			<point x="221" y="705"/>
			<point x="168" y="695" type="curve" smooth="yes"/>
			<point x="141" y="690"/>
			<point x="114" y="683"/>
			<point x="89" y="673" type="curve" smooth="yes"/>
			<point x="79" y="667"/>
			<point x="66" y="649"/>
			<point x="69" y="641" type="curve" smooth="yes"/>
			<point x="73" y="629"/>
			<point x="88" y="617"/>
			<point x="101" y="613" type="curve" smooth="yes"/>
			<point x="112" y="610"/>
			<point x="128" y="616"/>
			<point x="139" y="623" type="curve" smooth="yes"/>
			<point x="190" y="648"/>
			<point x="244" y="657"/>
			<point x="304" y="655" type="curve"/>
			<point x="302" y="629"/>
			<point x="297" y="604"/>
			<point x="298" y="580" type="curve" smooth="yes"/>
			<point x="303" y="398"/>
			<point x="310" y="217"/>
			<point x="318" y="36" type="curve" smooth="yes"/>
			<point x="320" y="-1"/>
			<point x="308" y="-21"/>
			<point x="272" y="-23" type="curve" smooth="yes"/>
			<point x="202" y="-28"/>
			<point x="135" y="-22"/>
			<point x="71" y="13" type="curve" smooth="yes"/>
			<point x="61" y="18"/>
			<point x="44" y="10"/>
			<point x="30" y="9" type="curve"/>
			<point x="34" y="-2"/>
			<point x="33" y="-17"/>
			<point x="39" y="-23" type="curve" smooth="yes"/>
			<point x="55" y="-36"/>
			<point x="71" y="-48"/>
			<point x="89" y="-53" type="curve" smooth="yes"/>
			<point x="170" y="-78"/>
			<point x="254" y="-80"/>
		</contour>
	</outline>
</glyph>
<glyph name="l" format="2">
	<advance width="248"/>
	<unicode hex="006C"/>
	<note>
		l
	</note>
	<outline>
		<contour>
			<point x="161" y="-17" type="curve" smooth="yes"/>
			<point x="172" y="-17"/>
			<point x="182" y="-1"/>
			<point x="187" y="9" type="curve" smooth="yes"/>
			<point x="189" y="16"/>
			<point x="188" y="27"/>
			<point x="185" y="33" type="curve" smooth="yes"/>
			<point x="164" y="70"/>
			<point x="168" y="112"/>
			<point x="165" y="153" type="curve" smooth="yes"/>
			<point x="159" y="238"/>
			<point x="152" y="324"/>
			<point x="147" y="411" type="curve" smooth="yes"/>
			<point x="141" y="596" type="line"/>
			<point x="135" y="635"/>
			<point x="129" y="675"/>
			<point x="120" y="711" type="curve" smooth="yes"/>
			<point x="115" y="730"/>
			<point x="95" y="744"/>
			<point x="76" y="745" type="curve" smooth="yes"/>
			<point x="56" y="745"/>
			<point x="40" y="734"/>
			<point x="40" y="707" type="curve" smooth="yes"/>
			<point x="39" y="678"/>
			<point x="59" y="659"/>
			<point x="64" y="618" type="curve" smooth="yes"/>
			<point x="75" y="490"/>
			<point x="85" y="360"/>
			<point x="95" y="230" type="curve" smooth="yes"/>
			<point x="101" y="169"/>
			<point x="106" y="105"/>
			<point x="115" y="44" type="curve" smooth="yes"/>
			<point x="119" y="23"/>
			<point x="136" y="-15"/>
		</contour>
	</outline>
</glyph>
<glyph name="o" format="2">
	<advance width="427"/>
	<unicode hex="006F"/>
	<note>
		o
	</note>
	<outline>
		<contour>
			<point x="200" y="9" type="curve" smooth="yes"/>
			<point x="217" y="9"/>
			<point x="233" y="12"/>
			<point x="245" y="19" type="curve" smooth="yes"/>
			<point x="328" y="64"/>
			<point x="372" y="139"/>
			<point x="387" y="235" type="curve"/>
			<point x="372" y="322"/>
			<point x="335" y="362"/>
			<point x="242" y="398" type="curve" smooth="yes"/>
			<point x="215" y="410"/>
			<point x="179" y="410"/>
			<point x="156" y="387" type="curve" smooth="yes"/>
			<point x="97" y="333"/>
			<point x="48" y="270"/>
			<point x="40" y="186" type="curve"/>
			<point x="40" y="124"/>
			<point x="56" y="102"/>
			<point x="100" y="47" type="curve" smooth="yes"/>
			<point x="122" y="23"/>
			<point x="163" y="9"/>
		</contour>
		<contour>
			<point x="169" y="78" type="curve" smooth="yes"/>
			<point x="117" y="104"/>
			<point x="108" y="167"/>
			<point x="115" y="211" type="curve"/>
			<point x="136" y="259"/>
			<point x="130" y="292"/>
			<point x="177" y="327" type="curve" smooth="yes"/>
			<point x="217" y="360"/>
			<point x="285" y="319"/>
			<point x="312" y="257" type="curve" smooth="yes"/>
			<point x="315" y="247"/>
			<point x="314" y="202"/>
			<point x="312" y="191" type="curve" smooth="yes"/>
			<point x="298" y="131"/>
			<point x="277" y="111"/>
			<point x="226" y="78" type="curve" smooth="yes"/>
			<point x="209" y="70"/>
			<point x="187" y="72"/>
		</contour>
	</outline>
</glyph>
<glyph name="q" format="2">
	<advance width="545"/>
	<unicode hex="0071"/>
	<note>
		q
	</note>
	<outline>
		<contour>
			<point x="334" y="-246" type="curve" smooth="yes"/>
			<point x="346" y="-256"/>
			<point x="361" y="-251"/>
			<point x="369" y="-236" type="curve" smooth="yes"/>
			<point x="379" y="-219"/>
			<point x="391" y="-202"/>
			<point x="396" y="-183" type="curve" smooth="yes"/>
			<point x="407" y="-139"/>
			<point x="415" y="-94"/>
			<point x="421" y="-49" type="curve" smooth="yes"/>
			<point x="425" y="-27"/>
			<point x="435" y="-15"/>
			<point x="454" y="-9" type="curve" smooth="yes"/>
			<point x="471" y="-3"/>
			<point x="488" y="0"/>
			<point x="502" y="10" type="curve" smooth="yes"/>
			<point x="510" y="15"/>
			<point x="517" y="32"/>
			<point x="514" y="40" type="curve" smooth="yes"/>
			<point x="512" y="48"/>
			<point x="497" y="55"/>
			<point x="487" y="57" type="curve" smooth="yes"/>
			<point x="477" y="59"/>
			<point x="465" y="55"/>
			<point x="455" y="51" type="curve" smooth="yes"/>
			<point x="428" y="41"/>
			<point x="420" y="35"/>
			<point x="416" y="59" type="curve" smooth="yes"/>
			<point x="415" y="67"/>
			<point x="411" y="94"/>
			<point x="409" y="101" type="curve" smooth="yes"/>
			<point x="393" y="163"/>
			<point x="344" y="211"/>
			<point x="280" y="204" type="curve" smooth="yes"/>
			<point x="203" y="195" type="line"/>
			<point x="181" y="195" type="line"/>
			<point x="159" y="199"/>
			<point x="137" y="201"/>
			<point x="117" y="209" type="curve" smooth="yes"/>
			<point x="93" y="218"/>
			<point x="90" y="261"/>
			<point x="113" y="272" type="curve" smooth="yes"/>
			<point x="167" y="299"/>
			<point x="221" y="328"/>
			<point x="285" y="331" type="curve" smooth="yes"/>
			<point x="338" y="334"/>
			<point x="375" y="308"/>
			<point x="412" y="275" type="curve" smooth="yes"/>
			<point x="438" y="253"/>
			<point x="470" y="283"/>
			<point x="450" y="306" type="curve" smooth="yes"/>
			<point x="433" y="327"/>
			<point x="413" y="351"/>
			<point x="389" y="362" type="curve" smooth="yes"/>
			<point x="319" y="396"/>
			<point x="246" y="406"/>
			<point x="171" y="380" type="curve" smooth="yes"/>
			<point x="147" y="371"/>
			<point x="123" y="364"/>
			<point x="101" y="352" type="curve" smooth="yes"/>
			<point x="77" y="339"/>
			<point x="53" y="313"/>
			<point x="32" y="289" type="curve" smooth="yes"/>
			<point x="15" y="269"/>
			<point x="12" y="250"/>
			<point x="18" y="224" type="curve" smooth="yes"/>
			<point x="32" y="168"/>
			<point x="74" y="145"/>
			<point x="123" y="137" type="curve" smooth="yes"/>
			<point x="166" y="131"/>
			<point x="210" y="134"/>
			<point x="254" y="138" type="curve" smooth="yes"/>
			<point x="295" y="141"/>
			<point x="323" y="140"/>
			<point x="334" y="104" type="curve" smooth="yes"/>
			<point x="356" y="35"/>
			<point x="369" y="30"/>
			<point x="292" y="12" type="curve" smooth="yes"/>
			<point x="230" y="-2"/>
			<point x="168" y="-21"/>
			<point x="107" y="-41" type="curve" smooth="yes"/>
			<point x="78" y="-50"/>
			<point x="73" y="-69"/>
			<point x="88" y="-95" type="curve" smooth="yes"/>
			<point x="101" y="-120"/>
			<point x="116" y="-125"/>
			<point x="147" y="-114" type="curve" smooth="yes"/>
			<point x="202" y="-95"/>
			<point x="256" y="-76"/>
			<point x="312" y="-58" type="curve" smooth="yes"/>
			<point x="342" y="-49"/>
			<point x="345" y="-51"/>
			<point x="344" y="-82" type="curve" smooth="yes"/>
			<point x="344" y="-106"/>
			<point x="340" y="-129"/>
			<point x="336" y="-152" type="curve" smooth="yes"/>
			<point x="332" y="-171"/>
			<point x="323" y="-190"/>
			<point x="321" y="-210" type="curve" smooth="yes"/>
			<point x="320" y="-222"/>
			<point x="326" y="-239"/>
		</contour>
	</outline>
</glyph>
<glyph name="s" format="2">
	<advance width="440"/>
	<unicode hex="0073"/>
	<note>
		s
	</note>
	<outline>
		<contour>
			<point x="108" y="-20" type="curve"/>
			<point x="93" y="-21"/>
			<point x="77" y="-23"/>
			<point x="61" y="-23" type="curve" smooth="yes"/>
			<point x="36" y="-20"/>
			<point x="11" y="-4"/>
			<point x="16" y="16" type="curve" smooth="yes"/>
			<point x="19" y="24"/>
			<point x="36" y="34"/>
			<point x="45" y="33" type="curve" smooth="yes"/>
			<point x="96" y="27"/>
			<point x="146" y="35"/>
			<point x="195" y="47" type="curve" smooth="yes"/>
			<point x="228" y="55"/>
			<point x="262" y="66"/>
			<point x="292" y="82" type="curve" smooth="yes"/>
			<point x="336" y="105"/>
			<point x="337" y="133"/>
			<point x="299" y="166" type="curve" smooth="yes"/>
			<point x="272" y="188"/>
			<point x="245" y="210"/>
			<point x="218" y="231" type="curve" smooth="yes"/>
			<point x="173" y="265"/>
			<point x="146" y="309"/>
			<point x="132" y="363" type="curve" smooth="yes"/>
			<point x="123" y="396"/>
			<point x="138" y="437"/>
			<point x="167" y="459" type="curve" smooth="yes"/>
			<point x="234" y="511"/>
			<point x="310" y="513"/>
			<point x="376" y="461" type="curve" smooth="yes"/>
			<point x="394" y="447"/>
			<point x="406" y="425"/>
			<point x="418" y="405" type="curve"/>
			<point x="425" y="387"/>
			<point x="411" y="368"/>
			<point x="388" y="383" type="curve" smooth="yes"/>
			<point x="372" y="394"/>
			<point x="359" y="408"/>
			<point x="343" y="418" type="curve" smooth="yes"/>
			<point x="296" y="445"/>
			<point x="231" y="431"/>
			<point x="204" y="390" type="curve" smooth="yes"/>
			<point x="194" y="374"/>
			<point x="190" y="359"/>
			<point x="198" y="341" type="curve" smooth="yes"/>
			<point x="244" y="239"/>
			<point x="275" y="266"/>
			<point x="350" y="185" type="curve" smooth="yes"/>
			<point x="389" y="143"/>
			<point x="399" y="77"/>
			<point x="347" y="41" type="curve" smooth="yes"/>
			<point x="294" y="3"/>
			<point x="232" y="-8"/>
			<point x="170" y="-18" type="curve" smooth="yes"/>
			<point x="151" y="-22"/>
			<point x="138" y="-22"/>
		</contour>
	</outline>
</glyph>
<glyph name="t" format="2">
	<advance width="588"/>
	<unicode hex="0074"/>
	<note>
		t
	</note>
	<outline>
		<contour>
			<point x="471" y="-27" type="curve" smooth="yes"/>
			<point x="494" y="-27"/>
			<point x="516" y="-24"/>
			<point x="540" y="-18" type="curve" smooth="yes"/>
			<point x="558" y="-12"/>
			<point x="580" y="9"/>
			<point x="561" y="28" type="curve" smooth="yes"/>
			<point x="534" y="49"/>
			<point x="508" y="26"/>
			<point x="462" y="26" type="curve" smooth="yes"/>
			<point x="427" y="26"/>
			<point x="405" y="40"/>
			<point x="352" y="81" type="curve"/>
			<point x="296" y="148"/>
			<point x="251" y="301"/>
			<point x="261" y="382" type="curve" smooth="yes"/>
			<point x="262" y="401"/>
			<point x="270" y="417"/>
			<point x="287" y="426" type="curve"/>
			<point x="348" y="438"/>
			<point x="371" y="442"/>
			<point x="404" y="442" type="curve" smooth="yes"/>
			<point x="451" y="442"/>
			<point x="503" y="423"/>
			<point x="503" y="460" type="curve" smooth="yes"/>
			<point x="507" y="501"/>
			<point x="428" y="496"/>
			<point x="367" y="496" type="curve" smooth="yes"/>
			<point x="348" y="496"/>
			<point x="328" y="494"/>
			<point x="308" y="496" type="curve" smooth="yes"/>
			<point x="299" y="497"/>
			<point x="278" y="496"/>
			<point x="278" y="510" type="curve"/>
			<point x="277" y="524"/>
			<point x="273" y="538"/>
			<point x="275" y="551" type="curve" smooth="yes"/>
			<point x="276" y="564"/>
			<point x="293" y="665"/>
			<point x="293" y="664" type="curve" smooth="yes"/>
			<point x="293" y="686"/>
			<point x="277" y="704"/>
			<point x="258" y="704" type="curve" smooth="yes"/>
			<point x="249" y="704"/>
			<point x="240" y="700"/>
			<point x="231" y="691" type="curve"/>
			<point x="208" y="643"/>
			<point x="212" y="590"/>
			<point x="197" y="538" type="curve" smooth="yes"/>
			<point x="194" y="524"/>
			<point x="199" y="511"/>
			<point x="181" y="496" type="curve"/>
			<point x="156" y="482"/>
			<point x="112" y="486"/>
			<point x="78" y="477" type="curve" smooth="yes"/>
			<point x="57" y="472"/>
			<point x="36" y="467"/>
			<point x="17" y="459" type="curve" smooth="yes"/>
			<point x="-12" y="447"/>
			<point x="-4" y="413"/>
			<point x="39" y="413" type="curve" smooth="yes"/>
			<point x="70" y="413"/>
			<point x="100" y="423"/>
			<point x="133" y="423" type="curve" smooth="yes"/>
			<point x="150" y="423"/>
			<point x="168" y="421"/>
			<point x="186" y="412" type="curve"/>
			<point x="189" y="341" type="line" smooth="yes"/>
			<point x="191" y="292"/>
			<point x="200" y="244"/>
			<point x="215" y="195" type="curve" smooth="yes"/>
			<point x="235" y="130"/>
			<point x="269" y="73"/>
			<point x="319" y="27" type="curve" smooth="yes"/>
			<point x="359" y="-10"/>
			<point x="409" y="-27"/>
		</contour>
	</outline>
</glyph>
<glyph name="v" format="2">
	<advance width="426"/>
	<unicode hex="0076"/>
	<note>
		v
	</note>
	<outline>
		<contour>
			<point x="224" y="-21" type="curve" smooth="yes"/>
			<point x="239" y="-21"/>
			<point x="253" y="-12"/>
			<point x="264" y="5" type="curve" smooth="yes"/>
			<point x="285" y="44"/>
			<point x="293" y="101"/>
			<point x="305" y="145" type="curve" smooth="yes"/>
			<point x="324" y="225"/>
			<point x="349" y="295"/>
			<point x="395" y="379" type="curve" smooth="yes"/>
			<point x="406" y="399" type="line"/>
			<point x="406" y="407"/>
			<point x="403" y="413"/>
			<point x="398" y="420" type="curve" smooth="yes"/>
			<point x="363" y="455"/>
			<point x="323" y="407"/>
			<point x="309" y="368" type="curve" smooth="yes"/>
			<point x="293" y="331"/>
			<point x="282" y="291"/>
			<point x="269" y="252" type="curve" smooth="yes"/>
			<point x="256" y="214"/>
			<point x="249" y="173"/>
			<point x="214" y="133" type="curve"/>
			<point x="202" y="154"/>
			<point x="192" y="169"/>
			<point x="184" y="185" type="curve" smooth="yes"/>
			<point x="156" y="241"/>
			<point x="129" y="299"/>
			<point x="99" y="357" type="curve" smooth="yes"/>
			<point x="88" y="381"/>
			<point x="57" y="400"/>
			<point x="38" y="395" type="curve" smooth="yes"/>
			<point x="8" y="387"/>
			<point x="6" y="333"/>
			<point x="25" y="313" type="curve" smooth="yes"/>
			<point x="68" y="273"/>
			<point x="84" y="219"/>
			<point x="109" y="170" type="curve" smooth="yes"/>
			<point x="134" y="124"/>
			<point x="160" y="55"/>
			<point x="184" y="7" type="curve" smooth="yes"/>
			<point x="192" y="-11"/>
			<point x="209" y="-21"/>
		</contour>
	</outline>
</glyph>
<glyph name="braceleft" format="2">
	<advance width="387"/>
	<unicode hex="007B"/>
	<note>
		braceleft
	</note>
	<outline>
		<contour>
			<point x="285" y="-194" type="curve"/>
			<point x="297" y="-188"/>
			<point x="310" y="-184"/>
			<point x="314" y="-176" type="curve" smooth="yes"/>
			<point x="316" y="-171"/>
			<point x="308" y="-156"/>
			<point x="300" y="-151" type="curve"/>
			<point x="250" y="-104"/>
			<point x="238" y="3"/>
			<point x="238" y="4" type="curve" smooth="yes"/>
			<point x="238" y="24" type="line" smooth="yes"/>
			<point x="238" y="54"/>
			<point x="236" y="55"/>
			<point x="230" y="86" type="curve" smooth="yes"/>
			<point x="222" y="125"/>
			<point x="214" y="165"/>
			<point x="201" y="203" type="curve" smooth="yes"/>
			<point x="190" y="234"/>
			<point x="174" y="264"/>
			<point x="159" y="293" type="curve" smooth="yes"/>
			<point x="146" y="317"/>
			<point x="146" y="317"/>
			<point x="158" y="326" type="curve" smooth="yes"/>
			<point x="191" y="350"/>
			<point x="197" y="386"/>
			<point x="205" y="427" type="curve"/>
			<point x="205" y="433"/>
			<point x="206" y="444"/>
			<point x="204" y="454" type="curve"/>
			<point x="198" y="511"/>
			<point x="188" y="537"/>
			<point x="181" y="594" type="curve" smooth="yes"/>
			<point x="178" y="619"/>
			<point x="174" y="645"/>
			<point x="175" y="669" type="curve" smooth="yes"/>
			<point x="178" y="719"/>
			<point x="210" y="749"/>
			<point x="261" y="750" type="curve" smooth="yes"/>
			<point x="266" y="750"/>
			<point x="274" y="749"/>
			<point x="278" y="752" type="curve" smooth="yes"/>
			<point x="285" y="756"/>
			<point x="292" y="762"/>
			<point x="295" y="768" type="curve"/>
			<point x="295" y="772"/>
			<point x="288" y="782"/>
			<point x="283" y="784" type="curve" smooth="yes"/>
			<point x="265" y="790"/>
			<point x="246" y="798"/>
			<point x="227" y="795" type="curve" smooth="yes"/>
			<point x="143" y="784"/>
			<point x="104" y="725"/>
			<point x="110" y="648" type="curve" smooth="yes"/>
			<point x="115" y="597"/>
			<point x="127" y="546"/>
			<point x="135" y="496" type="curve" smooth="yes"/>
			<point x="142" y="452"/>
			<point x="150" y="438"/>
			<point x="135" y="395" type="curve" smooth="yes"/>
			<point x="129" y="375"/>
			<point x="122" y="359"/>
			<point x="96" y="355" type="curve" smooth="yes"/>
			<point x="62" y="348"/>
			<point x="53" y="316"/>
			<point x="81" y="293" type="curve" smooth="yes"/>
			<point x="124" y="255"/>
			<point x="138" y="203"/>
			<point x="154" y="153" type="curve" smooth="yes"/>
			<point x="172" y="98"/>
			<point x="178" y="69"/>
			<point x="178" y="10" type="curve" smooth="yes"/>
			<point x="179" y="-70"/>
			<point x="194" y="-117"/>
			<point x="238" y="-160" type="curve" smooth="yes"/>
			<point x="251" y="-171"/>
			<point x="266" y="-181"/>
		</contour>
	</outline>
</glyph>
<glyph name="asciitilde" format="2">
	<advance width="626"/>
	<unicode hex="007E"/>
	<note>
		asciitilde
	</note>
	<outline>
		<contour>
			<point x="208" y="384" type="qcurve"/>
			<point x="148" y="379"/>
			<point x="87" y="343" type="qcurve"/>
			<point x="46" y="320"/>
			<point x="50" y="280" type="qcurve"/>
			<point x="74" y="254"/>
			<point x="101" y="271"/>
			<point x="116" y="281" type="qcurve"/>
			<point x="121" y="283"/>
			<point x="145" y="299"/>
			<point x="190" y="319"/>
			<point x="246" y="319" type="qcurve"/>
			<point x="265" y="319"/>
			<point x="305" y="302"/>
			<point x="360" y="275" type="qcurve"/>
			<point x="407" y="252"/>
			<point x="446" y="257" type="qcurve"/>
			<point x="492" y="262"/>
			<point x="576" y="299"/>
			<point x="576" y="337" type="qcurve"/>
			<point x="571" y="355"/>
			<point x="552" y="353" type="qcurve"/>
			<point x="532" y="351"/>
			<point x="466" y="316"/>
			<point x="426" y="313" type="qcurve"/>
			<point x="395" y="313"/>
			<point x="355" y="339"/>
			<point x="320" y="357" type="qcurve"/>
			<point x="283" y="376"/>
			<point x="238" y="387"/>
		</contour>
	</outline>
</glyph>
<glyph name="section" format="2">
	<advance width="439"/>
	<unicode hex="00A7"/>
	<note>
		section
	</note>
	<outline>
		<contour>
			<point x="373" y="664" type="curve"/>
			<point x="336" y="677"/>
			<point x="291" y="731"/>
			<point x="270" y="702" type="curve"/>
			<point x="251" y="660"/>
			<point x="263" y="627"/>
			<point x="272" y="597" type="curve"/>
			<point x="301" y="496"/>
			<point x="330" y="397"/>
			<point x="334" y="291" type="curve"/>
			<point x="336" y="256"/>
			<point x="330" y="217"/>
			<point x="317" y="181" type="curve"/>
			<point x="293" y="121"/>
			<point x="224" y="113"/>
			<point x="169" y="133" type="curve"/>
			<point x="141" y="144"/>
			<point x="82" y="182"/>
			<point x="94" y="214" type="curve"/>
			<point x="100" y="230"/>
			<point x="116" y="244"/>
			<point x="135" y="237" type="curve"/>
			<point x="173" y="220"/>
			<point x="187" y="178"/>
			<point x="224" y="189" type="curve"/>
			<point x="243" y="194"/>
			<point x="249" y="209"/>
			<point x="253" y="226" type="curve"/>
			<point x="276" y="314"/>
			<point x="251" y="399"/>
			<point x="230" y="484" type="curve"/>
			<point x="206" y="571"/>
			<point x="181" y="649"/>
			<point x="185" y="697" type="curve"/>
			<point x="193" y="778"/>
			<point x="287" y="813"/>
			<point x="359" y="724" type="curve"/>
			<point x="380" y="705"/>
			<point x="384" y="691"/>
		</contour>
		<contour>
			<point x="76" y="-90" type="curve" smooth="yes"/>
			<point x="64" y="-68"/>
			<point x="78" y="-28"/>
			<point x="117" y="-57" type="curve" smooth="yes"/>
			<point x="167" y="-93"/>
			<point x="212" y="-35"/>
			<point x="188" y="23" type="curve" smooth="yes"/>
			<point x="173" y="63"/>
			<point x="152" y="103"/>
			<point x="129" y="139" type="curve" smooth="yes"/>
			<point x="91" y="196"/>
			<point x="66" y="257"/>
			<point x="56" y="324" type="curve" smooth="yes"/>
			<point x="45" y="409"/>
			<point x="86" y="472"/>
			<point x="162" y="510" type="curve" smooth="yes"/>
			<point x="208" y="536"/>
			<point x="252" y="520"/>
			<point x="274" y="477" type="curve" smooth="yes"/>
			<point x="282" y="461"/>
			<point x="291" y="444"/>
			<point x="272" y="432" type="curve" smooth="yes"/>
			<point x="255" y="422"/>
			<point x="235" y="463"/>
			<point x="210" y="461" type="curve"/>
			<point x="135" y="426"/>
			<point x="126" y="374"/>
			<point x="138" y="305" type="curve" smooth="yes"/>
			<point x="150" y="228"/>
			<point x="192" y="166"/>
			<point x="228" y="101" type="curve" smooth="yes"/>
			<point x="245" y="70"/>
			<point x="262" y="38"/>
			<point x="270" y="4" type="curve" smooth="yes"/>
			<point x="290" y="-69"/>
			<point x="246" y="-121"/>
			<point x="172" y="-120" type="curve" smooth="yes"/>
			<point x="110" y="-121"/>
			<point x="88" y="-116"/>
		</contour>
	</outline>
</glyph>
<glyph name="registered" format="2">
	<advance width="504"/>
	<unicode hex="00AE"/>
	<note>
		registered
	</note>
	<outline>
		<contour>
			<point x="258" y="362" type="qcurve"/>
			<point x="262" y="362"/>
			<point x="281" y="361"/>
			<point x="289" y="363" type="qcurve"/>
			<point x="307" y="365"/>
			<point x="320" y="370" type="qcurve"/>
			<point x="370" y="391"/>
			<point x="407" y="430" type="qcurve"/>
			<point x="454" y="477"/>
			<point x="454" y="547" type="qcurve"/>
			<point x="454" y="577"/>
			<point x="439" y="629" type="qcurve"/>
			<point x="376" y="716"/>
			<point x="303" y="752"/>
			<point x="266" y="752" type="qcurve"/>
			<point x="206" y="752"/>
			<point x="141" y="733" type="qcurve"/>
			<point x="125" y="728"/>
			<point x="100" y="713" type="qcurve"/>
			<point x="78" y="699"/>
			<point x="72" y="674" type="qcurve"/>
			<point x="60" y="636"/>
			<point x="60" y="606" type="qcurve"/>
			<point x="60" y="599"/>
			<point x="62" y="583" type="qcurve"/>
			<point x="72" y="513"/>
			<point x="82" y="482" type="qcurve"/>
			<point x="104" y="407"/>
			<point x="164" y="379" type="qcurve"/>
			<point x="206" y="359"/>
		</contour>
		<contour>
			<point x="305" y="455" type="qcurve"/>
			<point x="315" y="455"/>
			<point x="322" y="467" type="qcurve"/>
			<point x="311" y="488"/>
			<point x="277" y="524" type="qcurve"/>
			<point x="256" y="546" type="line"/>
			<point x="283" y="585"/>
			<point x="288" y="592" type="qcurve"/>
			<point x="297" y="605"/>
			<point x="303" y="621" type="qcurve"/>
			<point x="305" y="629"/>
			<point x="305" y="631" type="qcurve"/>
			<point x="305" y="643"/>
			<point x="290" y="649" type="qcurve"/>
			<point x="277" y="655"/>
			<point x="259" y="655" type="qcurve"/>
			<point x="229" y="655"/>
			<point x="182" y="617"/>
			<point x="182" y="584" type="qcurve"/>
			<point x="182" y="583"/>
			<point x="181" y="576"/>
			<point x="182" y="573" type="qcurve"/>
			<point x="182" y="546"/>
			<point x="184" y="492" type="qcurve"/>
			<point x="185" y="476"/>
			<point x="197" y="467" type="qcurve"/>
			<point x="204" y="462"/>
			<point x="209" y="462" type="qcurve"/>
			<point x="213" y="463" type="line"/>
			<point x="216" y="464"/>
			<point x="222" y="472"/>
			<point x="223" y="476" type="qcurve"/>
			<point x="225" y="487"/>
			<point x="227" y="507" type="qcurve"/>
			<point x="248" y="498"/>
			<point x="261" y="486"/>
			<point x="263" y="483" type="qcurve"/>
			<point x="280" y="466"/>
			<point x="293" y="459" type="qcurve"/>
			<point x="301" y="455"/>
		</contour>
		<contour>
			<point x="249" y="401" type="qcurve"/>
			<point x="208" y="399"/>
			<point x="178" y="414" type="qcurve"/>
			<point x="149" y="429"/>
			<point x="137" y="452" type="qcurve"/>
			<point x="105" y="518"/>
			<point x="105" y="587" type="qcurve"/>
			<point x="105" y="618"/>
			<point x="110" y="642" type="qcurve"/>
			<point x="117" y="682"/>
			<point x="157" y="694" type="qcurve"/>
			<point x="223" y="711"/>
			<point x="262" y="711" type="qcurve"/>
			<point x="276" y="711"/>
			<point x="308" y="703"/>
			<point x="311" y="702" type="qcurve"/>
			<point x="314" y="701"/>
			<point x="324" y="696"/>
			<point x="327" y="696" type="qcurve"/>
			<point x="342" y="695"/>
			<point x="364" y="678"/>
			<point x="376" y="664" type="qcurve"/>
			<point x="397" y="635"/>
			<point x="399" y="632" type="qcurve"/>
			<point x="419" y="602"/>
			<point x="419" y="568" type="qcurve"/>
			<point x="419" y="545"/>
			<point x="412" y="524" type="qcurve"/>
			<point x="400" y="486"/>
			<point x="375" y="455" type="qcurve"/>
			<point x="350" y="425"/>
			<point x="291" y="400"/>
		</contour>
		<contour>
			<point x="230" y="577" type="qcurve"/>
			<point x="220" y="593"/>
			<point x="220" y="602" type="qcurve"/>
			<point x="220" y="611"/>
			<point x="238" y="623"/>
			<point x="260" y="628" type="qcurve"/>
			<point x="259" y="612"/>
			<point x="244" y="589"/>
		</contour>
	</outline>
</glyph>
<glyph name="degree" format="2">
	<advance width="365"/>
	<unicode hex="00B0"/>
	<note>
		degree
	</note>
	<outline>
		<contour>
			<point x="184" y="589" type="qcurve"/>
			<point x="275" y="627"/>
			<point x="315" y="691"/>
			<point x="315" y="714" type="qcurve"/>
			<point x="315" y="730"/>
			<point x="301" y="769"/>
			<point x="290" y="785" type="qcurve"/>
			<point x="274" y="809"/>
			<point x="222" y="831"/>
			<point x="184" y="839" type="qcurve"/>
			<point x="173" y="841"/>
			<point x="150" y="823" type="qcurve"/>
			<point x="149" y="822"/>
			<point x="133" y="809" type="qcurve"/>
			<point x="119" y="795"/>
			<point x="110" y="790" type="qcurve"/>
			<point x="88" y="778"/>
			<point x="62" y="749"/>
			<point x="61" y="728" type="qcurve"/>
			<point x="56" y="667"/>
			<point x="121" y="593"/>
		</contour>
		<contour>
			<point x="180" y="651" type="qcurve"/>
			<point x="163" y="651"/>
			<point x="150" y="657" type="qcurve"/>
			<point x="141" y="666"/>
			<point x="129" y="694"/>
			<point x="129" y="707" type="qcurve"/>
			<point x="129" y="752"/>
			<point x="140" y="785" type="qcurve"/>
			<point x="142" y="790"/>
			<point x="171" y="802"/>
			<point x="175" y="804" type="qcurve"/>
			<point x="200" y="805"/>
			<point x="232" y="775"/>
			<point x="241" y="753" type="qcurve"/>
			<point x="245" y="745"/>
			<point x="245" y="731" type="qcurve"/>
			<point x="245" y="708"/>
			<point x="223" y="662"/>
			<point x="208" y="656" type="qcurve"/>
			<point x="196" y="651"/>
		</contour>
	</outline>
</glyph>
<glyph name="cedilla" format="2">
	<advance width="277"/>
	<unicode hex="00B8"/>
	<note>
		cedilla
	</note>
	<outline>
		<contour>
			<point x="82" y="-185" type="curve"/>
			<point x="103" y="-185"/>
			<point x="129" y="-186"/>
			<point x="153" y="-182" type="curve" smooth="yes"/>
			<point x="213" y="-173"/>
			<point x="255" y="-108"/>
			<point x="232" y="-51" type="curve" smooth="yes"/>
			<point x="222" y="-28"/>
			<point x="183" y="-23"/>
			<point x="142" y="12" type="curve"/>
			<point x="121" y="50"/>
			<point x="150" y="64"/>
			<point x="149" y="79" type="curve" smooth="yes"/>
			<point x="146" y="106"/>
			<point x="85" y="106"/>
			<point x="77" y="72" type="curve"/>
			<point x="60" y="40"/>
			<point x="58" y="14"/>
			<point x="76" y="-16" type="curve" smooth="yes"/>
			<point x="87" y="-37"/>
			<point x="176" y="-51"/>
			<point x="184" y="-72" type="curve" smooth="yes"/>
			<point x="190" y="-89"/>
			<point x="183" y="-103"/>
			<point x="169" y="-115" type="curve" smooth="yes"/>
			<point x="150" y="-134"/>
			<point x="126" y="-133"/>
			<point x="102" y="-134" type="curve" smooth="yes"/>
			<point x="45" y="-136"/>
			<point x="73" y="-101"/>
			<point x="38" y="-115" type="curve" smooth="yes"/>
			<point x="28" y="-118"/>
			<point x="25" y="-132"/>
			<point x="30" y="-145" type="curve"/>
			<point x="41" y="-165"/>
			<point x="58" y="-174"/>
		</contour>
	</outline>
</glyph>
<glyph name="uni00B9" format="2">
	<advance width="336"/>
	<unicode hex="00B9"/>
	<note>
		uni00B9
	</note>
	<outline>
		<contour>
			<point x="226" y="402" type="curve"/>
			<point x="230" y="412"/>
			<point x="238" y="423"/>
			<point x="237" y="433" type="curve" smooth="yes"/>
			<point x="233" y="468"/>
			<point x="221" y="502"/>
			<point x="220" y="537" type="curve" smooth="yes"/>
			<point x="216" y="622"/>
			<point x="216" y="653"/>
			<point x="212" y="737" type="curve" smooth="yes"/>
			<point x="212" y="750"/>
			<point x="197" y="771"/>
			<point x="186" y="772" type="curve" smooth="yes"/>
			<point x="174" y="774"/>
			<point x="155" y="760"/>
			<point x="147" y="748" type="curve" smooth="yes"/>
			<point x="125" y="711"/>
			<point x="107" y="671"/>
			<point x="84" y="633" type="curve" smooth="yes"/>
			<point x="74" y="614"/>
			<point x="78" y="602"/>
			<point x="93" y="594" type="curve" smooth="yes"/>
			<point x="108" y="586"/>
			<point x="125" y="584"/>
			<point x="134" y="607" type="curve" smooth="yes"/>
			<point x="140" y="625"/>
			<point x="150" y="640"/>
			<point x="163" y="665" type="curve"/>
			<point x="166" y="649"/>
			<point x="167" y="643"/>
			<point x="167" y="636" type="curve" smooth="yes"/>
			<point x="169" y="568"/>
			<point x="170" y="552"/>
			<point x="173" y="484" type="curve" smooth="yes"/>
			<point x="174" y="461"/>
			<point x="178" y="438"/>
			<point x="187" y="419" type="curve" smooth="yes"/>
			<point x="191" y="409"/>
			<point x="212" y="407"/>
		</contour>
	</outline>
</glyph>
<glyph name="Ograve" format="2">
	<advance width="585"/>
	<unicode hex="00D2"/>
	<outline>
		<contour>
			<point x="246" y="-10" type="curve" smooth="yes"/>
			<point x="279" y="-6"/>
			<point x="314" y="1"/>
			<point x="343" y="17" type="curve" smooth="yes"/>
			<point x="420" y="57"/>
			<point x="484" y="147"/>
			<point x="506" y="236" type="curve" smooth="yes"/>
			<point x="536" y="353"/>
			<point x="489" y="450"/>
			<point x="413" y="534" type="curve" smooth="yes"/>
			<point x="368" y="584"/>
			<point x="313" y="590"/>
			<point x="254" y="554" type="curve" smooth="yes"/>
			<point x="219" y="533"/>
			<point x="192" y="496"/>
			<point x="157" y="474" type="curve" smooth="yes"/>
			<point x="112" y="447"/>
			<point x="97" y="406"/>
			<point x="86" y="360" type="curve" smooth="yes"/>
			<point x="80" y="331"/>
			<point x="76" y="301"/>
			<point x="71" y="271" type="curve"/>
			<point x="66" y="201"/>
			<point x="90" y="106"/>
			<point x="127" y="49" type="curve" smooth="yes"/>
			<point x="155" y="6"/>
			<point x="196" y="-15"/>
		</contour>
		<contour>
			<point x="275" y="55" type="curve" smooth="yes"/>
			<point x="232" y="41"/>
			<point x="217" y="45"/>
			<point x="191" y="82" type="curve" smooth="yes"/>
			<point x="161" y="122"/>
			<point x="142" y="200"/>
			<point x="144" y="253" type="curve"/>
			<point x="158" y="350"/>
			<point x="195" y="435"/>
			<point x="283" y="489" type="curve" smooth="yes"/>
			<point x="329" y="517"/>
			<point x="361" y="512"/>
			<point x="390" y="466" type="curve"/>
			<point x="441" y="386"/>
			<point x="452" y="301"/>
			<point x="408" y="214" type="curve" smooth="yes"/>
			<point x="380" y="158"/>
			<point x="338" y="78"/>
		</contour>
		<contour>
			<point x="457" y="650" type="qcurve"/>
			<point x="471" y="655"/>
			<point x="488" y="672"/>
			<point x="474" y="701" type="qcurve"/>
			<point x="465" y="712"/>
			<point x="382" y="760"/>
			<point x="270" y="807" type="qcurve"/>
			<point x="262" y="811"/>
			<point x="233" y="813"/>
			<point x="228" y="809" type="qcurve"/>
			<point x="219" y="797"/>
			<point x="222" y="803"/>
			<point x="223" y="791" type="qcurve"/>
			<point x="227" y="779"/>
			<point x="246" y="753"/>
			<point x="259" y="745" type="qcurve"/>
			<point x="292" y="726"/>
			<point x="383" y="673" type="qcurve"/>
			<point x="414" y="655" type="line" smooth="yes"/>
			<point x="435" y="643"/>
		</contour>
	</outline>
</glyph>
<glyph name="Oacute" format="2">
	<advance width="632"/>
	<unicode hex="00D3"/>
	<note>
		Oacute
	</note>
	<outline>
		<contour>
			<point x="265" y="-18" type="curve" smooth="yes"/>
			<point x="301" y="-13"/>
			<point x="339" y="-6"/>
			<point x="372" y="11" type="curve" smooth="yes"/>
			<point x="455" y="56"/>
			<point x="526" y="117"/>
			<point x="552" y="215" type="curve" smooth="yes"/>
			<point x="584" y="345"/>
			<point x="532" y="450"/>
			<point x="449" y="542" type="curve" smooth="yes"/>
			<point x="400" y="599"/>
			<point x="338" y="604"/>
			<point x="273" y="566" type="curve" smooth="yes"/>
			<point x="234" y="541"/>
			<point x="205" y="502"/>
			<point x="167" y="479" type="curve" smooth="yes"/>
			<point x="116" y="447"/>
			<point x="101" y="402"/>
			<point x="89" y="352" type="curve" smooth="yes"/>
			<point x="82" y="320"/>
			<point x="76" y="287"/>
			<point x="71" y="255" type="curve"/>
			<point x="66" y="176"/>
			<point x="93" y="109"/>
			<point x="134" y="46" type="curve" smooth="yes"/>
			<point x="164" y="-1"/>
			<point x="208" y="-25"/>
		</contour>
		<contour>
			<point x="307" y="58" type="curve" smooth="yes"/>
			<point x="259" y="40"/>
			<point x="241" y="45"/>
			<point x="210" y="87" type="curve" smooth="yes"/>
			<point x="178" y="132"/>
			<point x="157" y="183"/>
			<point x="158" y="241" type="curve"/>
			<point x="175" y="350"/>
			<point x="216" y="445"/>
			<point x="314" y="506" type="curve" smooth="yes"/>
			<point x="365" y="537"/>
			<point x="402" y="531"/>
			<point x="435" y="480" type="curve" smooth="yes"/>
			<point x="492" y="391"/>
			<point x="504" y="293"/>
			<point x="454" y="197" type="curve" smooth="yes"/>
			<point x="423" y="133"/>
			<point x="376" y="83"/>
		</contour>
		<contour>
			<point x="193" y="571" type="curve"/>
			<point x="249" y="612"/>
			<point x="269" y="627"/>
			<point x="327" y="667" type="curve" smooth="yes"/>
			<point x="399" y="717"/>
			<point x="374" y="698"/>
			<point x="450" y="741" type="curve" smooth="yes"/>
			<point x="475" y="755"/>
			<point x="499" y="765"/>
			<point x="490" y="794" type="curve" smooth="yes"/>
			<point x="485" y="808"/>
			<point x="454" y="819"/>
			<point x="433" y="823" type="curve" smooth="yes"/>
			<point x="421" y="825"/>
			<point x="402" y="815"/>
			<point x="389" y="804" type="curve" smooth="yes"/>
			<point x="287" y="725"/>
			<point x="285" y="711"/>
			<point x="183" y="627" type="curve" smooth="yes"/>
			<point x="152" y="601"/>
			<point x="160" y="570"/>
		</contour>
	</outline>
</glyph>
<glyph name="Uacute" format="2">
	<advance width="730"/>
	<unicode hex="00DA"/>
	<note>
		Uacute
	</note>
	<outline>
		<contour>
			<point x="504" y="75" type="curve" smooth="yes"/>
			<point x="647" y="252"/>
			<point x="653" y="447"/>
			<point x="564" y="649" type="curve" smooth="yes"/>
			<point x="558" y="663"/>
			<point x="540" y="692"/>
			<point x="528" y="682" type="curve" smooth="yes"/>
			<point x="516" y="672" type="line" smooth="yes"/>
			<point x="482" y="644"/>
			<point x="533" y="586"/>
			<point x="541" y="543" type="curve"/>
			<point x="572" y="376"/>
			<point x="551" y="222"/>
			<point x="419" y="98" type="curve" smooth="yes"/>
			<point x="345" y="28"/>
			<point x="299" y="35"/>
			<point x="251" y="126" type="curve" smooth="yes"/>
			<point x="244" y="139"/>
			<point x="239" y="153"/>
			<point x="235" y="167" type="curve" smooth="yes"/>
			<point x="189" y="297"/>
			<point x="195" y="431"/>
			<point x="204" y="564" type="curve" smooth="yes"/>
			<point x="206" y="606"/>
			<point x="198" y="628"/>
			<point x="147" y="635" type="curve"/>
			<point x="141" y="611"/>
			<point x="130" y="587"/>
			<point x="129" y="561" type="curve" smooth="yes"/>
			<point x="126" y="498"/>
			<point x="121" y="433"/>
			<point x="130" y="371" type="curve" smooth="yes"/>
			<point x="142" y="282"/>
			<point x="154" y="192"/>
			<point x="189" y="112" type="curve" smooth="yes"/>
			<point x="253" y="-39"/>
			<point x="396" y="-58"/>
		</contour>
		<contour>
			<point x="345" y="597" type="qcurve"/>
			<point x="515" y="767"/>
			<point x="482" y="810"/>
			<point x="417" y="768"/>
			<point x="402" y="752" type="qcurve"/>
			<point x="316" y="656" type="line" smooth="yes"/>
			<point x="234" y="565"/>
			<point x="281" y="565" type="qcurve"/>
			<point x="324" y="565"/>
		</contour>
	</outline>
</glyph>
<glyph name="Udieresis" format="2">
	<advance width="730"/>
	<unicode hex="00DC"/>
	<note>
		Udieresis
	</note>
	<outline>
		<contour>
			<point x="469" y="616" type="qcurve"/>
			<point x="477" y="614"/>
			<point x="504" y="633"/>
			<point x="508" y="643" type="qcurve"/>
			<point x="509" y="646"/>
			<point x="509" y="652" type="qcurve"/>
			<point x="485" y="691"/>
			<point x="446" y="706"/>
			<point x="424" y="705" type="qcurve"/>
			<point x="396" y="656" type="line"/>
			<point x="407" y="650"/>
			<point x="418" y="642" type="qcurve"/>
			<point x="452" y="622"/>
		</contour>
		<contour>
			<point x="296" y="627" type="qcurve"/>
			<point x="312" y="627"/>
			<point x="332" y="646"/>
			<point x="332" y="666" type="qcurve"/>
			<point x="332" y="691"/>
			<point x="300" y="720"/>
			<point x="276" y="720" type="qcurve"/>
			<point x="267" y="720"/>
			<point x="247" y="713"/>
			<point x="231" y="705" type="qcurve"/>
			<point x="228" y="662" type="line"/>
			<point x="246" y="648"/>
			<point x="268" y="633"/>
			<point x="277" y="630" type="qcurve"/>
			<point x="286" y="627"/>
		</contour>
		<contour>
			<point x="177" y="465" type="curve"/>
			<point x="180" y="371"/>
			<point x="189" y="276"/>
			<point x="217" y="186" type="curve" smooth="yes"/>
			<point x="229" y="146"/>
			<point x="245" y="106"/>
			<point x="267" y="70" type="curve" smooth="yes"/>
			<point x="299" y="20"/>
			<point x="332" y="21"/>
			<point x="376" y="62" type="curve" smooth="yes"/>
			<point x="479" y="157"/>
			<point x="504" y="203"/>
			<point x="536" y="361" type="curve" smooth="yes"/>
			<point x="541" y="386"/>
			<point x="557" y="452"/>
			<point x="557" y="568" type="curve" smooth="yes"/>
			<point x="557" y="591"/>
			<point x="561" y="604"/>
			<point x="580" y="611" type="curve" smooth="yes"/>
			<point x="652" y="638"/>
			<point x="628" y="553"/>
			<point x="617" y="410" type="curve" smooth="yes"/>
			<point x="607" y="279"/>
			<point x="557" y="163"/>
			<point x="476" y="62" type="curve" smooth="yes"/>
			<point x="450" y="29"/>
			<point x="419" y="-1"/>
			<point x="384" y="-24" type="curve" smooth="yes"/>
			<point x="339" y="-56"/>
			<point x="272" y="-51"/>
			<point x="231" y="1" type="curve" smooth="yes"/>
			<point x="186" y="57"/>
			<point x="155" y="119"/>
			<point x="140" y="188" type="curve" smooth="yes"/>
			<point x="112" y="313"/>
			<point x="99" y="439"/>
			<point x="107" y="567" type="curve" smooth="yes"/>
			<point x="108" y="583" type="line" smooth="yes"/>
			<point x="109" y="606"/>
			<point x="111" y="629"/>
			<point x="142" y="630" type="curve" smooth="yes"/>
			<point x="166" y="630"/>
			<point x="184" y="606"/>
			<point x="183" y="575" type="curve" smooth="yes"/>
			<point x="182" y="538"/>
			<point x="179" y="502"/>
		</contour>
	</outline>
</glyph>
<glyph name="Thorn" format="2">
	<advance width="463"/>
	<unicode hex="00DE"/>
	<outline>
		<contour>
			<point x="110" y="-49" type="curve" smooth="yes"/>
			<point x="129" y="-48"/>
			<point x="129" y="-31"/>
			<point x="130" y="-16" type="curve" smooth="yes"/>
			<point x="129" y="13"/>
			<point x="121" y="138"/>
			<point x="130" y="143" type="curve"/>
			<point x="157" y="153"/>
			<point x="180" y="157"/>
			<point x="199" y="168" type="curve" smooth="yes"/>
			<point x="247" y="197"/>
			<point x="293" y="232"/>
			<point x="332" y="275" type="curve" smooth="yes"/>
			<point x="374" y="322"/>
			<point x="418" y="372"/>
			<point x="413" y="440" type="curve" smooth="yes"/>
			<point x="409" y="481"/>
			<point x="382" y="517"/>
			<point x="342" y="527" type="curve" smooth="yes"/>
			<point x="310" y="535"/>
			<point x="278" y="540"/>
			<point x="246" y="537" type="curve" smooth="yes"/>
			<point x="234" y="536"/>
			<point x="222" y="534"/>
			<point x="210" y="532" type="curve" smooth="yes"/>
			<point x="187" y="524"/>
			<point x="146" y="522"/>
			<point x="125" y="517" type="curve"/>
			<point x="114" y="542"/>
			<point x="106" y="747"/>
			<point x="86" y="745" type="curve" smooth="yes"/>
			<point x="73" y="744"/>
			<point x="49" y="726"/>
			<point x="50" y="715" type="curve" smooth="yes"/>
			<point x="55" y="673"/>
			<point x="45" y="334"/>
			<point x="53" y="235" type="curve" smooth="yes"/>
			<point x="59" y="170"/>
			<point x="65" y="153"/>
			<point x="69" y="104" type="curve" smooth="yes"/>
			<point x="74" y="48"/>
			<point x="59" y="10"/>
			<point x="60" y="-3" type="curve"/>
			<point x="65" y="-22" type="line"/>
			<point x="71" y="-40"/>
			<point x="89" y="-51"/>
		</contour>
		<contour>
			<point x="127" y="230" type="curve"/>
			<point x="127" y="292"/>
			<point x="128" y="345"/>
			<point x="128" y="399" type="curve" smooth="yes"/>
			<point x="128" y="426"/>
			<point x="139" y="444"/>
			<point x="165" y="456" type="curve" smooth="yes"/>
			<point x="207" y="476"/>
			<point x="256" y="482"/>
			<point x="307" y="480" type="curve" smooth="yes"/>
			<point x="338" y="479"/>
			<point x="355" y="465"/>
			<point x="357" y="442" type="curve" smooth="yes"/>
			<point x="360" y="416"/>
			<point x="337" y="368"/>
			<point x="315" y="345" type="curve" smooth="yes"/>
			<point x="280" y="307"/>
			<point x="242" y="272"/>
			<point x="201" y="242" type="curve" smooth="yes"/>
			<point x="193" y="237"/>
			<point x="182" y="235"/>
			<point x="169" y="234" type="curve" smooth="yes"/>
			<point x="156" y="232"/>
			<point x="141" y="232"/>
		</contour>
	</outline>
</glyph>
<glyph name="germandbls" format="2">
	<advance width="642"/>
	<unicode hex="00DF"/>
	<note>
		germandbls
	</note>
	<outline>
		<contour>
			<point x="209" y="-140" type="curve" smooth="yes"/>
			<point x="251" y="-128"/>
			<point x="227" y="-92"/>
			<point x="227" y="-62" type="curve" smooth="yes"/>
			<point x="227" y="-56" type="line"/>
			<point x="173" y="4"/>
			<point x="167" y="82"/>
			<point x="155" y="154" type="curve" smooth="yes"/>
			<point x="125" y="346"/>
			<point x="179" y="508"/>
			<point x="335" y="634" type="curve"/>
			<point x="353" y="652"/>
			<point x="377" y="658"/>
			<point x="401" y="670" type="curve"/>
			<point x="407" y="670"/>
			<point x="407" y="664"/>
			<point x="413" y="664" type="curve"/>
			<point x="413" y="628"/>
			<point x="419" y="598"/>
			<point x="413" y="568" type="curve" smooth="yes"/>
			<point x="401" y="484"/>
			<point x="365" y="418"/>
			<point x="305" y="358" type="curve"/>
			<point x="293" y="340"/>
			<point x="281" y="328"/>
			<point x="305" y="310" type="curve"/>
			<point x="323" y="292"/>
			<point x="341" y="286"/>
			<point x="359" y="310" type="curve"/>
			<point x="383" y="334"/>
			<point x="407" y="352"/>
			<point x="437" y="382" type="curve"/>
			<point x="443" y="352"/>
			<point x="455" y="334"/>
			<point x="455" y="310" type="curve"/>
			<point x="461" y="220"/>
			<point x="377" y="142"/>
			<point x="281" y="148" type="curve" smooth="yes"/>
			<point x="275" y="148"/>
			<point x="263" y="136"/>
			<point x="257" y="130" type="curve"/>
			<point x="257" y="124"/>
			<point x="263" y="106"/>
			<point x="269" y="106" type="curve"/>
			<point x="287" y="100"/>
			<point x="311" y="88"/>
			<point x="329" y="88" type="curve" smooth="yes"/>
			<point x="419" y="94"/>
			<point x="467" y="148"/>
			<point x="503" y="220" type="curve" smooth="yes"/>
			<point x="539" y="286"/>
			<point x="527" y="394"/>
			<point x="449" y="424" type="curve"/>
			<point x="461" y="490"/>
			<point x="473" y="556"/>
			<point x="479" y="622" type="curve" smooth="yes"/>
			<point x="485" y="724"/>
			<point x="389" y="748"/>
			<point x="323" y="700" type="curve" smooth="yes"/>
			<point x="191" y="610"/>
			<point x="107" y="484"/>
			<point x="89" y="328" type="curve" smooth="yes"/>
			<point x="71" y="184"/>
			<point x="101" y="46"/>
			<point x="155" y="-86" type="curve" smooth="yes"/>
			<point x="167" y="-116"/>
			<point x="167" y="-152"/>
		</contour>
	</outline>
</glyph>
<glyph name="ecircumflex" format="2">
	<advance width="478"/>
	<unicode hex="00EA"/>
	<outline>
		<contour>
			<point x="448" y="486" type="curve"/>
			<point x="440" y="476"/>
			<point x="432" y="458"/>
			<point x="424" y="458" type="curve" smooth="yes"/>
			<point x="410" y="458"/>
			<point x="392" y="467"/>
			<point x="386" y="479" type="curve" smooth="yes"/>
			<point x="350" y="535"/>
			<point x="346" y="544"/>
			<point x="314" y="603" type="curve" smooth="yes"/>
			<point x="301" y="628"/>
			<point x="285" y="630"/>
			<point x="268" y="609" type="curve" smooth="yes"/>
			<point x="218" y="549"/>
			<point x="230" y="563"/>
			<point x="180" y="502" type="curve" smooth="yes"/>
			<point x="170" y="490"/>
			<point x="161" y="473"/>
			<point x="148" y="468" type="curve" smooth="yes"/>
			<point x="136" y="464"/>
			<point x="117" y="470"/>
			<point x="106" y="479" type="curve" smooth="yes"/>
			<point x="100" y="482"/>
			<point x="100" y="505"/>
			<point x="106" y="512" type="curve" smooth="yes"/>
			<point x="168" y="590"/>
			<point x="166" y="593"/>
			<point x="234" y="665" type="curve" smooth="yes"/>
			<point x="284" y="720"/>
			<point x="319" y="713"/>
			<point x="358" y="651" type="curve" smooth="yes"/>
			<point x="395" y="592"/>
			<point x="400" y="581"/>
			<point x="434" y="521" type="curve" smooth="yes"/>
			<point x="440" y="512"/>
			<point x="442" y="502"/>
		</contour>
		<component base="e.alt3" yOffset="16"/>
	</outline>
</glyph>
<glyph name="igrave" format="2">
	<advance width="284"/>
	<unicode hex="00EC"/>
	<outline>
		<contour>
			<point x="211" y="45" type="curve" smooth="yes"/>
			<point x="216" y="45"/>
			<point x="221" y="46"/>
			<point x="226" y="48" type="curve" smooth="yes"/>
			<point x="249" y="56"/>
			<point x="248" y="76"/>
			<point x="247" y="94" type="curve" smooth="yes"/>
			<point x="243" y="143"/>
			<point x="238" y="268"/>
			<point x="232" y="316" type="curve" smooth="yes"/>
			<point x="230" y="330"/>
			<point x="225" y="344"/>
			<point x="220" y="357" type="curve" smooth="yes"/>
			<point x="215" y="370"/>
			<point x="206" y="383"/>
			<point x="192" y="377" type="curve" smooth="yes"/>
			<point x="183" y="374"/>
			<point x="175" y="359"/>
			<point x="173" y="348" type="curve" smooth="yes"/>
			<point x="171" y="341"/>
			<point x="171" y="332"/>
			<point x="171" y="324" type="curve" smooth="yes"/>
			<point x="171" y="315"/>
			<point x="171" y="306"/>
			<point x="172" y="297" type="curve" smooth="yes"/>
			<point x="174" y="259"/>
			<point x="177" y="143"/>
			<point x="181" y="102" type="curve"/>
			<point x="180" y="97"/>
			<point x="178" y="90"/>
			<point x="178" y="83" type="curve" smooth="yes"/>
			<point x="177" y="60"/>
			<point x="191" y="45"/>
		</contour>
		<contour>
			<point x="218" y="470" type="qcurve"/>
			<point x="231" y="470"/>
			<point x="251" y="479"/>
			<point x="248" y="508" type="qcurve"/>
			<point x="244" y="521"/>
			<point x="189" y="586"/>
			<point x="109" y="660" type="qcurve"/>
			<point x="103" y="665"/>
			<point x="80" y="676"/>
			<point x="75" y="674" type="qcurve"/>
			<point x="63" y="667"/>
			<point x="67" y="671"/>
			<point x="65" y="661" type="qcurve"/>
			<point x="64" y="649"/>
			<point x="72" y="621"/>
			<point x="81" y="611" type="qcurve"/>
			<point x="102" y="584"/>
			<point x="163" y="512" type="qcurve"/>
			<point x="184" y="488" type="line" smooth="yes"/>
			<point x="198" y="472"/>
		</contour>
	</outline>
</glyph>
<glyph name="eth" format="2">
	<advance width="600"/>
	<unicode hex="00F0"/>
	<outline>
		<contour>
			<point x="312" y="-2" type="curve" smooth="yes"/>
			<point x="392" y="-2"/>
			<point x="441" y="45"/>
			<point x="473" y="115" type="curve" smooth="yes"/>
			<point x="501" y="178"/>
			<point x="514" y="242"/>
			<point x="514" y="306" type="curve" smooth="yes"/>
			<point x="514" y="359"/>
			<point x="506" y="412"/>
			<point x="489" y="464" type="curve" smooth="yes"/>
			<point x="469" y="526"/>
			<point x="423" y="578"/>
			<point x="361" y="632" type="curve" smooth="yes"/>
			<point x="313" y="674" type="line" smooth="yes"/>
			<point x="291" y="694"/>
			<point x="269" y="714"/>
			<point x="267" y="718" type="curve"/>
			<point x="246" y="738"/>
			<point x="230" y="763"/>
			<point x="210" y="763" type="curve" smooth="yes"/>
			<point x="206" y="763"/>
			<point x="201" y="762"/>
			<point x="196" y="759" type="curve"/>
			<point x="184" y="757"/>
			<point x="176" y="736"/>
			<point x="176" y="721" type="curve" smooth="yes"/>
			<point x="176" y="718"/>
			<point x="176" y="714"/>
			<point x="177" y="712" type="curve"/>
			<point x="183" y="690"/>
			<point x="209" y="662"/>
			<point x="231" y="640" type="curve"/>
			<point x="190" y="623"/>
			<point x="158" y="611"/>
			<point x="153" y="607" type="curve" smooth="yes"/>
			<point x="148" y="603"/>
			<point x="129" y="569"/>
			<point x="129" y="558" type="curve" smooth="yes"/>
			<point x="129" y="552"/>
			<point x="143" y="546"/>
			<point x="151" y="546" type="curve" smooth="yes"/>
			<point x="153" y="546" type="line" smooth="yes"/>
			<point x="161" y="546"/>
			<point x="220" y="569"/>
			<point x="281" y="595" type="curve"/>
			<point x="352" y="523"/>
			<point x="422" y="479"/>
			<point x="439" y="340" type="curve" smooth="yes"/>
			<point x="440" y="333"/>
			<point x="441" y="325"/>
			<point x="441" y="316" type="curve" smooth="yes"/>
			<point x="441" y="256"/>
			<point x="412" y="176"/>
			<point x="395" y="134" type="curve" smooth="yes"/>
			<point x="382" y="99"/>
			<point x="356" y="63"/>
			<point x="312" y="63" type="curve" smooth="yes"/>
			<point x="246" y="63"/>
			<point x="175" y="137"/>
			<point x="175" y="206" type="curve" smooth="yes"/>
			<point x="175" y="225"/>
			<point x="181" y="245"/>
			<point x="194" y="262" type="curve" smooth="yes"/>
			<point x="226" y="303"/>
			<point x="263" y="340"/>
			<point x="297" y="379" type="curve" smooth="yes"/>
			<point x="305" y="389"/>
			<point x="309" y="400"/>
			<point x="309" y="409" type="curve" smooth="yes"/>
			<point x="309" y="421"/>
			<point x="302" y="430"/>
			<point x="290" y="430" type="curve" smooth="yes"/>
			<point x="286" y="430"/>
			<point x="282" y="429"/>
			<point x="278" y="427" type="curve" smooth="yes"/>
			<point x="193" y="395"/>
			<point x="108" y="317"/>
			<point x="108" y="219" type="curve" smooth="yes"/>
			<point x="108" y="184"/>
			<point x="119" y="146"/>
			<point x="145" y="106" type="curve" smooth="yes"/>
			<point x="183" y="48"/>
			<point x="233" y="-2"/>
		</contour>
		<contour>
			<point x="313" y="674" type="curve"/>
			<point x="361" y="632" type="line"/>
			<point x="372" y="639"/>
			<point x="383" y="645"/>
			<point x="392" y="651" type="curve" smooth="yes"/>
			<point x="413" y="663"/>
			<point x="436" y="673"/>
			<point x="456" y="686" type="curve" smooth="yes"/>
			<point x="464" y="692"/>
			<point x="467" y="699"/>
			<point x="467" y="706" type="curve" smooth="yes"/>
			<point x="467" y="721"/>
			<point x="454" y="736"/>
			<point x="437" y="736" type="curve" smooth="yes"/>
			<point x="427" y="736"/>
			<point x="417" y="726"/>
			<point x="408" y="720" type="curve" smooth="yes"/>
			<point x="384" y="705"/>
			<point x="349" y="690"/>
		</contour>
	</outline>
</glyph>
<glyph name="divide" format="2">
	<advance width="755"/>
	<unicode hex="00F7"/>
	<note>
		divide
	</note>
	<outline>
		<contour>
			<point x="150" y="289" type="curve" smooth="yes"/>
			<point x="265" y="297"/>
			<point x="379" y="307"/>
			<point x="494" y="313" type="curve" smooth="yes"/>
			<point x="562" y="317"/>
			<point x="631" y="314"/>
			<point x="698" y="314" type="curve"/>
			<point x="700" y="319"/>
			<point x="703" y="335"/>
			<point x="704" y="340" type="curve"/>
			<point x="687" y="347"/>
			<point x="669" y="359"/>
			<point x="650" y="360" type="curve" smooth="yes"/>
			<point x="584" y="365"/>
			<point x="518" y="370"/>
			<point x="452" y="368" type="curve" smooth="yes"/>
			<point x="340" y="365"/>
			<point x="228" y="356"/>
			<point x="116" y="350" type="curve" smooth="yes"/>
			<point x="107" y="349"/>
			<point x="97" y="340"/>
			<point x="88" y="336" type="curve"/>
			<point x="94" y="315"/>
			<point x="98" y="299"/>
			<point x="107" y="294" type="curve" smooth="yes"/>
			<point x="119" y="287"/>
			<point x="136" y="288"/>
		</contour>
		<contour>
			<point x="356" y="112" type="curve"/>
			<point x="384" y="137"/>
			<point x="411" y="157"/>
			<point x="434" y="183" type="curve"/>
			<point x="443" y="191"/>
			<point x="446" y="218"/>
			<point x="440" y="224" type="curve" smooth="yes"/>
			<point x="430" y="233"/>
			<point x="408" y="240"/>
			<point x="395" y="235" type="curve" smooth="yes"/>
			<point x="371" y="226"/>
			<point x="346" y="212"/>
			<point x="327" y="194" type="curve" smooth="yes"/>
			<point x="314" y="183"/>
			<point x="299" y="158"/>
			<point x="303" y="147" type="curve" smooth="yes"/>
			<point x="308" y="133"/>
			<point x="333" y="126"/>
		</contour>
		<contour>
			<point x="291" y="469" type="curve"/>
			<point x="321" y="445"/>
			<point x="384" y="416"/>
			<point x="437" y="486" type="curve"/>
			<point x="424" y="498"/>
			<point x="412" y="519"/>
			<point x="398" y="520" type="curve" smooth="yes"/>
			<point x="374" y="523"/>
			<point x="348" y="514"/>
			<point x="323" y="509" type="curve" smooth="yes"/>
			<point x="310" y="505"/>
			<point x="297" y="504"/>
			<point x="286" y="497" type="curve" smooth="yes"/>
			<point x="282" y="494"/>
			<point x="285" y="472"/>
		</contour>
	</outline>
</glyph>
<glyph name="Hbar" format="2">
	<advance width="587"/>
	<unicode hex="0126"/>
	<outline>
		<contour>
			<point x="374" y="542" type="curve" smooth="yes"/>
			<point x="300" y="541"/>
			<point x="220" y="545"/>
			<point x="146" y="549" type="curve" smooth="yes"/>
			<point x="127" y="550"/>
			<point x="106" y="553"/>
			<point x="92" y="560" type="curve" smooth="yes"/>
			<point x="75" y="569"/>
			<point x="50" y="582"/>
			<point x="50" y="593" type="curve"/>
			<point x="55" y="601"/>
			<point x="94" y="607"/>
			<point x="116" y="607" type="curve" smooth="yes"/>
			<point x="217" y="607"/>
			<point x="340" y="608"/>
			<point x="441" y="604" type="curve" smooth="yes"/>
			<point x="489" y="602"/>
			<point x="556" y="579"/>
			<point x="512" y="559" type="curve"/>
			<point x="492" y="553"/>
			<point x="432" y="542"/>
		</contour>
		<contour>
			<point x="134" y="324" type="curve"/>
			<point x="129" y="238"/>
			<point x="125" y="207"/>
			<point x="120" y="124" type="curve" smooth="yes"/>
			<point x="118" y="88"/>
			<point x="119" y="51"/>
			<point x="113" y="15" type="curve" smooth="yes"/>
			<point x="111" y="2"/>
			<point x="90" y="-9"/>
			<point x="80" y="-21" type="curve"/>
			<point x="71" y="-14"/>
			<point x="57" y="-7"/>
			<point x="56" y="2" type="curve" smooth="yes"/>
			<point x="52" y="33"/>
			<point x="49" y="64"/>
			<point x="51" y="93" type="curve" smooth="yes"/>
			<point x="55" y="250"/>
			<point x="57" y="353"/>
			<point x="67" y="510" type="curve" smooth="yes"/>
			<point x="70" y="550"/>
			<point x="90" y="589"/>
			<point x="110" y="626" type="curve" smooth="yes"/>
			<point x="117" y="640"/>
			<point x="141" y="646"/>
			<point x="157" y="655" type="curve"/>
			<point x="158" y="636"/>
			<point x="165" y="616"/>
			<point x="161" y="596" type="curve" smooth="yes"/>
			<point x="145" y="528"/>
			<point x="123" y="460"/>
			<point x="142" y="386" type="curve"/>
			<point x="225" y="386"/>
			<point x="306" y="386"/>
			<point x="392" y="386" type="curve"/>
			<point x="392" y="416"/>
			<point x="393" y="439"/>
			<point x="391" y="462" type="curve" smooth="yes"/>
			<point x="384" y="536"/>
			<point x="383" y="566"/>
			<point x="381" y="640" type="curve" smooth="yes"/>
			<point x="380" y="658"/>
			<point x="404" y="686"/>
			<point x="422" y="693" type="curve" smooth="yes"/>
			<point x="452" y="704"/>
			<point x="463" y="679"/>
			<point x="464" y="652" type="curve" smooth="yes"/>
			<point x="470" y="559"/>
			<point x="461" y="512"/>
			<point x="473" y="419" type="curve" smooth="yes"/>
			<point x="474" y="411"/>
			<point x="473" y="393"/>
			<point x="510" y="385" type="curve" smooth="yes"/>
			<point x="544" y="377"/>
			<point x="545" y="351"/>
			<point x="516" y="331" type="curve" smooth="yes"/>
			<point x="503" y="321"/>
			<point x="487" y="316"/>
			<point x="475" y="310" type="curve"/>
			<point x="475" y="223"/>
			<point x="477" y="135"/>
			<point x="476" y="53" type="curve" smooth="yes"/>
			<point x="475" y="34"/>
			<point x="461" y="16"/>
			<point x="454" y="-1" type="curve"/>
			<point x="426" y="7"/>
			<point x="422" y="31"/>
			<point x="420" y="48" type="curve" smooth="yes"/>
			<point x="410" y="128"/>
			<point x="403" y="191"/>
			<point x="399" y="271" type="curve" smooth="yes"/>
			<point x="397" y="301"/>
			<point x="385" y="318"/>
			<point x="353" y="319" type="curve" smooth="yes"/>
			<point x="280" y="322"/>
			<point x="207" y="323"/>
		</contour>
	</outline>
</glyph>
<glyph name="kgreenlandic" format="2">
	<advance width="516"/>
	<unicode hex="0138"/>
	<note>
		k.alt1
	</note>
	<outline>
		<contour>
			<point x="409" y="20" type="curve" smooth="yes"/>
			<point x="443" y="19"/>
			<point x="479" y="36"/>
			<point x="479" y="63" type="curve" smooth="yes"/>
			<point x="479" y="77"/>
			<point x="464" y="92"/>
			<point x="451" y="92" type="curve" smooth="yes"/>
			<point x="432" y="92"/>
			<point x="430" y="66"/>
			<point x="405" y="76" type="curve" smooth="yes"/>
			<point x="361" y="94"/>
			<point x="318" y="152"/>
			<point x="264" y="223" type="curve"/>
			<point x="300" y="255" type="line" smooth="yes"/>
			<point x="358" y="306"/>
			<point x="417" y="355"/>
			<point x="473" y="408" type="curve" smooth="yes"/>
			<point x="481" y="415"/>
			<point x="486" y="431"/>
			<point x="486" y="443" type="curve" smooth="yes"/>
			<point x="486" y="471"/>
			<point x="445" y="482"/>
			<point x="418" y="455" type="curve" smooth="yes"/>
			<point x="394" y="433"/>
			<point x="371" y="410"/>
			<point x="346" y="387" type="curve" smooth="yes"/>
			<point x="312" y="356"/>
			<point x="277" y="325"/>
			<point x="241" y="293" type="curve"/>
			<point x="231" y="302"/>
			<point x="225" y="312"/>
			<point x="217" y="314" type="curve" smooth="yes"/>
			<point x="207" y="317"/>
			<point x="195" y="320"/>
			<point x="185" y="320" type="curve"/>
			<point x="173" y="318" type="line"/>
			<point x="150" y="308"/>
			<point x="173" y="283"/>
			<point x="173" y="258" type="curve" smooth="yes"/>
			<point x="173" y="242"/>
			<point x="161" y="237"/>
			<point x="125" y="228" type="curve"/>
			<point x="122" y="253"/>
			<point x="118" y="277"/>
			<point x="118" y="302" type="curve" smooth="yes"/>
			<point x="119" y="369"/>
			<point x="123" y="437"/>
			<point x="125" y="504" type="curve" smooth="yes"/>
			<point x="125" y="527"/>
			<point x="99" y="547"/>
			<point x="77" y="545" type="curve" smooth="yes"/>
			<point x="57" y="543"/>
			<point x="51" y="532"/>
			<point x="51" y="503" type="curve" smooth="yes"/>
			<point x="53" y="409"/>
			<point x="44" y="294"/>
			<point x="60" y="198" type="curve" smooth="yes"/>
			<point x="65" y="162"/>
			<point x="87" y="143"/>
			<point x="116" y="143" type="curve" smooth="yes"/>
			<point x="140" y="143"/>
			<point x="148" y="149"/>
			<point x="206" y="177" type="curve"/>
			<point x="235" y="142"/>
			<point x="259" y="111"/>
			<point x="287" y="84" type="curve" smooth="yes"/>
			<point x="321" y="51"/>
			<point x="359" y="22"/>
		</contour>
	</outline>
</glyph>
<glyph name="OE" format="2">
	<advance width="1003"/>
	<unicode hex="0152"/>
	<outline>
		<contour>
			<point x="86" y="220" type="curve" smooth="yes"/>
			<point x="101" y="152"/>
			<point x="134" y="94"/>
			<point x="190" y="50" type="curve" smooth="yes"/>
			<point x="285" y="-25"/>
			<point x="408" y="-6"/>
			<point x="465" y="100" type="curve" smooth="yes"/>
			<point x="484" y="136"/>
			<point x="503" y="172"/>
			<point x="520" y="209" type="curve"/>
			<point x="526" y="178"/>
			<point x="525" y="146"/>
			<point x="530" y="117" type="curve" smooth="yes"/>
			<point x="537" y="86"/>
			<point x="539" y="55"/>
			<point x="566" y="28" type="curve"/>
			<point x="601" y="8"/>
			<point x="644" y="7"/>
			<point x="686" y="7" type="curve" smooth="yes"/>
			<point x="768" y="7"/>
			<point x="848" y="8"/>
			<point x="931" y="8" type="curve"/>
			<point x="939" y="17"/>
			<point x="948" y="25"/>
			<point x="953" y="35" type="curve" smooth="yes"/>
			<point x="955" y="40"/>
			<point x="951" y="50"/>
			<point x="951" y="56" type="curve"/>
			<point x="936" y="72"/>
			<point x="916" y="70"/>
			<point x="897" y="70" type="curve" smooth="yes"/>
			<point x="824" y="72"/>
			<point x="749" y="70"/>
			<point x="675" y="73" type="curve" smooth="yes"/>
			<point x="661" y="73"/>
			<point x="646" y="79"/>
			<point x="635" y="81" type="curve"/>
			<point x="609" y="154"/>
			<point x="599" y="198"/>
			<point x="599" y="249" type="curve"/>
			<point x="633" y="251"/>
			<point x="679" y="238"/>
			<point x="714" y="243" type="curve" smooth="yes"/>
			<point x="748" y="248"/>
			<point x="785" y="242"/>
			<point x="816" y="259" type="curve"/>
			<point x="846" y="293"/>
			<point x="846" y="298"/>
			<point x="815" y="321" type="curve"/>
			<point x="695" y="311"/>
			<point x="670" y="333"/>
			<point x="592" y="328" type="curve"/>
			<point x="578" y="386"/>
			<point x="585" y="478"/>
			<point x="585" y="543" type="curve"/>
			<point x="626" y="577"/>
			<point x="745" y="578"/>
			<point x="853" y="576" type="curve" smooth="yes"/>
			<point x="872" y="575"/>
			<point x="948" y="591"/>
			<point x="963" y="611" type="curve"/>
			<point x="960" y="619"/>
			<point x="955" y="628"/>
			<point x="951" y="636" type="curve"/>
			<point x="850" y="645"/>
			<point x="793" y="644"/>
			<point x="681" y="627" type="curve" smooth="yes"/>
			<point x="635" y="620"/>
			<point x="554" y="602"/>
			<point x="502" y="611" type="curve"/>
			<point x="486" y="630"/>
			<point x="467" y="647"/>
			<point x="446" y="662" type="curve" smooth="yes"/>
			<point x="430" y="674"/>
			<point x="409" y="677"/>
			<point x="392" y="685" type="curve"/>
			<point x="353" y="640" type="line"/>
			<point x="366" y="633"/>
			<point x="383" y="630"/>
			<point x="392" y="620" type="curve" smooth="yes"/>
			<point x="418" y="593"/>
			<point x="447" y="566"/>
			<point x="463" y="533" type="curve" smooth="yes"/>
			<point x="527" y="400"/>
			<point x="480" y="166"/>
			<point x="357" y="80" type="curve" smooth="yes"/>
			<point x="319" y="54"/>
			<point x="284" y="57"/>
			<point x="241" y="86" type="curve" smooth="yes"/>
			<point x="130" y="158"/>
			<point x="118" y="463"/>
			<point x="205" y="551" type="curve" smooth="yes"/>
			<point x="234" y="581"/>
			<point x="265" y="602"/>
			<point x="308" y="567" type="curve" smooth="yes"/>
			<point x="321" y="556"/>
			<point x="360" y="556"/>
			<point x="382" y="556" type="curve"/>
			<point x="371" y="576"/>
			<point x="366" y="604"/>
			<point x="349" y="616" type="curve" smooth="yes"/>
			<point x="262" y="673"/>
			<point x="184" y="656"/>
			<point x="128" y="567" type="curve" smooth="yes"/>
			<point x="59" y="459"/>
			<point x="61" y="339"/>
		</contour>
	</outline>
</glyph>
<glyph name="Zcaron" format="2">
	<advance width="572"/>
	<unicode hex="017D"/>
	<outline>
		<contour>
			<point x="184" y="10" type="curve" smooth="yes"/>
			<point x="220" y="12"/>
			<point x="255" y="15"/>
			<point x="289" y="15" type="curve" smooth="yes"/>
			<point x="325" y="15"/>
			<point x="360" y="11"/>
			<point x="395" y="10" type="curve" smooth="yes"/>
			<point x="429" y="10"/>
			<point x="464" y="-1"/>
			<point x="499" y="13" type="curve"/>
			<point x="518" y="32"/>
			<point x="531" y="35"/>
			<point x="512" y="61" type="curve"/>
			<point x="481" y="77"/>
			<point x="446" y="72"/>
			<point x="411" y="74" type="curve" smooth="yes"/>
			<point x="372" y="75"/>
			<point x="331" y="73"/>
			<point x="293" y="77" type="curve" smooth="yes"/>
			<point x="259" y="81"/>
			<point x="215" y="65"/>
			<point x="184" y="92" type="curve"/>
			<point x="213" y="141"/>
			<point x="263" y="194"/>
			<point x="306" y="234" type="curve" smooth="yes"/>
			<point x="343" y="266"/>
			<point x="375" y="304"/>
			<point x="403" y="343" type="curve" smooth="yes"/>
			<point x="429" y="376"/>
			<point x="492" y="465"/>
			<point x="515" y="499" type="curve" smooth="yes"/>
			<point x="529" y="518"/>
			<point x="540" y="539"/>
			<point x="552" y="559" type="curve"/>
			<point x="535" y="596" type="line"/>
			<point x="409" y="615"/>
			<point x="284" y="633"/>
			<point x="155" y="636" type="curve" smooth="yes"/>
			<point x="139" y="637"/>
			<point x="121" y="635"/>
			<point x="104" y="634" type="curve" smooth="yes"/>
			<point x="95" y="633"/>
			<point x="88" y="629"/>
			<point x="81" y="626" type="curve" smooth="yes"/>
			<point x="64" y="617"/>
			<point x="54" y="615"/>
			<point x="53" y="596" type="curve"/>
			<point x="71" y="571" type="line"/>
			<point x="368" y="554"/>
			<point x="368" y="554"/>
			<point x="418" y="518" type="curve"/>
			<point x="413" y="508"/>
			<point x="413" y="484"/>
			<point x="408" y="474" type="curve"/>
			<point x="372" y="430"/>
			<point x="297" y="327"/>
			<point x="259" y="284" type="curve" smooth="yes"/>
			<point x="196" y="214"/>
			<point x="129" y="146"/>
			<point x="66" y="79" type="curve" smooth="yes"/>
			<point x="58" y="70"/>
			<point x="54" y="56"/>
			<point x="50" y="45" type="curve"/>
			<point x="67" y="13" type="line"/>
			<point x="115" y="-1"/>
			<point x="150" y="6"/>
		</contour>
		<contour>
			<point x="290" y="677" type="qcurve"/>
			<point x="310" y="677"/>
			<point x="327" y="692" type="qcurve"/>
			<point x="370" y="727"/>
			<point x="421" y="773" type="qcurve"/>
			<point x="429" y="780"/>
			<point x="429" y="790" type="qcurve"/>
			<point x="429" y="801"/>
			<point x="418" y="807" type="qcurve"/>
			<point x="405" y="815"/>
			<point x="389" y="811"/>
			<point x="370" y="794" type="qcurve"/>
			<point x="333" y="759"/>
			<point x="301" y="729" type="qcurve"/>
			<point x="289" y="741"/>
			<point x="285" y="765" type="qcurve"/>
			<point x="272" y="780" type="line" smooth="yes"/>
			<point x="259" y="792"/>
			<point x="245" y="792" type="qcurve"/>
			<point x="233" y="792"/>
			<point x="218" y="781"/>
			<point x="218" y="772" type="qcurve"/>
			<point x="218" y="770"/>
			<point x="219" y="765" type="qcurve"/>
			<point x="227" y="744"/>
			<point x="242" y="712" type="qcurve"/>
			<point x="251" y="695"/>
			<point x="276" y="677"/>
		</contour>
	</outline>
</glyph>
<glyph name="uni0188" format="2">
	<advance width="488"/>
	<unicode hex="0188"/>
	<outline>
		<contour>
			<point x="345" y="394" type="line"/>
			<point x="345" y="409"/>
			<point x="362" y="475"/>
			<point x="376" y="474" type="qcurve"/>
			<point x="457" y="464"/>
			<point x="458" y="506"/>
			<point x="425" y="533" type="qcurve"/>
			<point x="405" y="541"/>
			<point x="352" y="531" type="qcurve"/>
			<point x="309" y="510"/>
			<point x="277" y="471"/>
			<point x="270" y="457" type="qcurve"/>
			<point x="256" y="426"/>
			<point x="270" y="389"/>
			<point x="277" y="374" type="qcurve"/>
			<point x="291" y="352"/>
			<point x="345" y="333"/>
			<point x="345" y="354" type="qcurve"/>
		</contour>
		<component base="c"/>
	</outline>
</glyph>
<glyph name="florin" format="2">
	<advance width="489"/>
	<unicode hex="0192"/>
	<note>
		florin
	</note>
	<outline>
		<contour>
			<point x="200" y="-113" type="curve" smooth="yes"/>
			<point x="260" y="-113"/>
			<point x="275" y="-49"/>
			<point x="275" y="17" type="curve" smooth="yes"/>
			<point x="275" y="76"/>
			<point x="272" y="136"/>
			<point x="272" y="194" type="curve" smooth="yes"/>
			<point x="272" y="210"/>
			<point x="273" y="228"/>
			<point x="273" y="247" type="curve"/>
			<point x="338" y="255"/>
			<point x="398" y="263"/>
			<point x="442" y="275" type="curve" smooth="yes"/>
			<point x="450" y="277"/>
			<point x="459" y="294"/>
			<point x="459" y="303" type="curve" smooth="yes"/>
			<point x="459" y="318"/>
			<point x="446" y="330"/>
			<point x="431" y="330" type="curve" smooth="yes"/>
			<point x="420" y="330"/>
			<point x="347" y="318"/>
			<point x="324" y="318" type="curve" smooth="yes"/>
			<point x="306" y="318"/>
			<point x="264" y="318"/>
			<point x="264" y="327" type="curve"/>
			<point x="260" y="364"/>
			<point x="261" y="404"/>
			<point x="261" y="440" type="curve" smooth="yes"/>
			<point x="261" y="517"/>
			<point x="270" y="605"/>
			<point x="305" y="659" type="curve" smooth="yes"/>
			<point x="325" y="690"/>
			<point x="340" y="669"/>
			<point x="348" y="627" type="curve" smooth="yes"/>
			<point x="352" y="609"/>
			<point x="344" y="585"/>
			<point x="369" y="576" type="curve" smooth="yes"/>
			<point x="382" y="571"/>
			<point x="397" y="595"/>
			<point x="397" y="625" type="curve" smooth="yes"/>
			<point x="397" y="652"/>
			<point x="392" y="680"/>
			<point x="383" y="706" type="curve" smooth="yes"/>
			<point x="371" y="736"/>
			<point x="349" y="752"/>
			<point x="326" y="752" type="curve" smooth="yes"/>
			<point x="278" y="752"/>
			<point x="237" y="689"/>
			<point x="223" y="637" type="curve" smooth="yes"/>
			<point x="203" y="564"/>
			<point x="199" y="489"/>
			<point x="199" y="414" type="curve" smooth="yes"/>
			<point x="199" y="364"/>
			<point x="207" y="334"/>
			<point x="196" y="320" type="curve"/>
			<point x="140" y="312"/>
			<point x="103" y="319"/>
			<point x="46" y="289" type="curve" smooth="yes"/>
			<point x="23" y="277"/>
			<point x="22" y="231"/>
			<point x="57" y="231" type="curve" smooth="yes"/>
			<point x="65" y="231"/>
			<point x="116" y="243"/>
			<point x="148" y="243" type="curve" smooth="yes"/>
			<point x="163" y="243"/>
			<point x="189" y="244"/>
			<point x="204" y="240" type="curve"/>
			<point x="221" y="214"/>
			<point x="207" y="56"/>
			<point x="207" y="-44" type="curve" smooth="yes"/>
			<point x="204" y="-88"/>
			<point x="163" y="-30"/>
			<point x="113" y="13" type="curve"/>
			<point x="92" y="-1"/>
			<point x="85" y="-18"/>
			<point x="99" y="-35" type="curve" smooth="yes"/>
			<point x="129" y="-75"/>
			<point x="161" y="-113"/>
		</contour>
	</outline>
</glyph>
<glyph name="uni0199" format="2">
	<advance width="516"/>
	<unicode hex="0199"/>
	<outline>
		<contour>
			<point x="123" y="501" type="line"/>
			<point x="123" y="467"/>
			<point x="51" y="463"/>
			<point x="51" y="487" type="qcurve"/>
			<point x="51" y="502"/>
			<point x="51" y="638"/>
			<point x="70" y="668" type="qcurve"/>
			<point x="79" y="681"/>
			<point x="112" y="704"/>
			<point x="164" y="721" type="qcurve"/>
			<point x="228" y="727"/>
			<point x="250" y="717" type="qcurve"/>
			<point x="287" y="687"/>
			<point x="283" y="652"/>
			<point x="187" y="663" type="qcurve"/>
			<point x="161" y="666"/>
			<point x="122" y="628"/>
			<point x="123" y="592" type="qcurve"/>
		</contour>
		<contour>
			<point x="412" y="20" type="curve" smooth="yes"/>
			<point x="360" y="20"/>
			<point x="322" y="50"/>
			<point x="287" y="84" type="curve" smooth="yes"/>
			<point x="259" y="111"/>
			<point x="235" y="142"/>
			<point x="206" y="177" type="curve"/>
			<point x="148" y="149"/>
			<point x="140" y="143"/>
			<point x="116" y="143" type="curve" smooth="yes"/>
			<point x="87" y="143"/>
			<point x="65" y="162"/>
			<point x="60" y="198" type="curve" smooth="yes"/>
			<point x="52" y="246"/>
			<point x="50" y="299"/>
			<point x="50" y="351" type="curve" smooth="yes"/>
			<point x="50" y="404"/>
			<point x="51" y="486"/>
			<point x="51" y="533" type="curve" smooth="yes"/>
			<point x="51" y="563"/>
			<point x="51" y="575"/>
			<point x="80" y="575" type="curve" smooth="yes"/>
			<point x="123" y="575"/>
			<point x="123" y="556"/>
			<point x="123" y="534" type="curve" smooth="yes"/>
			<point x="123" y="467"/>
			<point x="119" y="369"/>
			<point x="118" y="302" type="curve" smooth="yes"/>
			<point x="118" y="277"/>
			<point x="122" y="253"/>
			<point x="125" y="228" type="curve"/>
			<point x="161" y="237"/>
			<point x="173" y="242"/>
			<point x="173" y="258" type="curve" smooth="yes"/>
			<point x="173" y="275"/>
			<point x="163" y="291"/>
			<point x="163" y="304" type="curve" smooth="yes"/>
			<point x="163" y="310"/>
			<point x="165" y="315"/>
			<point x="173" y="318" type="curve"/>
			<point x="185" y="320" type="line"/>
			<point x="195" y="320"/>
			<point x="207" y="317"/>
			<point x="217" y="314" type="curve" smooth="yes"/>
			<point x="225" y="312"/>
			<point x="231" y="302"/>
			<point x="241" y="293" type="curve"/>
			<point x="277" y="325"/>
			<point x="312" y="356"/>
			<point x="346" y="387" type="curve" smooth="yes"/>
			<point x="371" y="410"/>
			<point x="394" y="433"/>
			<point x="418" y="455" type="curve" smooth="yes"/>
			<point x="429" y="466"/>
			<point x="442" y="471"/>
			<point x="454" y="471" type="curve" smooth="yes"/>
			<point x="471" y="471"/>
			<point x="486" y="460"/>
			<point x="486" y="443" type="curve" smooth="yes"/>
			<point x="486" y="431"/>
			<point x="481" y="415"/>
			<point x="473" y="408" type="curve" smooth="yes"/>
			<point x="417" y="355"/>
			<point x="358" y="306"/>
			<point x="300" y="255" type="curve" smooth="yes"/>
			<point x="264" y="223" type="line"/>
			<point x="318" y="152"/>
			<point x="361" y="94"/>
			<point x="405" y="76" type="curve" smooth="yes"/>
			<point x="409" y="74"/>
			<point x="412" y="74"/>
			<point x="415" y="74" type="curve" smooth="yes"/>
			<point x="431" y="74"/>
			<point x="435" y="92"/>
			<point x="451" y="92" type="curve" smooth="yes"/>
			<point x="464" y="92"/>
			<point x="479" y="77"/>
			<point x="479" y="63" type="curve" smooth="yes"/>
			<point x="479" y="37"/>
			<point x="445" y="20"/>
		</contour>
	</outline>
</glyph>
<glyph name="uni01AD" format="2">
	<advance width="359"/>
	<unicode hex="01AD"/>
	<outline>
		<contour>
			<point x="174" y="633" type="line"/>
			<point x="183" y="654"/>
			<point x="229" y="682"/>
			<point x="241" y="676" type="qcurve"/>
			<point x="310" y="632"/>
			<point x="328" y="670"/>
			<point x="311" y="708" type="qcurve"/>
			<point x="295" y="724"/>
			<point x="244" y="738" type="qcurve"/>
			<point x="196" y="737"/>
			<point x="150" y="698" type="qcurve"/>
			<point x="124" y="675"/>
			<point x="97" y="583"/>
			<point x="97" y="567" type="qcurve"/>
			<point x="101" y="541"/>
			<point x="157" y="559"/>
			<point x="162" y="580" type="qcurve"/>
		</contour>
		<component base="uniF011"/>
	</outline>
</glyph>
<glyph name="uni01B2" format="2">
	<advance width="650"/>
	<unicode hex="01B2"/>
	<outline>
		<contour>
			<point x="448" y="77" type="curve" smooth="yes"/>
			<point x="556" y="185"/>
			<point x="593" y="320"/>
			<point x="576" y="468" type="curve" smooth="yes"/>
			<point x="567" y="543"/>
			<point x="551" y="620"/>
			<point x="485" y="673" type="curve" smooth="yes"/>
			<point x="472" y="682"/>
			<point x="456" y="685"/>
			<point x="443" y="691" type="curve"/>
			<point x="467" y="618"/>
			<point x="500" y="557"/>
			<point x="507" y="492" type="curve" smooth="yes"/>
			<point x="525" y="345"/>
			<point x="501" y="206"/>
			<point x="372" y="108" type="curve" smooth="yes"/>
			<point x="277" y="35"/>
			<point x="174" y="63"/>
			<point x="148" y="180" type="curve" smooth="yes"/>
			<point x="126" y="278"/>
			<point x="133" y="380"/>
			<point x="124" y="482" type="curve" smooth="yes"/>
			<point x="123" y="497"/>
			<point x="112" y="512"/>
			<point x="106" y="528" type="curve"/>
			<point x="90" y="520"/>
			<point x="72" y="513"/>
			<point x="58" y="503" type="curve" smooth="yes"/>
			<point x="52" y="497"/>
			<point x="51" y="484"/>
			<point x="51" y="473" type="curve" smooth="yes"/>
			<point x="51" y="411"/>
			<point x="47" y="346"/>
			<point x="54" y="285" type="curve" smooth="yes"/>
			<point x="61" y="232"/>
			<point x="73" y="176"/>
			<point x="98" y="130" type="curve" smooth="yes"/>
			<point x="174" y="-18"/>
			<point x="330" y="-40"/>
		</contour>
		<contour>
			<point x="484" y="582" type="line"/>
			<point x="492" y="561"/>
			<point x="562" y="504"/>
			<point x="565" y="531" type="qcurve"/>
			<point x="563" y="546"/>
			<point x="512" y="704"/>
			<point x="485" y="723" type="qcurve"/>
			<point x="472" y="732"/>
			<point x="437" y="744"/>
			<point x="391" y="740" type="qcurve"/>
			<point x="339" y="722"/>
			<point x="326" y="703" type="qcurve"/>
			<point x="311" y="665"/>
			<point x="333" y="630"/>
			<point x="397" y="677" type="qcurve"/>
			<point x="409" y="684"/>
			<point x="448" y="673"/>
			<point x="455" y="658" type="qcurve"/>
		</contour>
	</outline>
</glyph>
<glyph name="uni01B7" format="2">
	<advance width="610"/>
	<unicode hex="01B7"/>
	<outline>
		<contour>
			<point x="108" y="-2" type="curve" smooth="yes"/>
			<point x="264" y="2"/>
			<point x="428" y="32"/>
			<point x="447" y="183" type="curve" smooth="yes"/>
			<point x="457" y="261"/>
			<point x="440" y="394"/>
			<point x="342" y="407" type="curve" smooth="yes"/>
			<point x="319" y="410"/>
			<point x="297" y="413"/>
			<point x="273" y="420" type="curve"/>
			<point x="269" y="426"/>
			<point x="353" y="470"/>
			<point x="385" y="496" type="curve" smooth="yes"/>
			<point x="427" y="530"/>
			<point x="468" y="565"/>
			<point x="503" y="606" type="curve" smooth="yes"/>
			<point x="537" y="649"/>
			<point x="580" y="700"/>
			<point x="468" y="710" type="curve" smooth="yes"/>
			<point x="421" y="714"/>
			<point x="373" y="710"/>
			<point x="328" y="710" type="curve" smooth="yes"/>
			<point x="231" y="711"/>
			<point x="189" y="704"/>
			<point x="150" y="703" type="curve" smooth="yes"/>
			<point x="132" y="703"/>
			<point x="106" y="712"/>
			<point x="107" y="683" type="curve" smooth="yes"/>
			<point x="106" y="656"/>
			<point x="118" y="636"/>
			<point x="153" y="639" type="curve" smooth="yes"/>
			<point x="186" y="641"/>
			<point x="221" y="644"/>
			<point x="313" y="647" type="curve" smooth="yes"/>
			<point x="452" y="652" type="line"/>
			<point x="440" y="633"/>
			<point x="437" y="627"/>
			<point x="431" y="623" type="curve"/>
			<point x="355" y="561"/>
			<point x="279" y="497"/>
			<point x="162" y="430" type="curve" smooth="yes"/>
			<point x="137" y="415"/>
			<point x="132" y="398"/>
			<point x="143" y="372" type="curve" smooth="yes"/>
			<point x="153" y="350"/>
			<point x="173" y="342"/>
			<point x="199" y="347" type="curve" smooth="yes"/>
			<point x="231" y="354"/>
			<point x="263" y="357"/>
			<point x="296" y="354" type="curve" smooth="yes"/>
			<point x="353" y="346"/>
			<point x="369" y="308"/>
			<point x="372" y="253" type="curve" smooth="yes"/>
			<point x="376" y="204"/>
			<point x="366" y="162"/>
			<point x="330" y="136" type="curve" smooth="yes"/>
			<point x="273" y="95"/>
			<point x="176" y="62"/>
			<point x="57" y="55" type="curve" smooth="yes"/>
			<point x="52" y="55"/>
			<point x="39" y="29"/>
			<point x="40" y="22" type="curve" smooth="yes"/>
			<point x="51" y="-15"/>
			<point x="83" y="-3"/>
		</contour>
	</outline>
</glyph>
<glyph name="uni01C0" format="2">
	<advance width="600"/>
	<unicode hex="01C0"/>
	<outline>
		<contour>
			<point x="291" y="-141" type="qcurve"/>
			<point x="287" y="-142"/>
			<point x="298" y="-137" type="qcurve"/>
			<point x="336" y="-137"/>
			<point x="308" y="729"/>
			<point x="302" y="740" type="qcurve"/>
			<point x="267" y="740"/>
			<point x="251" y="662"/>
			<point x="250" y="261" type="qcurve"/>
			<point x="267" y="241"/>
			<point x="251" y="-84" type="qcurve"/>
			<point x="250" y="-101"/>
		</contour>
	</outline>
</glyph>
<glyph name="uni01E4" format="2">
	<advance width="689"/>
	<unicode hex="01E4"/>
	<outline>
		<contour>
			<point x="397" y="-1" type="curve" smooth="yes"/>
			<point x="496" y="31"/>
			<point x="564" y="147"/>
			<point x="554" y="233" type="curve" smooth="yes"/>
			<point x="549" y="274"/>
			<point x="540" y="374"/>
			<point x="530" y="397" type="curve" smooth="yes"/>
			<point x="523" y="413"/>
			<point x="444" y="399"/>
			<point x="477" y="239" type="curve"/>
			<point x="501" y="158"/>
			<point x="394" y="38"/>
			<point x="312" y="45" type="curve" smooth="yes"/>
			<point x="184" y="58"/>
			<point x="90" y="245"/>
			<point x="161" y="364" type="curve" smooth="yes"/>
			<point x="230" y="482"/>
			<point x="273" y="559"/>
			<point x="492" y="590" type="curve" smooth="yes"/>
			<point x="531" y="596"/>
			<point x="551" y="606"/>
			<point x="534" y="641" type="curve" smooth="yes"/>
			<point x="514" y="680"/>
			<point x="464" y="661"/>
			<point x="423" y="652" type="curve" smooth="yes"/>
			<point x="348" y="636"/>
			<point x="281" y="606"/>
			<point x="224" y="560" type="curve" smooth="yes"/>
			<point x="150" y="500"/>
			<point x="94" y="430"/>
			<point x="75" y="326" type="curve" smooth="yes"/>
			<point x="59" y="230"/>
			<point x="80" y="114"/>
			<point x="151" y="53" type="curve" smooth="yes"/>
			<point x="219" y="-6"/>
			<point x="299" y="-31"/>
		</contour>
		<component base="endash" xScale="0.6825" yScale="0.9313" xOffset="215" yOffset="-56"/>
	</outline>
</glyph>
<glyph name="uni024B" format="2">
	<advance width="459"/>
	<unicode hex="024B"/>
	<outline>
		<contour>
			<point x="298" y="-146" type="curve" smooth="yes"/>
			<point x="320" y="-146"/>
			<point x="330" y="-136"/>
			<point x="330" y="-105" type="curve"/>
			<point x="353" y="89" type="line"/>
			<point x="353" y="130"/>
			<point x="358" y="174"/>
			<point x="359" y="215" type="curve" smooth="yes"/>
			<point x="360" y="238"/>
			<point x="364" y="261"/>
			<point x="364" y="283" type="curve" smooth="yes"/>
			<point x="364" y="301"/>
			<point x="361" y="318"/>
			<point x="353" y="335" type="curve" smooth="yes"/>
			<point x="349" y="343"/>
			<point x="346" y="351"/>
			<point x="346" y="359" type="curve" smooth="yes"/>
			<point x="346" y="366"/>
			<point x="349" y="373"/>
			<point x="357" y="381" type="curve" smooth="yes"/>
			<point x="363" y="387"/>
			<point x="366" y="393"/>
			<point x="366" y="400" type="curve" smooth="yes"/>
			<point x="366" y="408"/>
			<point x="363" y="416"/>
			<point x="360" y="424" type="curve" smooth="yes"/>
			<point x="346" y="472"/>
			<point x="287" y="500"/>
			<point x="237" y="500" type="curve" smooth="yes"/>
			<point x="229" y="500"/>
			<point x="223" y="499"/>
			<point x="216" y="498" type="curve" smooth="yes"/>
			<point x="137" y="483"/>
			<point x="71" y="444"/>
			<point x="26" y="376" type="curve" smooth="yes"/>
			<point x="19" y="366"/>
			<point x="15" y="353"/>
			<point x="15" y="340" type="curve" smooth="yes"/>
			<point x="15" y="323"/>
			<point x="21" y="307"/>
			<point x="32" y="297" type="curve" smooth="yes"/>
			<point x="59" y="274"/>
			<point x="88" y="259"/>
			<point x="126" y="259" type="curve" smooth="yes"/>
			<point x="179" y="259"/>
			<point x="224" y="283"/>
			<point x="270" y="299" type="curve" smooth="yes"/>
			<point x="278" y="302"/>
			<point x="283" y="303"/>
			<point x="287" y="303" type="curve" smooth="yes"/>
			<point x="294" y="303"/>
			<point x="296" y="299"/>
			<point x="296" y="288" type="curve" smooth="yes"/>
			<point x="296" y="284" type="line"/>
			<point x="288" y="163" type="line" smooth="yes"/>
			<point x="287" y="144"/>
			<point x="285" y="125"/>
			<point x="285" y="106" type="curve" smooth="yes"/>
			<point x="285" y="83"/>
			<point x="264" y="-7"/>
			<point x="264" y="-74" type="curve" smooth="yes"/>
			<point x="264" y="-114"/>
			<point x="272" y="-146"/>
		</contour>
		<contour>
			<point x="389" y="-217" type="qcurve"/>
			<point x="426" y="-196"/>
			<point x="432" y="-157"/>
			<point x="352" y="-152" type="qcurve"/>
			<point x="338" y="-150"/>
			<point x="327" y="-120"/>
			<point x="330" y="-105" type="qcurve"/>
			<point x="339" y="-35" type="line" smooth="yes"/>
			<point x="342" y="-13"/>
			<point x="293" y="18"/>
			<point x="275" y="0" type="qcurve"/>
			<point x="265" y="-13"/>
			<point x="267" y="-104"/>
			<point x="275" y="-136" type="qcurve"/>
			<point x="279" y="-151"/>
			<point x="305" y="-194"/>
			<point x="353" y="-221"/>
		</contour>
		<contour>
			<point x="115" y="315" type="curve"/>
			<point x="106" y="321"/>
			<point x="92" y="323"/>
			<point x="91" y="331" type="curve"/>
			<point x="88" y="337"/>
			<point x="93" y="350"/>
			<point x="100" y="357" type="curve" smooth="yes"/>
			<point x="131" y="393"/>
			<point x="170" y="422"/>
			<point x="218" y="436" type="curve" smooth="yes"/>
			<point x="226" y="438"/>
			<point x="233" y="439"/>
			<point x="240" y="439" type="curve" smooth="yes"/>
			<point x="268" y="439"/>
			<point x="288" y="422"/>
			<point x="288" y="396" type="curve" smooth="yes"/>
			<point x="288" y="389"/>
			<point x="285" y="380"/>
			<point x="282" y="377" type="curve"/>
			<point x="229" y="350"/>
			<point x="178" y="318"/>
		</contour>
	</outline>
</glyph>
<glyph name="uni0257" format="2">
	<advance width="600"/>
	<unicode hex="0257"/>
	<outline>
		<contour>
			<point x="406" y="593" type="line"/>
			<point x="408" y="608"/>
			<point x="437" y="665"/>
			<point x="451" y="663" type="qcurve"/>
			<point x="530" y="646"/>
			<point x="535" y="688"/>
			<point x="505" y="718" type="qcurve"/>
			<point x="492" y="723"/>
			<point x="439" y="718" type="qcurve"/>
			<point x="394" y="701"/>
			<point x="367" y="669"/>
			<point x="359" y="655" type="qcurve"/>
			<point x="342" y="626"/>
			<point x="337" y="579"/>
			<point x="342" y="563" type="qcurve"/>
			<point x="354" y="540"/>
			<point x="410" y="525"/>
			<point x="409" y="546" type="qcurve"/>
		</contour>
		<component base="uniF022"/>
	</outline>
</glyph>
<glyph name="uni02BB" format="2">
	<advance width="194"/>
	<unicode hex="02BB"/>
	<outline>
		<contour>
			<point x="88" y="452" type="qcurve"/>
			<point x="129" y="463"/>
			<point x="124" y="489" type="qcurve"/>
			<point x="105" y="586"/>
			<point x="128" y="638" type="qcurve"/>
			<point x="139" y="661"/>
			<point x="143" y="701"/>
			<point x="145" y="728"/>
			<point x="144" y="738" type="qcurve"/>
			<point x="142" y="748"/>
			<point x="121" y="760"/>
			<point x="108" y="755" type="qcurve"/>
			<point x="105" y="755"/>
			<point x="63" y="703"/>
			<point x="60" y="669" type="qcurve"/>
			<point x="51" y="572" type="line"/>
			<point x="43" y="483"/>
		</contour>
	</outline>
</glyph>
<glyph name="ogonek" format="2">
	<advance width="500"/>
	<unicode hex="02DB"/>
	<note>
		ogonek
	</note>
	<outline>
		<contour>
			<point x="257" y="-213" type="qcurve"/>
			<point x="273" y="-214"/>
			<point x="323" y="-207" type="qcurve"/>
			<point x="329" y="-206"/>
			<point x="340" y="-201"/>
			<point x="349" y="-197"/>
			<point x="349" y="-188" type="qcurve"/>
			<point x="349" y="-174"/>
			<point x="323" y="-162"/>
			<point x="309" y="-161"/>
			<point x="292" y="-161"/>
			<point x="287" y="-160" type="qcurve"/>
			<point x="265" y="-156"/>
			<point x="241" y="-123"/>
			<point x="241" y="-88"/>
			<point x="247" y="-76" type="qcurve"/>
			<point x="258" y="-50"/>
			<point x="297" y="25"/>
			<point x="294" y="42" type="qcurve"/>
			<point x="292" y="55"/>
			<point x="256" y="29" type="qcurve"/>
			<point x="236" y="17"/>
			<point x="202" y="-45" type="qcurve"/>
			<point x="192" y="-74"/>
			<point x="189" y="-114" type="qcurve"/>
			<point x="186" y="-155"/>
			<point x="229" y="-208"/>
		</contour>
	</outline>
</glyph>
<glyph name="gravecomb" format="2">
	<advance width="0"/>
	<unicode hex="0300"/>
	<outline>
		<contour>
			<point x="273" y="683" type="qcurve"/>
			<point x="287" y="687"/>
			<point x="306" y="702"/>
			<point x="294" y="732" type="qcurve"/>
			<point x="286" y="744"/>
			<point x="208" y="799"/>
			<point x="100" y="856" type="qcurve"/>
			<point x="92" y="860"/>
			<point x="64" y="865"/>
			<point x="58" y="861" type="qcurve"/>
			<point x="48" y="850"/>
			<point x="52" y="856"/>
			<point x="52" y="844" type="qcurve"/>
			<point x="55" y="832"/>
			<point x="72" y="804"/>
			<point x="84" y="795" type="qcurve"/>
			<point x="115" y="772"/>
			<point x="201" y="712" type="qcurve"/>
			<point x="230" y="692" type="line" smooth="yes"/>
			<point x="250" y="678"/>
		</contour>
	</outline>
</glyph>
<glyph name="tildecomb" format="2">
	<advance width="0"/>
	<unicode hex="0303"/>
	<outline>
		<contour>
			<point x="362" y="702" type="qcurve"/>
			<point x="399" y="709"/>
			<point x="461" y="752"/>
			<point x="455" y="787" type="qcurve"/>
			<point x="436" y="809"/>
			<point x="420" y="806" type="qcurve"/>
			<point x="413" y="805"/>
			<point x="394" y="788"/>
			<point x="389" y="785" type="qcurve"/>
			<point x="386" y="783"/>
			<point x="351" y="761"/>
			<point x="334" y="758" type="qcurve"/>
			<point x="314" y="755"/>
			<point x="279" y="771"/>
			<point x="237" y="799"/>
			<point x="233" y="802" type="qcurve"/>
			<point x="205" y="819"/>
			<point x="153" y="810"/>
			<point x="129" y="777" type="qcurve"/>
			<point x="110" y="751"/>
			<point x="109" y="694"/>
			<point x="121" y="697" type="qcurve"/>
			<point x="133" y="699"/>
			<point x="188" y="744"/>
			<point x="199" y="747" type="qcurve"/>
			<point x="218" y="749"/>
			<point x="252" y="736"/>
			<point x="275" y="722" type="qcurve"/>
			<point x="288" y="715"/>
			<point x="312" y="704"/>
			<point x="322" y="702" type="qcurve"/>
			<point x="340" y="699"/>
		</contour>
	</outline>
</glyph>
<glyph name="uni030A" format="2">
	<advance width="0"/>
	<unicode hex="030A"/>
	<outline>
		<contour>
			<point x="287" y="492" type="qcurve"/>
			<point x="313" y="492"/>
			<point x="334" y="506" type="qcurve"/>
			<point x="365" y="525"/>
			<point x="391" y="563" type="qcurve"/>
			<point x="413" y="597"/>
			<point x="413" y="628" type="qcurve"/>
			<point x="413" y="658"/>
			<point x="393" y="681" type="qcurve"/>
			<point x="352" y="719"/>
			<point x="292" y="719" type="qcurve"/>
			<point x="279" y="719"/>
			<point x="255" y="716" type="qcurve"/>
			<point x="227" y="709"/>
			<point x="190" y="689"/>
			<point x="185" y="666" type="qcurve"/>
			<point x="179" y="651"/>
			<point x="178" y="632" type="qcurve"/>
			<point x="174" y="613" type="line"/>
			<point x="204" y="522"/>
			<point x="257" y="492"/>
		</contour>
		<contour>
			<point x="274" y="544" type="qcurve"/>
			<point x="266" y="544"/>
			<point x="255" y="570" type="qcurve"/>
			<point x="254" y="575"/>
			<point x="254" y="589" type="qcurve"/>
			<point x="254" y="598" type="line"/>
			<point x="249" y="601" type="line"/>
			<point x="253" y="613"/>
			<point x="255" y="621" type="qcurve"/>
			<point x="266" y="655"/>
			<point x="279" y="686" type="qcurve"/>
			<point x="279" y="688"/>
			<point x="287" y="689"/>
			<point x="292" y="689" type="qcurve"/>
			<point x="298" y="689"/>
			<point x="299" y="689" type="qcurve"/>
			<point x="319" y="684"/>
			<point x="344" y="650"/>
			<point x="344" y="629" type="qcurve"/>
			<point x="344" y="606"/>
			<point x="329" y="589" type="qcurve"/>
			<point x="323" y="585"/>
			<point x="306" y="563"/>
			<point x="299" y="556" type="qcurve"/>
			<point x="292" y="549"/>
			<point x="280" y="544"/>
		</contour>
	</outline>
</glyph>
<glyph name="uni0312" format="2">
	<advance width="0"/>
	<unicode hex="0312"/>
	<outline>
		<contour>
			<point x="98" y="573" type="qcurve"/>
			<point x="133" y="577"/>
			<point x="137" y="602" type="qcurve"/>
			<point x="141" y="626"/>
			<point x="161" y="673" type="qcurve"/>
			<point x="163" y="678"/>
			<point x="183" y="730"/>
			<point x="186" y="753" type="qcurve"/>
			<point x="185" y="762"/>
			<point x="185" y="765" type="qcurve"/>
			<point x="183" y="776"/>
			<point x="166" y="789"/>
			<point x="154" y="786" type="qcurve"/>
			<point x="151" y="786"/>
			<point x="144" y="784" type="qcurve"/>
			<point x="135" y="779"/>
			<point x="121" y="771"/>
			<point x="118" y="761" type="qcurve"/>
			<point x="114" y="746"/>
			<point x="97" y="718" type="qcurve"/>
			<point x="86" y="698" type="line"/>
			<point x="86" y="694"/>
			<point x="71" y="680"/>
			<point x="70" y="675" type="qcurve"/>
			<point x="40" y="574"/>
		</contour>
	</outline>
</glyph>
<glyph name="Kappa" format="2">
	<advance width="600"/>
	<unicode hex="039A"/>
	<outline>
		<contour>
			<point x="216" y="282" type="curve"/>
			<point x="179" y="258"/>
			<point x="128" y="228"/>
			<point x="131" y="147" type="curve" smooth="yes"/>
			<point x="134" y="99"/>
			<point x="142" y="36"/>
			<point x="63" y="2" type="curve"/>
			<point x="57" y="37"/>
			<point x="48" y="67"/>
			<point x="50" y="96" type="curve" smooth="yes"/>
			<point x="56" y="243"/>
			<point x="68" y="390"/>
			<point x="76" y="537" type="curve" smooth="yes"/>
			<point x="77" y="576"/>
			<point x="64" y="615"/>
			<point x="62" y="654" type="curve" smooth="yes"/>
			<point x="62" y="671"/>
			<point x="74" y="688"/>
			<point x="79" y="705" type="curve"/>
			<point x="99" y="693"/>
			<point x="132" y="682"/>
			<point x="135" y="667" type="curve" smooth="yes"/>
			<point x="147" y="596"/>
			<point x="152" y="523"/>
			<point x="158" y="452" type="curve" smooth="yes"/>
			<point x="161" y="422"/>
			<point x="159" y="391"/>
			<point x="160" y="363" type="curve"/>
			<point x="241" y="420"/>
			<point x="319" y="476"/>
			<point x="397" y="531" type="curve" smooth="yes"/>
			<point x="430" y="553"/>
			<point x="465" y="575"/>
			<point x="502" y="589" type="curve" smooth="yes"/>
			<point x="520" y="595"/>
			<point x="544" y="583"/>
			<point x="565" y="579" type="curve"/>
			<point x="558" y="559"/>
			<point x="557" y="530"/>
			<point x="543" y="520" type="curve" smooth="yes"/>
			<point x="483" y="475"/>
			<point x="421" y="435"/>
			<point x="360" y="395" type="curve" smooth="yes"/>
			<point x="296" y="352"/>
			<point x="291" y="335"/>
			<point x="343" y="278" type="curve" smooth="yes"/>
			<point x="453" y="161"/>
			<point x="426" y="159"/>
			<point x="570" y="85" type="curve" smooth="yes"/>
			<point x="620" y="60"/>
			<point x="573" y="5"/>
			<point x="529" y="33" type="curve" smooth="yes"/>
			<point x="477" y="63"/>
			<point x="414" y="107"/>
			<point x="333" y="172" type="curve" smooth="yes"/>
			<point x="293" y="205"/>
			<point x="257" y="243"/>
		</contour>
	</outline>
</glyph>
<glyph name="uni03A9" format="2">
	<advance width="839"/>
	<unicode hex="03A9"/>
	<outline>
		<contour>
			<point x="432" y="16" type="curve"/>
			<point x="474" y="-13"/>
			<point x="528" y="-9"/>
			<point x="616" y="-3" type="curve" smooth="yes"/>
			<point x="663" y="0"/>
			<point x="755" y="3"/>
			<point x="769" y="38" type="curve"/>
			<point x="769" y="87"/>
			<point x="605" y="59"/>
			<point x="529" y="84" type="curve"/>
			<point x="586" y="138"/>
			<point x="624" y="178"/>
			<point x="676" y="240" type="curve" smooth="yes"/>
			<point x="723" y="297"/>
			<point x="765" y="361"/>
			<point x="762" y="443" type="curve" smooth="yes"/>
			<point x="759" y="555"/>
			<point x="696" y="626"/>
			<point x="602" y="673" type="curve" smooth="yes"/>
			<point x="494" y="726"/>
			<point x="341" y="712"/>
			<point x="240" y="657" type="curve" smooth="yes"/>
			<point x="147" y="606"/>
			<point x="118" y="506"/>
			<point x="107" y="413" type="curve" smooth="yes"/>
			<point x="92" y="273"/>
			<point x="121" y="153"/>
			<point x="259" y="74" type="curve"/>
			<point x="97" y="62" type="line" smooth="yes"/>
			<point x="37" y="58"/>
			<point x="88" y="-21"/>
			<point x="131" y="-17" type="curve" smooth="yes"/>
			<point x="179" y="-13"/>
			<point x="352" y="-16"/>
			<point x="352" y="19" type="curve" smooth="yes"/>
			<point x="352" y="80" type="line" smooth="yes"/>
			<point x="352" y="115"/>
			<point x="219" y="144"/>
			<point x="200" y="226" type="curve" smooth="yes"/>
			<point x="185" y="287"/>
			<point x="173" y="353"/>
			<point x="182" y="408" type="curve" smooth="yes"/>
			<point x="193" y="466"/>
			<point x="233" y="520"/>
			<point x="263" y="563" type="curve" smooth="yes"/>
			<point x="316" y="639"/>
			<point x="490" y="652"/>
			<point x="544" y="629" type="curve" smooth="yes"/>
			<point x="668" y="576"/>
			<point x="719" y="500"/>
			<point x="688" y="397" type="curve" smooth="yes"/>
			<point x="661" y="308"/>
			<point x="607" y="240"/>
			<point x="537" y="174" type="curve" smooth="yes"/>
			<point x="514" y="152"/>
			<point x="464" y="89"/>
			<point x="432" y="87" type="curve" smooth="yes"/>
			<point x="402" y="85"/>
			<point x="413" y="27"/>
		</contour>
	</outline>
</glyph>
<glyph name="epsilon" format="2">
	<advance width="574"/>
	<unicode hex="03B5"/>
	<outline>
		<contour>
			<point x="242" y="71" type="curve"/>
			<point x="286" y="81"/>
			<point x="346" y="77"/>
			<point x="395" y="80" type="curve" smooth="yes"/>
			<point x="410" y="88"/>
			<point x="455" y="29"/>
			<point x="411" y="17" type="curve" smooth="yes"/>
			<point x="356" y="-19"/>
			<point x="194" y="-4"/>
			<point x="134" y="34" type="curve" smooth="yes"/>
			<point x="42" y="94"/>
			<point x="45" y="205"/>
			<point x="95" y="276" type="curve" smooth="yes"/>
			<point x="114" y="307"/>
			<point x="124" y="328"/>
			<point x="93" y="361" type="curve" smooth="yes"/>
			<point x="78" y="375"/>
			<point x="72" y="409"/>
			<point x="81" y="425" type="curve" smooth="yes"/>
			<point x="107" y="494"/>
			<point x="219" y="605"/>
			<point x="317" y="606" type="curve" smooth="yes"/>
			<point x="336" y="609"/>
			<point x="360" y="610"/>
			<point x="377" y="601" type="curve" smooth="yes"/>
			<point x="389" y="599"/>
			<point x="397" y="581"/>
			<point x="401" y="570" type="curve" smooth="yes"/>
			<point x="399" y="559"/>
			<point x="379" y="551"/>
			<point x="367" y="547" type="curve" smooth="yes"/>
			<point x="341" y="540"/>
			<point x="304" y="540"/>
			<point x="278" y="527" type="curve" smooth="yes"/>
			<point x="237" y="506"/>
			<point x="207" y="494"/>
			<point x="170" y="439" type="curve" smooth="yes"/>
			<point x="149" y="408"/>
			<point x="158" y="371"/>
			<point x="194" y="381" type="curve" smooth="yes"/>
			<point x="223" y="389"/>
			<point x="259" y="401"/>
			<point x="296" y="401" type="curve" smooth="yes"/>
			<point x="315" y="404"/>
			<point x="336" y="385"/>
			<point x="345" y="371" type="curve" smooth="yes"/>
			<point x="372" y="329"/>
			<point x="309" y="313"/>
			<point x="242" y="309" type="curve" smooth="yes"/>
			<point x="181" y="308"/>
			<point x="126" y="215"/>
			<point x="132" y="146" type="curve" smooth="yes"/>
			<point x="134" y="95"/>
			<point x="172" y="88"/>
		</contour>
	</outline>
</glyph>
<glyph name="zeta" format="2">
	<advance width="577"/>
	<unicode hex="03B6"/>
	<outline>
		<contour>
			<point x="403" y="-251" type="curve" smooth="yes"/>
			<point x="421" y="-265"/>
			<point x="465" y="-229"/>
			<point x="475" y="-183" type="curve" smooth="yes"/>
			<point x="476" y="-177"/>
			<point x="477" y="-171"/>
			<point x="477" y="-166" type="curve" smooth="yes"/>
			<point x="477" y="-129"/>
			<point x="454" y="-80"/>
			<point x="415" y="-62" type="curve" smooth="yes"/>
			<point x="314" y="-16"/>
			<point x="229" y="8"/>
			<point x="222" y="99" type="curve" smooth="yes"/>
			<point x="219" y="143"/>
			<point x="218" y="169"/>
			<point x="230" y="218" type="curve"/>
			<point x="282" y="341"/>
			<point x="354" y="404"/>
			<point x="444" y="507" type="curve" smooth="yes"/>
			<point x="476" y="544"/>
			<point x="471" y="548"/>
			<point x="507" y="583" type="curve" smooth="yes"/>
			<point x="521" y="597"/>
			<point x="535" y="625"/>
			<point x="547" y="643" type="curve"/>
			<point x="525" y="650"/>
			<point x="424" y="654"/>
			<point x="362" y="659" type="curve" smooth="yes"/>
			<point x="283" y="665"/>
			<point x="137" y="669"/>
			<point x="67" y="672" type="curve" smooth="yes"/>
			<point x="28" y="674"/>
			<point x="12" y="614"/>
			<point x="61" y="607" type="curve" smooth="yes"/>
			<point x="117" y="597"/>
			<point x="206" y="594"/>
			<point x="264" y="594" type="curve" smooth="yes"/>
			<point x="339" y="594" type="line" smooth="yes"/>
			<point x="372" y="594"/>
			<point x="404" y="590"/>
			<point x="429" y="588" type="curve"/>
			<point x="421" y="578"/>
			<point x="418" y="573"/>
			<point x="414" y="568" type="curve" smooth="yes"/>
			<point x="322" y="460"/>
			<point x="275" y="440"/>
			<point x="207" y="313" type="curve" smooth="yes"/>
			<point x="178" y="259"/>
			<point x="169" y="233"/>
			<point x="162" y="205" type="curve" smooth="yes"/>
			<point x="155" y="177"/>
			<point x="152" y="161"/>
			<point x="157" y="116" type="curve" smooth="yes"/>
			<point x="173" y="-30"/>
			<point x="320" y="-92"/>
			<point x="384" y="-115" type="curve"/>
			<point x="415" y="-131"/>
			<point x="422" y="-154"/>
			<point x="413" y="-184" type="curve" smooth="yes"/>
			<point x="399" y="-239"/>
			<point x="368" y="-223"/>
		</contour>
	</outline>
</glyph>
<glyph name="uni03BC" format="2">
	<advance width="663"/>
	<unicode hex="03BC"/>
	<outline>
		<contour>
			<point x="68" y="-138" type="curve" smooth="yes"/>
			<point x="84" y="-150"/>
			<point x="104" y="-143"/>
			<point x="112" y="-125" type="curve" smooth="yes"/>
			<point x="126" y="-95"/>
			<point x="122" y="-80"/>
			<point x="120" y="-41" type="curve" smooth="yes"/>
			<point x="118" y="-8"/>
			<point x="128" y="167"/>
			<point x="129" y="200" type="curve" smooth="yes"/>
			<point x="130" y="258" type="line"/>
			<point x="138" y="243"/>
			<point x="156" y="200"/>
			<point x="176" y="181" type="curve" smooth="yes"/>
			<point x="244" y="116"/>
			<point x="303" y="163"/>
			<point x="333" y="188" type="curve" smooth="yes"/>
			<point x="355" y="206"/>
			<point x="370" y="231"/>
			<point x="387" y="257" type="curve"/>
			<point x="402" y="212"/>
			<point x="414" y="179"/>
			<point x="451" y="155" type="curve" smooth="yes"/>
			<point x="485" y="130"/>
			<point x="535" y="113"/>
			<point x="584" y="124" type="curve" smooth="yes"/>
			<point x="603" y="128"/>
			<point x="610" y="142"/>
			<point x="607" y="159" type="curve" smooth="yes"/>
			<point x="603" y="179"/>
			<point x="588" y="181"/>
			<point x="570" y="179" type="curve" smooth="yes"/>
			<point x="554" y="177"/>
			<point x="528" y="182"/>
			<point x="513" y="188" type="curve" smooth="yes"/>
			<point x="451" y="210"/>
			<point x="436" y="295"/>
			<point x="444" y="360" type="curve" smooth="yes"/>
			<point x="467" y="541"/>
			<point x="419" y="632"/>
			<point x="382" y="546" type="curve" smooth="yes"/>
			<point x="370" y="518"/>
			<point x="382" y="337"/>
			<point x="374" y="323" type="curve" smooth="yes"/>
			<point x="348" y="280"/>
			<point x="313" y="237"/>
			<point x="283" y="224" type="curve" smooth="yes"/>
			<point x="254" y="211"/>
			<point x="225" y="211"/>
			<point x="210" y="237" type="curve" smooth="yes"/>
			<point x="196" y="260"/>
			<point x="185" y="288"/>
			<point x="180" y="315" type="curve" smooth="yes"/>
			<point x="172" y="359"/>
			<point x="177" y="490"/>
			<point x="172" y="535" type="curve"/>
			<point x="171" y="581"/>
			<point x="146" y="601"/>
			<point x="118" y="585" type="curve" smooth="yes"/>
			<point x="94" y="573"/>
			<point x="77" y="549"/>
			<point x="82" y="517" type="curve" smooth="yes"/>
			<point x="84" y="500"/>
			<point x="75" y="378"/>
			<point x="74" y="378" type="curve"/>
			<point x="66" y="267"/>
			<point x="58" y="11"/>
			<point x="52" y="-101" type="curve" smooth="yes"/>
			<point x="51" y="-114"/>
			<point x="58" y="-132"/>
		</contour>
	</outline>
</glyph>
<glyph name="rho" format="2">
	<advance width="532"/>
	<unicode hex="03C1"/>
	<outline>
		<contour>
			<point x="125" y="118" type="curve"/>
			<point x="123" y="95"/>
			<point x="119" y="71"/>
			<point x="119" y="50" type="curve"/>
			<point x="118" y="-21"/>
			<point x="118" y="-92"/>
			<point x="119" y="-163" type="curve"/>
			<point x="92" y="-226"/>
			<point x="44" y="-164"/>
			<point x="51" y="39" type="curve"/>
			<point x="53" y="104"/>
			<point x="57" y="218"/>
			<point x="57" y="283" type="curve"/>
			<point x="57" y="331"/>
			<point x="68" y="347"/>
			<point x="119" y="355" type="curve"/>
			<point x="156" y="425"/>
			<point x="192" y="444"/>
			<point x="271" y="422" type="curve"/>
			<point x="342" y="404"/>
			<point x="401" y="366"/>
			<point x="444" y="302" type="curve"/>
			<point x="492" y="243"/>
			<point x="498" y="129"/>
			<point x="488" y="61" type="curve"/>
			<point x="481" y="12"/>
			<point x="452" y="-19"/>
			<point x="402" y="-30" type="curve"/>
			<point x="342" y="-39"/>
			<point x="292" y="-22"/>
			<point x="245" y="8" type="curve"/>
			<point x="202" y="39"/>
			<point x="173" y="77"/>
		</contour>
		<contour>
			<point x="146" y="272" type="curve"/>
			<point x="146" y="178"/>
			<point x="229" y="102"/>
			<point x="291" y="62" type="curve" smooth="yes"/>
			<point x="316" y="44"/>
			<point x="346" y="34"/>
			<point x="377" y="39" type="curve" smooth="yes"/>
			<point x="410" y="44"/>
			<point x="423" y="55"/>
			<point x="426" y="86" type="curve" smooth="yes"/>
			<point x="430" y="138"/>
			<point x="411" y="234"/>
			<point x="376" y="274" type="curve" smooth="yes"/>
			<point x="340" y="314"/>
			<point x="295" y="342"/>
			<point x="244" y="356" type="curve" smooth="yes"/>
			<point x="206" y="370"/>
			<point x="189" y="357"/>
			<point x="184" y="317" type="curve" smooth="yes"/>
			<point x="180" y="288"/>
			<point x="180" y="288"/>
		</contour>
	</outline>
</glyph>
<glyph name="chi" format="2">
	<advance width="497"/>
	<unicode hex="03C7"/>
	<anchor x="1183" y="0" name="caret_1"/>
	<outline>
		<contour>
			<point x="97" y="38" type="curve"/>
			<point x="128" y="77" type="line"/>
			<point x="142" y="113"/>
			<point x="169" y="148"/>
			<point x="210" y="178" type="curve"/>
			<point x="216" y="168"/>
			<point x="221" y="158"/>
			<point x="228" y="149" type="curve" smooth="yes"/>
			<point x="250" y="121"/>
			<point x="272" y="92"/>
			<point x="295" y="67" type="curve" smooth="yes"/>
			<point x="323" y="36"/>
			<point x="363" y="7"/>
			<point x="406" y="1" type="curve" smooth="yes"/>
			<point x="416" y="0"/>
			<point x="487" y="7"/>
			<point x="476" y="46" type="curve" smooth="yes"/>
			<point x="472" y="57"/>
			<point x="437" y="56"/>
			<point x="417" y="59" type="curve" smooth="yes"/>
			<point x="384" y="69"/>
			<point x="355" y="93"/>
			<point x="336" y="118" type="curve" smooth="yes"/>
			<point x="316" y="143"/>
			<point x="297" y="169"/>
			<point x="278" y="195" type="curve" smooth="yes"/>
			<point x="253" y="226"/>
			<point x="253" y="233"/>
			<point x="281" y="260" type="curve" smooth="yes"/>
			<point x="292" y="272"/>
			<point x="417" y="380"/>
			<point x="409" y="387" type="curve" smooth="yes"/>
			<point x="377" y="413" type="line" smooth="yes"/>
			<point x="355" y="433"/>
			<point x="270" y="331"/>
			<point x="215" y="288" type="curve"/>
			<point x="206" y="310"/>
			<point x="199" y="324"/>
			<point x="193" y="338" type="curve" smooth="yes"/>
			<point x="181" y="366"/>
			<point x="124" y="445"/>
			<point x="97" y="457" type="curve" smooth="yes"/>
			<point x="43" y="483"/>
			<point x="-46" y="442"/>
			<point x="70" y="403" type="curve"/>
			<point x="108" y="389"/>
			<point x="152" y="293"/>
			<point x="173" y="250" type="curve" smooth="yes"/>
			<point x="176" y="244"/>
			<point x="166" y="231"/>
			<point x="147" y="210" type="curve" smooth="yes"/>
			<point x="131" y="193"/>
			<point x="117" y="173"/>
			<point x="103" y="153" type="curve" smooth="yes"/>
			<point x="78" y="117"/>
			<point x="56" y="80"/>
		</contour>
	</outline>
</glyph>
<glyph name="psi" format="2">
	<advance width="600"/>
	<unicode hex="03C8"/>
	<outline>
		<contour>
			<point x="335" y="-146" type="curve" smooth="yes"/>
			<point x="348" y="-144"/>
			<point x="350" y="-132"/>
			<point x="347" y="-121" type="curve" smooth="yes"/>
			<point x="344" y="-91"/>
			<point x="341" y="-60"/>
			<point x="337" y="-29" type="curve"/>
			<point x="334" y="-29" type="line"/>
			<point x="332" y="87"/>
			<point x="327" y="204"/>
			<point x="325" y="321" type="curve" smooth="yes"/>
			<point x="325" y="372"/>
			<point x="327" y="424"/>
			<point x="329" y="475" type="curve" smooth="yes"/>
			<point x="330" y="480"/>
			<point x="329" y="483"/>
			<point x="329" y="487" type="curve" smooth="yes"/>
			<point x="327" y="503"/>
			<point x="320" y="519"/>
			<point x="304" y="529" type="curve" smooth="yes"/>
			<point x="299" y="536"/>
			<point x="290" y="538"/>
			<point x="283" y="537" type="curve" smooth="yes"/>
			<point x="273" y="537"/>
			<point x="265" y="529"/>
			<point x="263" y="516" type="curve" smooth="yes"/>
			<point x="261" y="502"/>
			<point x="261" y="489"/>
			<point x="261" y="475" type="curve" smooth="yes"/>
			<point x="261" y="416"/>
			<point x="262" y="359"/>
			<point x="264" y="301" type="curve" smooth="yes"/>
			<point x="267" y="212"/>
			<point x="271" y="124"/>
			<point x="275" y="36" type="curve" smooth="yes"/>
			<point x="276" y="-8"/>
			<point x="281" y="-51"/>
			<point x="283" y="-95" type="curve" smooth="yes"/>
			<point x="283" y="-112"/>
			<point x="286" y="-132"/>
			<point x="304" y="-142" type="curve" smooth="yes"/>
			<point x="312" y="-147"/>
			<point x="325" y="-148"/>
		</contour>
		<contour>
			<point x="437" y="62" type="curve" smooth="yes"/>
			<point x="514" y="106"/>
			<point x="530" y="187"/>
			<point x="543" y="272" type="curve" smooth="yes"/>
			<point x="547" y="296"/>
			<point x="548" y="384"/>
			<point x="533" y="404" type="curve" smooth="yes"/>
			<point x="521" y="420"/>
			<point x="509" y="433"/>
			<point x="487" y="407" type="curve"/>
			<point x="470" y="404"/>
			<point x="470" y="289"/>
			<point x="469" y="277" type="curve" smooth="yes"/>
			<point x="460" y="117"/>
			<point x="399" y="103"/>
			<point x="309" y="68" type="curve" smooth="yes"/>
			<point x="298" y="64"/>
			<point x="261" y="58"/>
			<point x="250" y="58" type="curve" smooth="yes"/>
			<point x="237" y="58"/>
			<point x="189" y="65"/>
			<point x="177" y="78" type="curve" smooth="yes"/>
			<point x="161" y="93"/>
			<point x="145" y="104"/>
			<point x="138" y="123" type="curve" smooth="yes"/>
			<point x="121" y="163"/>
			<point x="111" y="252"/>
			<point x="111" y="293" type="curve" smooth="yes"/>
			<point x="111" y="352"/>
			<point x="132" y="420"/>
			<point x="94" y="433" type="curve" smooth="yes"/>
			<point x="68" y="442"/>
			<point x="61" y="413"/>
			<point x="53" y="389" type="curve" smooth="yes"/>
			<point x="43" y="364"/>
			<point x="40" y="338"/>
			<point x="40" y="313" type="curve" smooth="yes"/>
			<point x="40" y="252"/>
			<point x="57" y="113"/>
			<point x="102" y="63" type="curve" smooth="yes"/>
			<point x="135" y="23"/>
			<point x="189" y="0"/>
			<point x="247" y="0" type="curve" smooth="yes"/>
			<point x="311" y="0"/>
			<point x="370" y="28"/>
		</contour>
	</outline>
</glyph>
<glyph name="uni03D7" format="2">
	<advance width="717"/>
	<unicode hex="03D7"/>
	<outline>
		<contour>
			<point x="179" y="22" type="curve"/>
			<point x="123" y="60"/>
			<point x="192" y="174"/>
			<point x="232" y="215" type="curve"/>
			<point x="252" y="109"/>
			<point x="232" y="40"/>
		</contour>
		<contour>
			<point x="608" y="530" type="curve"/>
			<point x="609" y="497"/>
			<point x="532" y="443"/>
			<point x="475" y="443" type="curve"/>
			<point x="480" y="460"/>
			<point x="518" y="536"/>
		</contour>
		<contour>
			<point x="494" y="400" type="curve"/>
			<point x="550" y="410"/>
			<point x="616" y="446"/>
			<point x="651" y="492" type="curve"/>
			<point x="664" y="511"/>
			<point x="673" y="533"/>
			<point x="662" y="554" type="curve"/>
			<point x="651" y="573"/>
			<point x="613" y="583"/>
			<point x="594" y="579" type="curve"/>
			<point x="509" y="588"/>
			<point x="456" y="524"/>
			<point x="446" y="476" type="curve"/>
			<point x="438" y="457"/>
			<point x="428" y="437"/>
			<point x="424" y="431" type="curve"/>
			<point x="379" y="414"/>
			<point x="316" y="378"/>
			<point x="264" y="336" type="curve"/>
			<point x="238" y="454"/>
			<point x="213" y="503"/>
			<point x="178" y="531" type="curve"/>
			<point x="154" y="551"/>
			<point x="123" y="564"/>
			<point x="92" y="573" type="curve"/>
			<point x="82" y="578"/>
			<point x="65" y="564"/>
			<point x="50" y="557" type="curve"/>
			<point x="60" y="547"/>
			<point x="66" y="531"/>
			<point x="77" y="526" type="curve"/>
			<point x="137" y="502"/>
			<point x="190" y="451"/>
			<point x="203" y="308" type="curve"/>
			<point x="209" y="297"/>
			<point x="208" y="274"/>
			<point x="200" y="265" type="curve"/>
			<point x="130" y="192"/>
			<point x="106" y="133"/>
			<point x="106" y="66" type="curve"/>
			<point x="95" y="30"/>
			<point x="111" y="-8"/>
			<point x="147" y="-29" type="curve"/>
			<point x="178" y="-46"/>
			<point x="222" y="-26"/>
			<point x="249" y="13" type="curve"/>
			<point x="292" y="76"/>
			<point x="303" y="148"/>
			<point x="289" y="217" type="curve"/>
			<point x="278" y="281"/>
			<point x="285" y="285"/>
			<point x="356" y="327" type="curve"/>
			<point x="377" y="338"/>
			<point x="396" y="348"/>
			<point x="413" y="359" type="curve"/>
			<point x="410" y="293"/>
			<point x="416" y="188"/>
			<point x="431" y="112" type="curve"/>
			<point x="447" y="45"/>
			<point x="455" y="21"/>
			<point x="482" y="-12" type="curve"/>
			<point x="490" y="-18"/>
			<point x="524" y="-47"/>
			<point x="537" y="-47" type="curve"/>
			<point x="558" y="-52"/>
			<point x="618" y="-36"/>
			<point x="541" y="5" type="curve"/>
			<point x="497" y="17"/>
			<point x="489" y="113"/>
			<point x="482" y="162" type="curve"/>
			<point x="471" y="232"/>
			<point x="465" y="327"/>
			<point x="467" y="368" type="curve"/>
			<point x="470" y="391"/>
			<point x="472" y="393"/>
		</contour>
		<contour>
			<point x="503" y="-228" type="curve" smooth="yes"/>
			<point x="572" y="-202"/>
			<point x="610" y="-106"/>
			<point x="583" y="-32" type="curve" smooth="yes"/>
			<point x="566" y="13"/>
			<point x="519" y="-8"/>
			<point x="542" y="-55" type="curve" smooth="yes"/>
			<point x="559" y="-89"/>
			<point x="532" y="-160"/>
			<point x="506" y="-175" type="curve" smooth="yes"/>
			<point x="486" y="-187"/>
			<point x="472" y="-187"/>
			<point x="449" y="-181" type="curve" smooth="yes"/>
			<point x="418" y="-175"/>
			<point x="468" y="-240"/>
		</contour>
	</outline>
</glyph>
<glyph name="uni1E4A" format="2">
	<advance width="704"/>
	<unicode hex="1E4A"/>
	<outline>
		<contour>
			<point x="440" y="205" type="curve"/>
			<point x="466" y="218"/>
			<point x="471" y="231"/>
			<point x="474" y="245" type="curve" smooth="yes"/>
			<point x="492" y="337"/>
			<point x="508" y="429"/>
			<point x="527" y="520" type="curve" smooth="yes"/>
			<point x="538" y="573"/>
			<point x="554" y="625"/>
			<point x="569" y="676" type="curve" smooth="yes"/>
			<point x="573" y="689"/>
			<point x="583" y="700"/>
			<point x="590" y="711" type="curve"/>
			<point x="622" y="706"/>
			<point x="622" y="706"/>
			<point x="639" y="677" type="curve"/>
			<point x="638" y="670"/>
			<point x="639" y="661"/>
			<point x="636" y="656" type="curve" smooth="yes"/>
			<point x="608" y="612"/>
			<point x="597" y="564"/>
			<point x="589" y="514" type="curve" smooth="yes"/>
			<point x="573" y="407"/>
			<point x="557" y="301"/>
			<point x="539" y="195" type="curve" smooth="yes"/>
			<point x="533" y="163"/>
			<point x="523" y="132"/>
			<point x="516" y="102" type="curve"/>
			<point x="507" y="89"/>
			<point x="496" y="80"/>
			<point x="480" y="80" type="curve"/>
			<point x="473" y="82"/>
			<point x="466" y="83"/>
			<point x="460" y="87" type="curve" smooth="yes"/>
			<point x="414" y="121"/>
			<point x="376" y="165"/>
			<point x="342" y="211" type="curve" smooth="yes"/>
			<point x="301" y="266"/>
			<point x="260" y="321"/>
			<point x="218" y="375" type="curve" smooth="yes"/>
			<point x="212" y="383"/>
			<point x="203" y="391"/>
			<point x="189" y="383" type="curve"/>
			<point x="186" y="379"/>
			<point x="180" y="374"/>
			<point x="179" y="368" type="curve" smooth="yes"/>
			<point x="164" y="265"/>
			<point x="137" y="164"/>
			<point x="128" y="60" type="curve" smooth="yes"/>
			<point x="126" y="38"/>
			<point x="120" y="17"/>
			<point x="97" y="8" type="curve"/>
			<point x="71" y="6"/>
			<point x="58" y="22"/>
			<point x="50" y="42" type="curve"/>
			<point x="53" y="144"/>
			<point x="68" y="235"/>
			<point x="125" y="513" type="curve"/>
			<point x="131" y="519"/>
			<point x="138" y="528"/>
			<point x="146" y="534" type="curve" smooth="yes"/>
			<point x="152" y="539"/>
			<point x="159" y="540"/>
			<point x="167" y="544" type="curve"/>
			<point x="200" y="534" type="line"/>
			<point x="236" y="479"/>
			<point x="271" y="420"/>
			<point x="312" y="366" type="curve" smooth="yes"/>
			<point x="352" y="311"/>
			<point x="389" y="254"/>
		</contour>
		<component base="circumflex" xScale="0.926" yScale="0.926" xOffset="107" yOffset="-735"/>
	</outline>
</glyph>
<glyph name="uni1E70" format="2">
	<advance width="704"/>
	<unicode hex="1E70"/>
	<outline>
		<contour>
			<point x="420" y="35" type="curve"/>
			<point x="450" y="266"/>
			<point x="450" y="492"/>
			<point x="423" y="726" type="curve"/>
			<point x="507" y="741"/>
			<point x="584" y="756"/>
			<point x="664" y="773" type="curve"/>
			<point x="655" y="816"/>
			<point x="655" y="816"/>
			<point x="623" y="814" type="curve" smooth="yes"/>
			<point x="434" y="804"/>
			<point x="374" y="776"/>
			<point x="273" y="760" type="curve" smooth="yes"/>
			<point x="215" y="752"/>
			<point x="81" y="718"/>
			<point x="63" y="703" type="curve" smooth="yes"/>
			<point x="40" y="687"/>
			<point x="28" y="677"/>
			<point x="33" y="654" type="curve" smooth="yes"/>
			<point x="39" y="628"/>
			<point x="61" y="629"/>
			<point x="79" y="637" type="curve" smooth="yes"/>
			<point x="158" y="669" type="line"/>
			<point x="335" y="705" type="line"/>
			<point x="341" y="682"/>
			<point x="348" y="664"/>
			<point x="348" y="646" type="curve" smooth="yes"/>
			<point x="354" y="526"/>
			<point x="360" y="406"/>
			<point x="364" y="285" type="curve" smooth="yes"/>
			<point x="366" y="222"/>
			<point x="364" y="159"/>
			<point x="364" y="97" type="curve" smooth="yes"/>
			<point x="364" y="67"/>
			<point x="375" y="43"/>
		</contour>
		<component base="circumflex" xScale="0.926" yScale="0.926" xOffset="146" yOffset="-735"/>
	</outline>
</glyph>
<glyph name="uni1E9E" format="2">
	<advance width="600"/>
	<unicode hex="1E9E"/>
	<outline>
		<contour>
			<point x="60" y="-138" type="curve" smooth="yes"/>
			<point x="63" y="-191"/>
			<point x="115" y="-188"/>
			<point x="136" y="-136" type="curve" smooth="yes"/>
			<point x="139" y="-128"/>
			<point x="137" y="-117"/>
			<point x="136" y="-108" type="curve" smooth="yes"/>
			<point x="116" y="117"/>
			<point x="115" y="215"/>
			<point x="141" y="439" type="curve" smooth="yes"/>
			<point x="152" y="537"/>
			<point x="176" y="586"/>
			<point x="268" y="626" type="curve" smooth="yes"/>
			<point x="326" y="651"/>
			<point x="390" y="648"/>
			<point x="432" y="596" type="curve" smooth="yes"/>
			<point x="471" y="549"/>
			<point x="486" y="499"/>
			<point x="442" y="444" type="curve" smooth="yes"/>
			<point x="424" y="421"/>
			<point x="365" y="409"/>
			<point x="340" y="391" type="curve" smooth="yes"/>
			<point x="287" y="352"/>
			<point x="264" y="352"/>
			<point x="326" y="320" type="curve" smooth="yes"/>
			<point x="333" y="316"/>
			<point x="372" y="316"/>
			<point x="380" y="322" type="curve" smooth="yes"/>
			<point x="406" y="340"/>
			<point x="468" y="327"/>
			<point x="482" y="298" type="curve" smooth="yes"/>
			<point x="495" y="271"/>
			<point x="506" y="211"/>
			<point x="493" y="191" type="curve" smooth="yes"/>
			<point x="468" y="155"/>
			<point x="441" y="126"/>
			<point x="392" y="114" type="curve" smooth="yes"/>
			<point x="378" y="111"/>
			<point x="322" y="115"/>
			<point x="304" y="117" type="curve" smooth="yes"/>
			<point x="260" y="120"/>
			<point x="245" y="71"/>
			<point x="279" y="58" type="curve" smooth="yes"/>
			<point x="307" y="47"/>
			<point x="376" y="34"/>
			<point x="403" y="41" type="curve" smooth="yes"/>
			<point x="475" y="59"/>
			<point x="536" y="116"/>
			<point x="562" y="188" type="curve" smooth="yes"/>
			<point x="588" y="258"/>
			<point x="538" y="367"/>
			<point x="475" y="382" type="curve"/>
			<point x="477" y="377" type="line"/>
			<point x="521" y="419"/>
			<point x="541" y="473"/>
			<point x="543" y="519" type="curve" smooth="yes"/>
			<point x="547" y="626"/>
			<point x="412" y="728"/>
			<point x="300" y="708" type="curve" smooth="yes"/>
			<point x="175" y="686"/>
			<point x="74" y="600"/>
			<point x="66" y="441" type="curve" smooth="yes"/>
			<point x="58" y="308"/>
			<point x="50" y="174"/>
			<point x="48" y="41" type="curve" smooth="yes"/>
			<point x="46" y="-61"/>
			<point x="53" y="-36"/>
		</contour>
	</outline>
</glyph>
<glyph name="uni1EF4" format="2">
	<advance width="701"/>
	<unicode hex="1EF4"/>
	<outline>
		<contour>
			<point x="288" y="-183" type="qcurve"/>
			<point x="302" y="-177"/>
			<point x="342" y="-167"/>
			<point x="348" y="-164" type="qcurve"/>
			<point x="365" y="-153"/>
			<point x="354" y="-125" type="qcurve"/>
			<point x="353" y="-109"/>
			<point x="339" y="-98" type="qcurve"/>
			<point x="324" y="-88"/>
			<point x="310" y="-87" type="qcurve"/>
			<point x="286" y="-79"/>
			<point x="273" y="-87" type="qcurve"/>
			<point x="225" y="-119"/>
			<point x="274" y="-190"/>
		</contour>
		<contour>
			<point x="348" y="-30" type="curve"/>
			<point x="350" y="-4"/>
			<point x="349" y="23"/>
			<point x="357" y="48" type="curve" smooth="yes"/>
			<point x="386" y="137"/>
			<point x="412" y="227"/>
			<point x="450" y="311" type="curve" smooth="yes"/>
			<point x="517" y="460"/>
			<point x="590" y="606"/>
			<point x="663" y="752" type="curve" smooth="yes"/>
			<point x="676" y="778"/>
			<point x="674" y="792"/>
			<point x="652" y="808" type="curve"/>
			<point x="628" y="822"/>
			<point x="611" y="815"/>
			<point x="601" y="792" type="curve"/>
			<point x="556" y="707"/>
			<point x="509" y="622"/>
			<point x="471" y="534" type="curve" smooth="yes"/>
			<point x="452" y="491"/>
			<point x="428" y="494"/>
			<point x="399" y="511" type="curve" smooth="yes"/>
			<point x="288" y="575"/>
			<point x="184" y="647"/>
			<point x="105" y="750" type="curve" smooth="yes"/>
			<point x="96" y="762"/>
			<point x="79" y="769"/>
			<point x="64" y="774" type="curve" smooth="yes"/>
			<point x="55" y="777"/>
			<point x="38" y="772"/>
			<point x="34" y="765" type="curve" smooth="yes"/>
			<point x="29" y="757"/>
			<point x="29" y="737"/>
			<point x="36" y="730" type="curve" smooth="yes"/>
			<point x="65" y="695"/>
			<point x="94" y="657"/>
			<point x="128" y="629" type="curve" smooth="yes"/>
			<point x="218" y="553"/>
			<point x="311" y="482"/>
			<point x="431" y="446" type="curve"/>
			<point x="414" y="409"/>
			<point x="399" y="379"/>
			<point x="389" y="349" type="curve" smooth="yes"/>
			<point x="353" y="243"/>
			<point x="317" y="137"/>
			<point x="286" y="29" type="curve" smooth="yes"/>
			<point x="273" y="-13"/>
			<point x="299" y="-34"/>
		</contour>
	</outline>
</glyph>
<glyph name="endash" format="2">
	<advance width="770"/>
	<unicode hex="2013"/>
	<note>
		endash
	</note>
	<outline>
		<contour>
			<point x="519" y="271" type="curve"/>
			<point x="551" y="273"/>
			<point x="583" y="272"/>
			<point x="614" y="276" type="curve" smooth="yes"/>
			<point x="625" y="278"/>
			<point x="635" y="291"/>
			<point x="645" y="299" type="curve"/>
			<point x="635" y="311"/>
			<point x="627" y="328"/>
			<point x="613" y="335" type="curve" smooth="yes"/>
			<point x="602" y="340"/>
			<point x="585" y="334"/>
			<point x="571" y="333" type="curve" smooth="yes"/>
			<point x="457" y="324"/>
			<point x="193" y="338"/>
			<point x="174" y="335" type="curve" smooth="yes"/>
			<point x="165" y="333"/>
			<point x="153" y="317"/>
			<point x="153" y="308" type="curve" smooth="yes"/>
			<point x="153" y="299"/>
			<point x="166" y="286"/>
			<point x="176" y="283" type="curve" smooth="yes"/>
			<point x="192" y="278"/>
			<point x="418" y="258"/>
		</contour>
	</outline>
</glyph>
<glyph name="uni2016" format="2">
	<advance width="460"/>
	<unicode hex="2016"/>
	<outline>
		<contour>
			<point x="113" y="-164" type="qcurve"/>
			<point x="148" y="-269"/>
			<point x="185" y="-48" type="qcurve"/>
			<point x="172" y="157"/>
			<point x="173" y="663" type="qcurve"/>
			<point x="174" y="683"/>
			<point x="162" y="701" type="qcurve"/>
			<point x="152" y="715"/>
			<point x="130" y="717" type="qcurve"/>
			<point x="130" y="718"/>
			<point x="118" y="713" type="qcurve"/>
			<point x="79" y="713"/>
			<point x="108" y="-153"/>
		</contour>
		<contour>
			<point x="304" y="-164" type="qcurve"/>
			<point x="339" y="-164"/>
			<point x="359" y="-86"/>
			<point x="360" y="315" type="qcurve"/>
			<point x="361" y="335"/>
			<point x="370" y="660" type="qcurve"/>
			<point x="360" y="674"/>
			<point x="320" y="717" type="qcurve"/>
			<point x="320" y="718"/>
			<point x="308" y="713" type="qcurve"/>
			<point x="270" y="713"/>
			<point x="298" y="-153"/>
		</contour>
	</outline>
</glyph>
<glyph name="quotedblbase" format="2">
	<advance width="408"/>
	<unicode hex="201E"/>
	<note>
		quotedblbase
	</note>
	<outline>
		<contour>
			<point x="132" y="-157" type="curve" smooth="yes"/>
			<point x="150" y="-165"/>
			<point x="166" y="-160"/>
			<point x="177" y="-141" type="curve" smooth="yes"/>
			<point x="197" y="-112"/>
			<point x="206" y="-82"/>
			<point x="210" y="-48" type="curve"/>
			<point x="205" y="0"/>
			<point x="191" y="37"/>
			<point x="178" y="78" type="curve" smooth="yes"/>
			<point x="173" y="92"/>
			<point x="158" y="104"/>
			<point x="147" y="116" type="curve"/>
			<point x="132" y="127"/>
			<point x="110" y="124"/>
			<point x="99" y="111" type="curve" smooth="yes"/>
			<point x="86" y="98"/>
			<point x="91" y="86"/>
			<point x="100" y="71" type="curve" smooth="yes"/>
			<point x="111" y="55"/>
			<point x="122" y="36"/>
			<point x="127" y="16" type="curve" smooth="yes"/>
			<point x="135" y="-28"/>
			<point x="145" y="-71"/>
			<point x="121" y="-115" type="curve" smooth="yes"/>
			<point x="112" y="-131"/>
			<point x="112" y="-150"/>
		</contour>
		<contour>
			<point x="259" y="-165" type="curve" smooth="yes"/>
			<point x="272" y="-174"/>
			<point x="292" y="-173"/>
			<point x="300" y="-157" type="curve"/>
			<point x="308" y="-145"/>
			<point x="315" y="-131"/>
			<point x="319" y="-116" type="curve" smooth="yes"/>
			<point x="328" y="-79"/>
			<point x="331" y="-39"/>
			<point x="329" y="0" type="curve" smooth="yes"/>
			<point x="328" y="23"/>
			<point x="322" y="48"/>
			<point x="308" y="72" type="curve" smooth="yes"/>
			<point x="295" y="94"/>
			<point x="282" y="108"/>
			<point x="261" y="113" type="curve"/>
			<point x="244" y="114"/>
			<point x="221" y="83"/>
			<point x="231" y="72" type="curve" smooth="yes"/>
			<point x="244" y="57"/>
			<point x="266" y="20"/>
			<point x="264" y="-18" type="curve" smooth="yes"/>
			<point x="264" y="-30"/>
			<point x="266" y="-45"/>
			<point x="264" y="-58" type="curve" smooth="yes"/>
			<point x="262" y="-76"/>
			<point x="256" y="-94"/>
			<point x="252" y="-112" type="curve" smooth="yes"/>
			<point x="251" y="-117"/>
			<point x="246" y="-124"/>
			<point x="244" y="-129" type="curve" smooth="yes"/>
			<point x="238" y="-144"/>
			<point x="248" y="-157"/>
		</contour>
	</outline>
</glyph>
<glyph name="dagger" format="2">
	<advance width="453"/>
	<unicode hex="2020"/>
	<note>
		dagger
	</note>
	<outline>
		<contour>
			<point x="403" y="606" type="curve"/>
			<point x="401" y="580" type="line"/>
			<point x="391" y="554"/>
			<point x="324" y="573"/>
			<point x="260" y="544" type="curve"/>
			<point x="258" y="522"/>
			<point x="262" y="497"/>
			<point x="262" y="475" type="curve" smooth="yes"/>
			<point x="262" y="412"/>
			<point x="261" y="386"/>
			<point x="263" y="323" type="curve" smooth="yes"/>
			<point x="264" y="294"/>
			<point x="278" y="266"/>
			<point x="280" y="238" type="curve" smooth="yes"/>
			<point x="281" y="228"/>
			<point x="273" y="210"/>
			<point x="267" y="209" type="curve" smooth="yes"/>
			<point x="255" y="207"/>
			<point x="234" y="210"/>
			<point x="230" y="218" type="curve" smooth="yes"/>
			<point x="218" y="241"/>
			<point x="209" y="266"/>
			<point x="208" y="291" type="curve" smooth="yes"/>
			<point x="203" y="354"/>
			<point x="203" y="417"/>
			<point x="201" y="444" type="curve" smooth="yes"/>
			<point x="199" y="472"/>
			<point x="198" y="500"/>
			<point x="195" y="533" type="curve"/>
			<point x="177" y="533"/>
			<point x="163" y="536"/>
			<point x="150" y="534" type="curve" smooth="yes"/>
			<point x="130" y="532"/>
			<point x="110" y="526"/>
			<point x="91" y="524" type="curve" smooth="yes"/>
			<point x="72" y="523"/>
			<point x="58" y="533"/>
			<point x="51" y="551" type="curve" smooth="yes"/>
			<point x="45" y="565"/>
			<point x="58" y="583"/>
			<point x="78" y="588" type="curve" smooth="yes"/>
			<point x="111" y="598"/>
			<point x="144" y="606"/>
			<point x="180" y="615" type="curve"/>
			<point x="180" y="638"/>
			<point x="180" y="657"/>
			<point x="180" y="676" type="curve" smooth="yes"/>
			<point x="179" y="714"/>
			<point x="178" y="751"/>
			<point x="180" y="788" type="curve" smooth="yes"/>
			<point x="181" y="796"/>
			<point x="195" y="809"/>
			<point x="203" y="809" type="curve" smooth="yes"/>
			<point x="215" y="809"/>
			<point x="234" y="802"/>
			<point x="238" y="793" type="curve" smooth="yes"/>
			<point x="246" y="775"/>
			<point x="248" y="754"/>
			<point x="248" y="734" type="curve" smooth="yes"/>
			<point x="249" y="697"/>
			<point x="235" y="660"/>
			<point x="256" y="620" type="curve"/>
			<point x="321" y="622"/>
			<point x="403" y="634"/>
		</contour>
	</outline>
</glyph>
<glyph name="ellipsis" format="2">
	<advance width="639"/>
	<unicode hex="2026"/>
	<note>
		ellipsis
	</note>
	<outline>
		<contour>
			<point x="281" y="23" type="curve" smooth="yes"/>
			<point x="297" y="14"/>
			<point x="315" y="18"/>
			<point x="326" y="29" type="curve" smooth="yes"/>
			<point x="342" y="45"/>
			<point x="356" y="65"/>
			<point x="369" y="83" type="curve" smooth="yes"/>
			<point x="379" y="97"/>
			<point x="380" y="111"/>
			<point x="365" y="123" type="curve" smooth="yes"/>
			<point x="352" y="134"/>
			<point x="333" y="135"/>
			<point x="318" y="125" type="curve" smooth="yes"/>
			<point x="310" y="120"/>
			<point x="302" y="114"/>
			<point x="293" y="110" type="curve" smooth="yes"/>
			<point x="266" y="99"/>
			<point x="258" y="88"/>
			<point x="258" y="58" type="curve"/>
			<point x="256" y="39"/>
			<point x="269" y="30"/>
		</contour>
		<contour>
			<point x="67" y="0" type="curve"/>
			<point x="78" y="8"/>
			<point x="89" y="12"/>
			<point x="95" y="20" type="curve" smooth="yes"/>
			<point x="108" y="36"/>
			<point x="118" y="52"/>
			<point x="128" y="69" type="curve" smooth="yes"/>
			<point x="139" y="89"/>
			<point x="134" y="106"/>
			<point x="116" y="116" type="curve" smooth="yes"/>
			<point x="98" y="127"/>
			<point x="74" y="123"/>
			<point x="62" y="107" type="curve" smooth="yes"/>
			<point x="54" y="96"/>
			<point x="44" y="84"/>
			<point x="39" y="71" type="curve" smooth="yes"/>
			<point x="35" y="57"/>
			<point x="32" y="39"/>
			<point x="37" y="26" type="curve"/>
			<point x="39" y="16"/>
			<point x="54" y="10"/>
		</contour>
		<contour>
			<point x="505" y="21" type="curve" smooth="yes"/>
			<point x="523" y="4"/>
			<point x="545" y="5"/>
			<point x="559" y="26" type="curve" smooth="yes"/>
			<point x="568" y="38"/>
			<point x="574" y="53"/>
			<point x="580" y="68" type="curve" smooth="yes"/>
			<point x="593" y="98"/>
			<point x="580" y="116"/>
			<point x="539" y="117" type="curve"/>
			<point x="529" y="112"/>
			<point x="507" y="107"/>
			<point x="493" y="93" type="curve" smooth="yes"/>
			<point x="478" y="78"/>
			<point x="488" y="37"/>
		</contour>
	</outline>
</glyph>
<glyph name="guilsinglleft" format="2">
	<advance width="264"/>
	<unicode hex="2039"/>
	<note>
		guilsinglleft
	</note>
	<outline>
		<contour>
			<point x="172" y="459" type="curve"/>
			<point x="166" y="452"/>
			<point x="156" y="448"/>
			<point x="154" y="444" type="curve" smooth="yes"/>
			<point x="118" y="393"/>
			<point x="80" y="340"/>
			<point x="47" y="283" type="curve" smooth="yes"/>
			<point x="39" y="274"/>
			<point x="37" y="252"/>
			<point x="43" y="242" type="curve" smooth="yes"/>
			<point x="73" y="185"/>
			<point x="126" y="147"/>
			<point x="181" y="112" type="curve" smooth="yes"/>
			<point x="191" y="107"/>
			<point x="216" y="116"/>
			<point x="225" y="125" type="curve" smooth="yes"/>
			<point x="241" y="135"/>
			<point x="234" y="153"/>
			<point x="221" y="164" type="curve" smooth="yes"/>
			<point x="177" y="202" type="line" smooth="yes"/>
			<point x="167" y="211"/>
			<point x="155" y="220"/>
			<point x="148" y="232" type="curve" smooth="yes"/>
			<point x="125" y="261"/>
			<point x="126" y="266"/>
			<point x="146" y="294" type="curve" smooth="yes"/>
			<point x="165" y="321"/>
			<point x="182" y="347"/>
			<point x="201" y="374" type="curve" smooth="yes"/>
			<point x="227" y="417"/>
			<point x="225" y="429"/>
		</contour>
	</outline>
</glyph>
<glyph name="arrowleft" format="2">
	<advance width="1107"/>
	<unicode hex="2190"/>
	<outline>
		<contour>
			<point x="380" y="176" type="qcurve"/>
			<point x="411" y="176"/>
			<point x="421" y="188" type="qcurve"/>
			<point x="430" y="194"/>
			<point x="430" y="218"/>
			<point x="392" y="239" type="qcurve"/>
			<point x="246" y="327"/>
			<point x="216" y="340" type="qcurve"/>
			<point x="249" y="337"/>
			<point x="599" y="331"/>
			<point x="780" y="340" type="qcurve"/>
			<point x="934" y="348" type="line"/>
			<point x="978" y="348" type="line" smooth="yes"/>
			<point x="1030" y="348"/>
			<point x="1055" y="348" type="qcurve"/>
			<point x="1067" y="349"/>
			<point x="1090" y="388"/>
			<point x="1082" y="407"/>
			<point x="1077" y="413" type="qcurve"/>
			<point x="1055" y="428"/>
			<point x="999" y="419"/>
			<point x="964" y="418" type="qcurve"/>
			<point x="723" y="406" type="line" smooth="yes"/>
			<point x="569" y="399"/>
			<point x="474" y="405" type="qcurve"/>
			<point x="423" y="401"/>
			<point x="368" y="401" type="qcurve"/>
			<point x="246" y="400" type="line"/>
			<point x="294" y="421"/>
			<point x="401" y="464" type="qcurve"/>
			<point x="408" y="466"/>
			<point x="468" y="492"/>
			<point x="471" y="522"/>
			<point x="443" y="545"/>
			<point x="421" y="545" type="qcurve"/>
			<point x="397" y="546"/>
			<point x="312" y="504"/>
			<point x="275" y="477"/>
			<point x="153" y="428" type="qcurve"/>
			<point x="40" y="393"/>
			<point x="40" y="371" type="qcurve"/>
			<point x="40" y="360"/>
			<point x="79" y="331"/>
			<point x="199" y="259" type="qcurve"/>
			<point x="285" y="198"/>
			<point x="351" y="176"/>
		</contour>
	</outline>
</glyph>
<glyph name="arrowboth" format="2">
	<advance width="1075"/>
	<unicode hex="2194"/>
	<outline>
		<contour>
			<point x="264" y="561" type="qcurve"/>
			<point x="234" y="559"/>
			<point x="189" y="535"/>
			<point x="169" y="512" type="qcurve"/>
			<point x="89" y="445"/>
			<point x="54" y="404"/>
			<point x="40" y="388"/>
			<point x="40" y="379" type="qcurve"/>
			<point x="41" y="367"/>
			<point x="145" y="273"/>
			<point x="224" y="216" type="qcurve"/>
			<point x="259" y="191"/>
			<point x="287" y="194" type="qcurve"/>
			<point x="310" y="197"/>
			<point x="333" y="215" type="qcurve"/>
			<point x="328" y="222"/>
			<point x="309" y="249"/>
			<point x="300" y="256" type="qcurve"/>
			<point x="271" y="285"/>
			<point x="219" y="320" type="qcurve"/>
			<point x="190" y="339"/>
			<point x="145" y="384"/>
			<point x="145" y="394" type="qcurve"/>
			<point x="155" y="427"/>
			<point x="289" y="517"/>
			<point x="286" y="512" type="qcurve"/>
			<point x="309" y="530"/>
			<point x="296" y="553"/>
			<point x="280" y="563"/>
		</contour>
		<contour>
			<point x="778" y="186" type="line" smooth="yes"/>
			<point x="808" y="198"/>
			<point x="915" y="246"/>
			<point x="999" y="304" type="qcurve"/>
			<point x="1014" y="313"/>
			<point x="1042" y="333"/>
			<point x="1029" y="351" type="qcurve"/>
			<point x="987" y="387" type="line" smooth="yes"/>
			<point x="970" y="402"/>
			<point x="873" y="484"/>
			<point x="794" y="550" type="qcurve"/>
			<point x="789" y="555"/>
			<point x="749" y="577"/>
			<point x="709" y="563"/>
			<point x="695" y="549"/>
			<point x="693" y="541" type="qcurve"/>
			<point x="758" y="497"/>
			<point x="763" y="494" type="qcurve"/>
			<point x="832" y="453"/>
			<point x="938" y="351"/>
			<point x="942" y="344" type="qcurve"/>
			<point x="911" y="309"/>
			<point x="804" y="256"/>
			<point x="757" y="245" type="qcurve"/>
			<point x="714" y="213"/>
			<point x="735" y="169" type="qcurve"/>
		</contour>
		<component base="emdash" xScale="0.9962" xyScale="-0.0872" yScale="0.9962" yxScale="0.0872" xOffset="85" yOffset="104"/>
	</outline>
</glyph>
<glyph name="minus" format="2">
	<advance width="642"/>
	<unicode hex="2212"/>
	<outline>
		<contour>
			<point x="110" y="301" type="curve"/>
			<point x="461" y="303" type="line"/>
			<point x="473" y="304"/>
			<point x="533" y="300"/>
			<point x="541" y="296" type="curve"/>
			<point x="558" y="286"/>
			<point x="566" y="268"/>
			<point x="561" y="249" type="curve"/>
			<point x="558" y="230"/>
			<point x="541" y="229"/>
			<point x="527" y="229" type="curve"/>
			<point x="401" y="227"/>
			<point x="323" y="236"/>
			<point x="198" y="233" type="curve"/>
			<point x="171" y="235"/>
			<point x="143" y="231"/>
			<point x="116" y="230" type="curve"/>
			<point x="92" y="230"/>
			<point x="71" y="265"/>
			<point x="84" y="290" type="curve"/>
			<point x="88" y="295"/>
			<point x="101" y="301"/>
		</contour>
	</outline>
</glyph>
<glyph name="radical" format="2">
	<advance width="588"/>
	<unicode hex="221A"/>
	<note>
		radical
	</note>
	<outline>
		<contour>
			<point x="224" y="-74" type="curve" smooth="yes"/>
			<point x="244" y="-74"/>
			<point x="264" y="-61"/>
			<point x="281" y="-33" type="curve" smooth="yes"/>
			<point x="321" y="34"/>
			<point x="374" y="229"/>
			<point x="393" y="304" type="curve" smooth="yes"/>
			<point x="406" y="357"/>
			<point x="440" y="468"/>
			<point x="456" y="520" type="curve" smooth="yes"/>
			<point x="466" y="554"/>
			<point x="507" y="584"/>
			<point x="543" y="601" type="curve" smooth="yes"/>
			<point x="585" y="618"/>
			<point x="571" y="646"/>
			<point x="521" y="677" type="curve"/>
			<point x="445" y="625"/>
			<point x="417" y="620"/>
			<point x="390" y="539" type="curve" smooth="yes"/>
			<point x="373" y="486"/>
			<point x="338" y="373"/>
			<point x="323" y="319" type="curve" smooth="yes"/>
			<point x="306" y="258"/>
			<point x="259" y="76"/>
			<point x="211" y="13" type="curve"/>
			<point x="188" y="66"/>
			<point x="167" y="110"/>
			<point x="150" y="156" type="curve" smooth="yes"/>
			<point x="133" y="201"/>
			<point x="120" y="250"/>
			<point x="102" y="295" type="curve" smooth="yes"/>
			<point x="92" y="316"/>
			<point x="74" y="336"/>
			<point x="57" y="352" type="curve" smooth="yes"/>
			<point x="42" y="368"/>
			<point x="5" y="343"/>
			<point x="15" y="313" type="curve" smooth="yes"/>
			<point x="18" y="299"/>
			<point x="30" y="287"/>
			<point x="35" y="273" type="curve" smooth="yes"/>
			<point x="105" y="72"/>
			<point x="130" y="-4"/>
			<point x="166" y="-43" type="curve" smooth="yes"/>
			<point x="186" y="-64"/>
			<point x="206" y="-74"/>
		</contour>
	</outline>
</glyph>
<glyph name="lessequal" format="2">
	<advance width="662"/>
	<unicode hex="2264"/>
	<note>
		lessequal
	</note>
	<outline>
		<contour>
			<point x="452" y="195" type="curve"/>
			<point x="480" y="180"/>
			<point x="550" y="157"/>
			<point x="578" y="195" type="curve" smooth="yes"/>
			<point x="601" y="226"/>
			<point x="243" y="316"/>
			<point x="149" y="371" type="curve"/>
			<point x="153" y="374"/>
			<point x="159" y="381"/>
			<point x="166" y="384" type="curve" smooth="yes"/>
			<point x="277" y="434"/>
			<point x="389" y="483"/>
			<point x="499" y="534" type="curve" smooth="yes"/>
			<point x="536" y="552"/>
			<point x="572" y="576"/>
			<point x="605" y="601" type="curve" smooth="yes"/>
			<point x="613" y="607"/>
			<point x="614" y="635"/>
			<point x="607" y="644" type="curve" smooth="yes"/>
			<point x="600" y="653"/>
			<point x="575" y="656"/>
			<point x="564" y="650" type="curve" smooth="yes"/>
			<point x="510" y="621"/>
			<point x="459" y="585"/>
			<point x="403" y="558" type="curve" smooth="yes"/>
			<point x="300" y="509"/>
			<point x="193" y="465"/>
			<point x="89" y="418" type="curve" smooth="yes"/>
			<point x="74" y="411"/>
			<point x="50" y="396"/>
			<point x="50" y="392" type="curve" smooth="yes"/>
			<point x="49" y="360"/>
			<point x="66" y="346"/>
			<point x="83" y="335" type="curve" smooth="yes"/>
			<point x="112" y="315"/>
			<point x="146" y="303"/>
			<point x="180" y="291" type="curve" smooth="yes"/>
			<point x="264" y="262"/>
			<point x="271" y="242"/>
		</contour>
		<contour>
			<point x="70" y="21" type="curve" smooth="yes"/>
			<point x="123" y="21"/>
			<point x="447" y="32"/>
			<point x="538" y="40" type="curve" smooth="yes"/>
			<point x="557" y="41"/>
			<point x="577" y="41"/>
			<point x="597" y="43" type="curve" smooth="yes"/>
			<point x="608" y="45"/>
			<point x="584" y="102"/>
			<point x="569" y="101" type="curve" smooth="yes"/>
			<point x="547" y="98"/>
			<point x="526" y="96"/>
			<point x="504" y="95" type="curve" smooth="yes"/>
			<point x="354" y="89"/>
			<point x="66" y="104"/>
			<point x="56" y="79" type="curve" smooth="yes"/>
			<point x="52" y="71"/>
			<point x="47" y="21"/>
		</contour>
	</outline>
</glyph>
<glyph name="uni25CC" format="2">
	<advance width="805"/>
	<unicode hex="25CC"/>
	<outline>
		<contour>
			<point x="528" y="94" type="curve"/>
			<point x="517" y="124"/>
			<point x="452" y="97"/>
			<point x="479" y="58" type="curve"/>
			<point x="487" y="46"/>
			<point x="501" y="37"/>
			<point x="526" y="37" type="curve"/>
			<point x="553" y="49"/>
			<point x="535" y="78"/>
		</contour>
		<contour>
			<point x="463" y="739" type="curve"/>
			<point x="436" y="748"/>
			<point x="423" y="726"/>
			<point x="423" y="699" type="curve"/>
			<point x="423" y="671"/>
			<point x="498" y="647"/>
			<point x="498" y="692" type="curve"/>
			<point x="498" y="708"/>
			<point x="478" y="734"/>
		</contour>
		<contour>
			<point x="267" y="50" type="curve"/>
			<point x="240" y="41"/>
			<point x="227" y="63"/>
			<point x="227" y="89" type="curve"/>
			<point x="227" y="116"/>
			<point x="302" y="142"/>
			<point x="302" y="97" type="curve"/>
			<point x="302" y="80"/>
			<point x="282" y="55"/>
		</contour>
		<contour>
			<point x="219" y="587" type="curve"/>
			<point x="267" y="577"/>
			<point x="243" y="755"/>
			<point x="171" y="658" type="curve"/>
			<point x="173" y="626"/>
			<point x="176" y="599"/>
		</contour>
		<contour>
			<point x="676" y="610" type="curve"/>
			<point x="637" y="584"/>
			<point x="674" y="523"/>
			<point x="710" y="547" type="curve"/>
			<point x="716" y="552"/>
			<point x="714" y="577"/>
			<point x="707" y="588" type="curve"/>
			<point x="702" y="599"/>
			<point x="681" y="613"/>
		</contour>
		<contour>
			<point x="101" y="426" type="curve"/>
			<point x="139" y="432"/>
			<point x="82" y="506"/>
			<point x="61" y="473" type="curve"/>
			<point x="54" y="463"/>
			<point x="54" y="441"/>
			<point x="61" y="435" type="curve"/>
			<point x="70" y="427"/>
			<point x="88" y="425"/>
		</contour>
		<contour>
			<point x="739" y="364" type="curve"/>
			<point x="719" y="373"/>
			<point x="705" y="296"/>
			<point x="733" y="302" type="curve"/>
			<point x="745" y="305"/>
			<point x="765" y="319"/>
			<point x="763" y="325" type="curve"/>
			<point x="762" y="340"/>
			<point x="752" y="358"/>
		</contour>
		<contour>
			<point x="95" y="196" type="curve"/>
			<point x="174" y="254"/>
			<point x="169" y="309"/>
			<point x="88" y="263" type="curve"/>
			<point x="61" y="239"/>
			<point x="88" y="199"/>
		</contour>
		<contour>
			<point x="414" y="20" type="curve"/>
			<point x="418" y="59"/>
			<point x="397" y="105"/>
			<point x="362" y="103" type="curve"/>
			<point x="342" y="97"/>
			<point x="345" y="68"/>
			<point x="347" y="52" type="curve"/>
			<point x="351" y="8"/>
			<point x="413" y="9"/>
		</contour>
		<contour>
			<point x="572" y="681" type="curve"/>
			<point x="560" y="670"/>
			<point x="553" y="638"/>
			<point x="560" y="624" type="curve"/>
			<point x="579" y="583"/>
			<point x="637" y="636"/>
			<point x="625" y="662" type="curve"/>
			<point x="614" y="686"/>
			<point x="592" y="701"/>
		</contour>
		<contour>
			<point x="207" y="166" type="curve"/>
			<point x="216" y="97"/>
			<point x="118" y="102"/>
			<point x="127" y="133" type="curve"/>
			<point x="125" y="137"/>
			<point x="143" y="175"/>
			<point x="158" y="190" type="curve"/>
			<point x="165" y="198"/>
			<point x="185" y="202"/>
			<point x="196" y="198" type="curve"/>
			<point x="202" y="197"/>
			<point x="210" y="176"/>
		</contour>
		<contour>
			<point x="300" y="669" type="curve"/>
			<point x="327" y="646"/>
			<point x="395" y="657"/>
			<point x="380" y="675" type="curve"/>
			<point x="310" y="777"/>
			<point x="238" y="722"/>
		</contour>
		<contour>
			<point x="698" y="451" type="curve"/>
			<point x="713" y="406"/>
			<point x="782" y="426"/>
			<point x="768" y="467" type="curve"/>
			<point x="765" y="474"/>
			<point x="735" y="494"/>
			<point x="723" y="490" type="curve"/>
			<point x="711" y="488"/>
			<point x="697" y="456"/>
		</contour>
		<contour>
			<point x="123" y="526" type="curve"/>
			<point x="219" y="521"/>
			<point x="139" y="606"/>
			<point x="106" y="585" type="curve"/>
			<point x="96" y="579"/>
			<point x="86" y="559"/>
			<point x="90" y="551" type="curve"/>
			<point x="95" y="540"/>
			<point x="110" y="530"/>
		</contour>
		<contour>
			<point x="611" y="85" type="curve"/>
			<point x="671" y="97"/>
			<point x="638" y="158"/>
			<point x="621" y="161" type="curve"/>
			<point x="602" y="166"/>
			<point x="583" y="164"/>
			<point x="586" y="140" type="curve"/>
			<point x="590" y="122"/>
			<point x="596" y="95"/>
		</contour>
		<contour>
			<point x="56" y="320" type="curve"/>
			<point x="138" y="304"/>
			<point x="107" y="390"/>
			<point x="78" y="384" type="curve"/>
			<point x="43" y="374"/>
			<point x="51" y="326"/>
		</contour>
		<contour>
			<point x="658" y="222" type="curve"/>
			<point x="657" y="175"/>
			<point x="728" y="171"/>
			<point x="729" y="214" type="curve"/>
			<point x="729" y="222"/>
			<point x="719" y="248"/>
			<point x="706" y="249" type="curve"/>
			<point x="694" y="251"/>
			<point x="659" y="228"/>
		</contour>
	</outline>
</glyph>
<glyph name="uniA71C" format="2">
	<advance width="600"/>
	<unicode hex="A71C"/>
	<outline>
		<contour>
			<point x="281" y="248" type="qcurve"/>
			<point x="293" y="248"/>
			<point x="315" y="281"/>
			<point x="334" y="309" type="qcurve"/>
			<point x="358" y="344"/>
			<point x="399" y="400" type="qcurve"/>
			<point x="432" y="450"/>
			<point x="466" y="492" type="qcurve"/>
			<point x="481" y="507"/>
			<point x="481" y="522" type="qcurve"/>
			<point x="481" y="533"/>
			<point x="474" y="541" type="qcurve"/>
			<point x="449" y="536"/>
			<point x="437" y="522" type="qcurve"/>
			<point x="431" y="515"/>
			<point x="388" y="477"/>
			<point x="346" y="428"/>
			<point x="312" y="376" type="qcurve"/>
			<point x="308" y="370"/>
			<point x="303" y="362"/>
			<point x="300" y="358" type="qcurve"/>
			<point x="290" y="398"/>
			<point x="303" y="525" type="qcurve"/>
			<point x="301" y="562"/>
			<point x="290" y="741" type="qcurve"/>
			<point x="290" y="749"/>
			<point x="289" y="777"/>
			<point x="288" y="788" type="qcurve"/>
			<point x="287" y="792"/>
			<point x="276" y="806"/>
			<point x="271" y="807" type="qcurve"/>
			<point x="268" y="808"/>
			<point x="262" y="808" type="qcurve"/>
			<point x="249" y="808"/>
			<point x="240" y="801" type="qcurve"/>
			<point x="234" y="796"/>
			<point x="225" y="781"/>
			<point x="224" y="773" type="qcurve"/>
			<point x="223" y="767"/>
			<point x="223" y="752" type="qcurve"/>
			<point x="223" y="740"/>
			<point x="224" y="734" type="qcurve"/>
			<point x="248" y="551" type="line" smooth="yes"/>
			<point x="255" y="499"/>
			<point x="251" y="465" type="qcurve"/>
			<point x="258" y="351" type="line"/>
			<point x="252" y="367"/>
			<point x="223" y="428"/>
			<point x="198" y="465"/>
			<point x="182" y="492" type="qcurve"/>
			<point x="177" y="507"/>
			<point x="165" y="537"/>
			<point x="158" y="548" type="qcurve"/>
			<point x="145" y="566"/>
			<point x="130" y="567" type="qcurve"/>
			<point x="120" y="567"/>
			<point x="99" y="551" type="qcurve"/>
			<point x="99" y="533"/>
			<point x="107" y="522" type="qcurve"/>
			<point x="130" y="476"/>
			<point x="151" y="443" type="qcurve"/>
			<point x="166" y="420"/>
			<point x="262" y="248"/>
		</contour>
	</outline>
</glyph>
<glyph name="uniA78B" format="2">
	<advance width="182"/>
	<unicode hex="A78B"/>
	<outline>
		<contour>
			<point x="89" y="719" type="curve" smooth="yes"/>
			<point x="69" y="719"/>
			<point x="55" y="704"/>
			<point x="56" y="682" type="curve" smooth="yes"/>
			<point x="56" y="601"/>
			<point x="54" y="524"/>
			<point x="50" y="444" type="curve" smooth="yes"/>
			<point x="49" y="432"/>
			<point x="52" y="341"/>
			<point x="54" y="334" type="curve" smooth="yes"/>
			<point x="56" y="323"/>
			<point x="64" y="308"/>
			<point x="73" y="306" type="curve" smooth="yes"/>
			<point x="87" y="299"/>
			<point x="103" y="312"/>
			<point x="108" y="326" type="curve" smooth="yes"/>
			<point x="113" y="338"/>
			<point x="118" y="352"/>
			<point x="117" y="425" type="curve" smooth="yes"/>
			<point x="116" y="472"/>
			<point x="130" y="595"/>
			<point x="132" y="643" type="curve" smooth="yes"/>
			<point x="134" y="698"/>
			<point x="127" y="719"/>
		</contour>
	</outline>
</glyph>
